<?xml version="1.0" standalone="no"?>
<!DOCTYPE svg PUBLIC "-//W3C//DTD SVG 20010904//EN"
 "http://www.w3.org/TR/2001/REC-SVG-20010904/DTD/svg10.dtd">
<svg version="1.0" xmlns="http://www.w3.org/2000/svg"
 width="1146.000000pt" height="1146.000000pt" viewBox="0 0 1146.000000 1146.000000"
 preserveAspectRatio="xMidYMid meet">
<metadata>
Created by potrace 1.14, written by Peter Selinger 2001-2017
</metadata>
<g transform="translate(0.000000,1146.000000) scale(0.100000,-0.100000)"
fill="#000000" stroke="none">
<path d="M1954 11438 c-12 -13 -34 -50 -51 -83 -16 -33 -36 -71 -43 -85 -8
-14 -15 -27 -15 -30 -1 -3 -9 -23 -19 -45 -53 -118 -129 -325 -119 -325 3 0 1
-6 -5 -12 -9 -12 -24 -65 -27 -98 0 -9 -4 -21 -9 -28 -4 -6 -5 -12 -2 -12 2 0
0 -15 -5 -32 -5 -18 -12 -46 -14 -63 -5 -30 -11 -60 -21 -105 -2 -14 -7 -45
-10 -70 -3 -25 -7 -56 -9 -70 -11 -78 -19 -160 -19 -197 -1 -24 -3 -43 -6 -43
-3 0 -5 -21 -6 -48 0 -26 -4 -96 -9 -157 -11 -144 -12 -588 -2 -690 11 -114
16 -156 20 -190 6 -44 20 -156 23 -185 1 -14 3 -25 4 -25 2 0 3 -8 14 -95 4
-30 12 -73 16 -96 5 -22 12 -58 14 -80 3 -21 14 -86 25 -144 11 -58 23 -121
26 -140 3 -19 9 -48 14 -65 5 -16 14 -57 21 -90 16 -75 70 -287 75 -295 2 -4
7 -22 10 -40 3 -19 10 -39 15 -45 5 -6 11 -22 14 -35 10 -54 108 -318 158
-429 37 -83 147 -304 191 -386 61 -113 71 -129 82 -137 6 -4 7 -8 3 -8 -6 0
149 -263 174 -295 5 -5 34 -48 65 -95 53 -80 215 -302 238 -326 5 -6 21 -26
35 -44 24 -31 34 -44 83 -100 110 -127 150 -171 204 -227 35 -35 66 -76 69
-89 4 -16 -5 -52 -26 -104 -18 -43 -30 -81 -28 -83 1 -1 -4 -14 -13 -27 -8
-14 -23 -47 -33 -75 -10 -27 -24 -63 -31 -80 -7 -16 -25 -61 -40 -100 -16 -38
-39 -93 -52 -122 -13 -29 -24 -55 -23 -58 0 -3 -13 -32 -30 -65 -17 -33 -31
-63 -32 -67 -7 -25 -175 -342 -215 -405 -12 -21 -23 -42 -23 -47 0 -5 -4 -11
-8 -13 -5 -1 -23 -25 -42 -53 -72 -107 -187 -227 -284 -299 -31 -23 -32 -39
-5 -77 22 -32 19 -62 -10 -89 -9 -9 -63 -53 -121 -100 -58 -47 -107 -88 -110
-91 -3 -3 -13 -10 -24 -16 -16 -9 -12 -13 30 -33 27 -13 56 -29 66 -37 9 -8
22 -15 30 -17 7 -1 19 -5 26 -9 6 -5 23 -14 37 -21 l26 -14 -36 -21 c-20 -11
-42 -21 -50 -21 -7 0 -15 -3 -17 -7 -1 -5 -26 -19 -55 -32 -63 -29 -72 -54
-43 -114 24 -50 81 -150 89 -157 3 -3 19 -23 35 -45 40 -54 184 -194 218 -211
16 -8 28 -19 28 -24 0 -6 4 -10 10 -10 5 0 34 -17 64 -39 l55 -38 -37 -16
c-66 -29 -117 -48 -117 -45 0 2 -8 -4 -17 -12 -14 -14 -14 -16 9 -31 13 -9 43
-32 66 -52 23 -19 100 -83 172 -143 71 -59 135 -112 141 -118 7 -6 26 -22 44
-36 18 -14 47 -37 64 -51 17 -14 42 -34 55 -45 13 -10 32 -27 43 -37 10 -9 21
-17 24 -17 3 0 27 -18 53 -40 26 -22 53 -40 59 -40 7 0 12 -3 12 -8 0 -4 27
-28 61 -52 33 -25 66 -50 72 -55 7 -6 62 -48 122 -94 61 -47 117 -90 125 -98
8 -7 51 -41 95 -75 44 -35 82 -65 85 -69 3 -3 50 -43 105 -89 55 -46 107 -91
116 -99 9 -9 54 -50 99 -91 130 -117 356 -348 470 -480 24 -28 100 -115 170
-193 25 -28 54 -60 65 -71 11 -12 59 -64 106 -116 165 -181 246 -256 349 -322
104 -67 269 -127 395 -143 62 -8 337 -13 349 -7 5 3 23 6 40 7 81 5 203 40
319 93 42 19 77 39 77 43 0 5 5 9 11 9 35 0 267 203 339 296 35 45 175 220
185 230 5 6 30 35 55 65 114 136 383 410 539 549 46 41 91 82 100 90 9 8 61
53 116 99 55 47 111 95 125 108 23 21 517 418 586 470 16 12 40 31 54 42 14
11 66 51 115 90 50 39 100 80 112 91 12 11 25 20 28 20 4 0 12 6 19 13 7 6 28
23 46 37 18 14 39 31 46 38 7 6 17 12 22 12 6 0 12 4 14 9 2 5 37 36 78 68 96
74 215 182 208 188 -12 10 -90 45 -101 45 -8 0 -20 7 -27 15 -7 8 -16 12 -21
9 -5 -3 -9 1 -9 8 0 7 24 29 53 48 110 73 176 126 177 139 0 8 3 11 6 8 6 -6
32 19 98 93 60 68 150 214 165 268 5 16 5 36 -1 45 -5 9 -54 38 -108 64 -55
26 -100 51 -100 55 0 4 10 10 23 14 12 4 33 15 46 25 13 10 27 16 32 13 5 -3
9 -1 9 5 0 6 11 13 25 17 14 3 25 10 25 15 0 5 8 9 19 9 10 0 24 6 30 14 9 11
4 18 -26 37 -21 13 -39 27 -41 31 -2 4 -10 8 -17 8 -7 0 -15 3 -17 8 -1 4 -28
26 -58 49 -103 78 -121 113 -98 193 l14 45 -61 55 c-70 65 -170 164 -205 206
-36 42 -110 153 -110 164 0 6 -4 10 -9 10 -5 0 -12 8 -15 17 -4 10 -18 38 -32
63 -32 54 -115 220 -139 275 -9 22 -27 63 -40 90 -12 28 -39 91 -60 140 -40
97 -51 125 -84 197 -11 26 -21 50 -21 53 0 2 -13 34 -30 70 -16 36 -30 72 -30
80 0 8 -5 15 -10 15 -6 0 -9 3 -8 8 1 4 -4 18 -12 32 -7 14 -13 26 -11 28 1 1
-6 16 -14 32 -9 17 -12 30 -8 30 4 0 2 5 -4 11 -17 17 6 76 44 109 18 16 33
32 33 34 0 3 19 24 43 48 23 24 59 64 80 88 75 87 112 131 149 173 21 23 38
47 38 54 0 7 6 16 13 20 7 4 26 26 42 48 17 22 32 42 35 45 15 15 60 80 60 87
0 5 8 16 18 25 27 26 59 73 68 100 3 9 12 19 20 22 8 3 14 12 14 21 0 8 5 15
10 15 6 0 10 5 10 10 0 6 16 33 35 60 19 27 35 54 35 59 0 5 6 16 13 23 15 15
104 165 168 283 45 85 183 360 180 360 -1 0 16 41 39 90 22 50 45 99 50 110
13 30 61 163 64 178 2 6 6 21 10 32 5 11 14 37 22 58 8 20 11 37 8 37 -4 0 -2
6 4 13 6 7 13 24 15 37 3 14 16 66 30 115 14 50 29 104 33 120 4 17 8 35 10
40 6 20 30 124 38 165 3 14 8 36 11 50 3 14 8 34 10 45 5 27 24 124 31 155 3
14 7 34 8 45 2 11 11 63 21 115 9 52 18 109 20 127 2 18 6 40 9 50 3 10 7 38
10 63 3 25 10 81 16 125 11 78 14 108 26 250 8 83 13 596 6 608 -2 5 -6 43 -9
85 -2 42 -6 95 -8 117 -9 94 -16 162 -20 185 -2 14 -6 48 -10 75 -9 88 -43
311 -50 335 -2 8 -7 31 -10 50 -7 39 -9 49 -61 210 -40 126 -124 329 -188 454
-35 67 -46 82 -73 89 -72 21 -158 -52 -277 -232 -178 -270 -396 -611 -396
-620 0 -5 -3 -11 -8 -13 -6 -3 -42 -53 -77 -109 -33 -52 -155 -221 -165 -229
-4 -3 -9 -10 -11 -16 -2 -6 -18 -29 -36 -50 -18 -21 -76 -93 -129 -159 -53
-66 -104 -127 -113 -136 -9 -9 -32 -36 -52 -60 -21 -24 -48 -55 -60 -70 -13
-14 -46 -51 -74 -83 -27 -32 -69 -79 -92 -103 -24 -24 -43 -47 -43 -49 0 -3
-10 -15 -22 -28 -54 -55 -259 -295 -321 -376 -7 -8 -27 -34 -44 -56 -18 -23
-33 -48 -33 -55 0 -7 -3 -10 -6 -6 -6 5 -74 -85 -74 -98 0 -3 -11 -18 -25 -33
-14 -15 -25 -32 -25 -39 0 -7 -4 -13 -10 -13 -5 0 -10 -5 -10 -11 0 -6 -13
-29 -28 -52 -16 -23 -32 -49 -36 -57 -3 -8 -22 -42 -41 -75 -20 -33 -48 -87
-64 -120 -57 -119 -101 -217 -101 -225 0 -4 -9 -25 -20 -47 -22 -43 -50 -107
-79 -179 -10 -27 -27 -67 -37 -89 -10 -22 -18 -42 -19 -45 -1 -3 -7 -18 -14
-34 -155 -376 -175 -427 -173 -438 1 -5 -3 -8 -8 -8 -6 0 -10 -5 -10 -12 0
-13 -104 -280 -120 -310 -6 -10 -10 -23 -10 -30 0 -7 -6 -24 -13 -38 -7 -14
-37 -91 -67 -172 -30 -80 -58 -144 -62 -142 -10 7 -80 20 -148 29 -14 2 -25 4
-25 5 0 2 -10 3 -95 14 -30 4 -66 9 -80 11 -171 25 -616 25 -782 0 -18 -3 -53
-7 -78 -10 -71 -9 -124 -17 -195 -31 -11 -2 -33 -7 -49 -10 -16 -2 -33 -7 -36
-9 -9 -5 -18 18 -55 135 -15 47 -44 128 -65 180 -144 360 -238 594 -271 676
-7 16 -13 31 -14 34 -8 31 -31 80 -38 80 -4 0 -6 4 -3 8 2 4 -1 21 -9 37 -16
38 -110 268 -111 275 -1 5 -12 32 -56 130 -144 324 -258 514 -465 775 -69 86
-90 112 -103 125 -8 8 -27 31 -42 50 -15 19 -37 47 -50 62 -13 14 -37 43 -55
65 -17 21 -40 47 -50 58 -10 11 -54 63 -97 115 -44 52 -84 100 -90 105 -6 6
-36 39 -66 75 -30 36 -59 70 -65 76 -33 37 -271 326 -315 384 -19 25 -38 47
-42 48 -5 2 -8 8 -8 13 0 6 -13 24 -30 42 -16 18 -30 37 -30 44 0 6 -4 13 -9
15 -8 3 -143 195 -186 264 -11 18 -36 58 -55 90 -19 31 -45 73 -58 93 -13 20
-25 44 -29 54 -3 9 -9 17 -14 17 -5 0 -9 5 -9 10 0 6 -5 16 -11 23 -5 7 -33
48 -62 92 -28 44 -54 82 -58 85 -3 3 -14 21 -24 40 -10 19 -21 37 -24 40 -4 3
-33 44 -64 92 -93 141 -165 204 -242 215 -23 3 -36 -2 -51 -19z m336 -1398 c0
-4 19 -36 43 -70 59 -87 87 -132 94 -152 3 -10 9 -18 14 -18 5 0 9 -6 9 -14 0
-8 3 -16 8 -18 4 -1 29 -34 57 -73 74 -106 225 -299 464 -590 9 -11 29 -38 46
-60 16 -22 33 -41 37 -43 4 -2 8 -10 8 -17 0 -7 4 -15 8 -17 5 -1 39 -46 77
-98 38 -52 75 -101 82 -108 7 -7 13 -18 13 -23 0 -5 8 -18 18 -28 26 -30 37
-45 45 -61 13 -28 32 -55 45 -63 6 -4 12 -12 12 -17 0 -5 26 -48 58 -97 64
-97 165 -263 203 -333 13 -25 26 -47 29 -50 7 -7 29 -47 59 -105 13 -27 31
-57 39 -67 7 -9 14 -22 15 -30 2 -7 14 -33 27 -58 14 -25 36 -69 49 -98 22
-47 23 -54 10 -68 -14 -13 -31 -5 -160 74 -79 49 -146 88 -148 86 -6 -5 102
-214 111 -214 4 0 8 -6 8 -13 0 -7 9 -23 20 -35 12 -12 17 -22 13 -22 -4 0 -3
-4 2 -8 6 -4 39 -45 75 -92 35 -47 69 -89 77 -93 7 -4 13 -14 13 -22 0 -14
-143 54 -204 98 -17 12 -31 20 -31 18 0 -6 -86 50 -109 72 -11 9 -24 17 -28
17 -5 0 -14 5 -21 10 -28 24 -187 140 -191 140 -4 0 20 -63 59 -155 40 -96
131 -267 184 -345 31 -47 58 -89 60 -95 2 -5 9 -15 15 -21 6 -6 25 -29 41 -50
121 -155 305 -334 440 -429 15 -11 42 -32 59 -47 31 -27 31 -27 6 -23 -14 2
-47 6 -75 10 -27 4 -54 10 -60 15 -5 4 -21 10 -35 13 -14 4 -61 27 -104 52
-44 25 -81 45 -83 45 -2 0 -2 -16 1 -35 3 -19 8 -52 11 -72 3 -21 8 -54 11
-73 9 -54 14 -91 18 -136 l4 -41 -51 14 c-72 20 -87 23 -87 17 0 -2 12 -26 28
-53 l27 -50 -58 -51 c-41 -38 -67 -71 -92 -125 -40 -81 -51 -94 -80 -88 -11 2
-27 5 -35 6 -132 20 -300 161 -478 401 -29 39 -56 76 -61 82 -54 68 -101 155
-106 199 -4 28 -8 62 -11 78 -2 15 -6 54 -9 87 -3 33 -7 73 -10 90 -3 16 -3
30 1 30 5 0 101 -44 156 -71 19 -9 133 -40 166 -44 97 -12 146 -16 140 -10 -3
4 -8 5 -10 3 -12 -11 -129 136 -178 224 -49 86 -139 273 -143 294 -2 10 -7 26
-10 34 -17 43 -41 170 -31 170 2 0 37 -11 77 -25 62 -20 117 -25 117 -8 0 15
-29 49 -117 139 -137 142 -222 248 -334 419 -99 151 -119 184 -119 194 0 5 -4
11 -8 13 -10 4 -62 122 -68 155 -3 14 -9 33 -13 42 -5 9 -12 39 -16 66 -5 28
-9 55 -10 61 -2 6 -6 37 -10 69 -3 33 -9 64 -13 70 -3 5 41 -37 99 -95 114
-115 118 -118 209 -180 34 -23 60 -36 56 -29 -3 8 -9 22 -12 32 -4 9 -10 17
-15 17 -5 0 -9 6 -9 14 0 8 -6 21 -13 28 -7 7 -16 20 -20 28 -4 8 -18 33 -31
55 -107 174 -286 518 -286 548 0 7 -4 17 -9 22 -7 8 -33 75 -36 95 0 3 -6 21
-13 41 -7 20 -14 45 -17 55 -23 104 -36 168 -40 201 -5 32 -16 207 -16 238 1
36 10 139 16 185 4 30 8 60 8 67 0 12 27 6 27 -7z m6905 -30 c23 -149 23 -325
-1 -485 -4 -25 -10 -58 -28 -150 -24 -116 -147 -399 -260 -595 -14 -25 -29
-52 -33 -60 -6 -13 -120 -207 -148 -251 -39 -63 -38 -61 -13 -49 58 30 141
101 242 204 l109 111 -7 -55 c-7 -55 -13 -90 -16 -100 -1 -3 -2 -9 -1 -14 3
-16 -40 -169 -60 -215 -52 -116 -128 -250 -166 -289 -7 -8 -18 -23 -24 -34 -6
-11 -17 -27 -24 -36 -103 -127 -165 -201 -192 -228 -18 -18 -33 -35 -33 -38 0
-2 -17 -22 -37 -44 -88 -93 -141 -152 -137 -152 3 0 0 -8 -5 -19 -16 -29 32
-34 99 -9 30 10 60 20 65 21 6 2 16 6 23 11 15 9 11 -16 -13 -104 -9 -30 -18
-62 -20 -70 -24 -95 -101 -257 -169 -357 -49 -74 -66 -95 -140 -171 -22 -24
-34 -41 -26 -38 8 2 40 8 70 11 30 4 64 8 75 10 25 4 105 24 125 32 8 3 20 7
25 8 22 5 111 48 136 66 l26 18 -3 -67 c-7 -167 -21 -240 -67 -340 -13 -27
-185 -246 -198 -250 -5 -2 -9 -7 -9 -12 0 -16 -141 -166 -215 -229 -64 -53
-149 -90 -201 -86 -57 5 -59 7 -80 63 -31 80 -76 137 -147 185 -18 12 -18 14
-1 50 10 20 21 37 26 37 4 0 8 9 8 19 0 21 0 21 -70 3 -19 -5 -42 -11 -50 -13
-18 -5 -17 13 6 156 3 22 8 49 10 60 2 11 7 43 10 70 4 28 8 53 11 58 8 13
-14 7 -38 -11 -24 -18 -125 -68 -185 -91 -17 -7 -47 -13 -67 -14 -21 -1 -37
-4 -37 -7 0 -3 -11 -6 -25 -6 -36 -3 -31 7 24 45 27 18 58 40 68 50 10 9 35
28 55 44 86 64 309 299 368 386 8 13 25 34 37 48 12 15 27 38 35 52 7 14 16
28 19 31 10 8 114 193 128 228 7 17 17 32 21 32 3 0 7 6 7 13 0 6 13 39 28 72
49 106 58 130 58 143 0 6 5 12 10 12 6 0 8 3 4 6 -4 5 -185 -117 -242 -164 -5
-4 -18 -11 -27 -15 -10 -3 -18 -11 -18 -17 0 -5 -5 -10 -10 -10 -6 0 -34 -15
-63 -33 -67 -43 -212 -117 -227 -117 -10 0 25 48 110 148 11 13 20 28 20 33 0
5 5 9 10 9 6 0 10 6 10 13 0 7 8 22 18 33 24 27 83 127 117 199 15 33 30 64
33 69 5 9 -32 -11 -108 -59 -19 -12 -48 -30 -65 -41 -16 -10 -39 -24 -50 -29
-11 -6 -31 -19 -45 -28 -16 -10 -30 -13 -39 -8 -11 7 -8 23 14 90 15 45 33 88
41 95 8 8 14 17 14 20 0 9 93 161 103 167 5 3 9 10 9 15 1 9 14 31 84 142 19
29 34 57 34 62 0 6 4 10 10 10 5 0 12 11 16 25 3 14 10 25 14 25 4 0 13 14 20
30 7 17 16 30 21 30 5 0 9 4 9 10 0 5 25 48 55 95 30 46 55 89 55 95 0 5 5 10
10 10 6 0 10 7 10 15 0 8 5 15 10 15 6 0 10 7 10 15 0 8 4 15 9 15 5 0 11 8
15 18 7 20 25 49 48 75 9 11 22 32 28 48 7 16 16 29 21 29 5 0 13 10 18 23 5
12 26 45 48 74 21 28 45 61 53 73 8 12 30 37 48 57 17 19 32 37 32 41 0 4 16
25 35 47 20 22 39 45 43 50 31 42 78 101 83 105 3 3 30 39 60 80 29 41 57 80
61 85 22 27 105 143 121 168 10 16 25 36 32 45 8 9 47 63 87 119 177 248 202
283 204 280 1 -1 5 -22 9 -47z m-5474 -5581 c-12 -13 -21 -29 -21 -36 0 -7 -4
-13 -8 -13 -11 0 -59 -113 -70 -165 -5 -22 -8 -60 -8 -85 1 -43 2 -45 31 -43
33 2 115 11 155 18 14 2 52 7 85 11 33 3 69 8 80 10 37 8 288 16 435 14 409
-4 588 -8 620 -15 62 -13 134 -55 167 -98 47 -63 79 -223 46 -234 -7 -3 -13 2
-13 9 0 8 -9 24 -20 36 -11 12 -20 25 -20 30 0 5 -11 19 -24 31 l-24 23 -16
-31 c-9 -17 -21 -31 -26 -31 -6 0 -10 -6 -10 -14 0 -8 -31 -47 -70 -87 -38
-41 -70 -76 -70 -79 -2 -19 -248 -160 -280 -160 -9 0 -20 -4 -25 -9 -9 -8 -25
-12 -105 -25 -9 -1 -20 -4 -25 -7 -22 -13 -223 -2 -295 15 -173 42 -393 180
-470 297 -46 70 -119 125 -281 213 l-87 46 18 39 c11 20 26 43 34 51 9 7 16
19 16 26 0 8 4 14 8 14 4 0 15 13 24 28 21 35 173 192 186 192 6 0 12 3 14 8
5 12 61 53 66 48 2 -3 -5 -15 -17 -27z m4089 -39 c49 -41 79 -71 148 -149 39
-45 123 -173 119 -184 -1 -5 -28 -23 -57 -39 -115 -61 -189 -117 -306 -234
-58 -58 -158 -145 -209 -182 -32 -23 -124 -66 -185 -87 -114 -39 -242 -49
-375 -29 -87 13 -85 13 -162 36 -148 46 -328 195 -431 355 -29 45 -39 48 -56
18 -13 -23 -20 -33 -46 -64 -11 -13 -20 -28 -20 -33 0 -5 -4 -7 -9 -4 -13 8
-5 114 12 164 33 95 105 154 203 168 62 9 937 12 1001 3 53 -7 129 -16 193
-23 14 -2 59 -7 100 -11 41 -4 78 -9 82 -11 15 -10 34 26 32 62 -1 21 -3 39
-4 39 -1 0 -3 9 -5 19 -13 70 -52 160 -90 211 -14 17 -25 35 -25 40 0 8 12 0
90 -65z m-1820 -1804 c213 -20 287 -51 362 -151 47 -62 67 -118 64 -182 -1
-45 -7 -56 -84 -153 -165 -207 -182 -227 -278 -324 -68 -69 -96 -94 -200 -182
l-49 -42 1 -210 c0 -232 1 -235 74 -257 3 -1 21 -8 40 -17 33 -14 94 -30 165
-43 67 -13 176 -5 244 17 31 10 149 75 161 88 7 8 200 134 228 149 22 11 23
11 13 -6 -12 -23 -66 -83 -182 -204 -131 -134 -187 -154 -424 -152 -154 1
-201 11 -306 63 -31 16 -65 29 -75 31 -27 4 -84 -11 -84 -22 0 -5 -5 -9 -11
-9 -6 0 -25 -6 -42 -14 -36 -17 -132 -43 -162 -46 -60 -4 -256 -1 -295 4 -25
4 -72 20 -105 36 -60 29 -67 35 -289 274 -25 28 -46 53 -46 58 0 13 17 9 30
-7 7 -8 19 -15 26 -15 8 0 14 -4 14 -9 0 -5 14 -14 30 -21 17 -7 30 -16 30
-21 0 -5 6 -9 14 -9 8 0 16 -4 18 -8 3 -8 94 -70 143 -98 11 -6 38 -21 60 -34
76 -44 209 -56 318 -30 23 6 53 13 67 16 30 6 114 32 152 46 14 5 29 19 32 31
3 12 6 112 6 223 0 217 1 213 -60 255 -19 13 -41 29 -48 36 -7 7 -17 13 -21
13 -12 0 -162 150 -221 220 -30 36 -57 67 -60 70 -3 3 -27 34 -55 70 -27 36
-52 67 -55 70 -43 40 -99 145 -92 173 1 4 4 20 6 35 2 15 7 36 11 47 20 54 31
75 37 75 5 0 8 6 8 13 0 35 126 120 193 132 51 10 107 16 177 21 41 4 76 7 78
9 4 4 389 -3 442 -9z"/>
</g>
</svg>
