<svg width="30" height="30" viewBox="0 0 30 30" fill="none" xmlns="http://www.w3.org/2000/svg">
<circle cx="15" cy="15" r="15" fill="black"/>
<g clip-path="url(#clip0_442_48)">
<path d="M18.0498 14.9999C18.0497 15.5911 17.875 16.1691 17.5475 16.6613C17.22 17.1535 16.7544 17.538 16.2091 17.7665C15.6638 17.9949 15.0632 18.0572 14.4827 17.9454C13.9021 17.8337 13.3676 17.5529 12.9461 17.1383C12.5246 16.7237 12.235 16.1939 12.1137 15.6152C11.9923 15.0366 12.0447 14.4351 12.2641 13.8861C12.4835 13.3371 12.8602 12.8652 13.3469 12.5296C13.8337 12.1941 14.4087 12.0098 14.9998 11.9999C15.398 11.9933 15.7934 12.066 16.1632 12.2138C16.533 12.3616 16.8696 12.5815 17.1535 12.8607C17.4374 13.14 17.6629 13.4729 17.8168 13.8402C17.9706 14.2075 18.0499 14.6017 18.0498 14.9999Z" stroke="white" stroke-linecap="round" stroke-linejoin="round"/>
<path d="M18.0499 15V16.3C18.0499 19.79 23.5199 16.5 20.6499 11.76C20.072 10.773 19.2472 9.95349 18.2566 9.3819C17.266 8.81032 16.1436 8.50639 14.9999 8.5C14.0391 8.50297 13.0909 8.71891 12.2235 9.1323C11.3562 9.54568 10.5912 10.1462 9.98378 10.8907C9.37634 11.6351 8.9415 12.505 8.71056 13.4377C8.47962 14.3704 8.45833 15.3426 8.64821 16.2845C8.8381 17.2264 9.23444 18.1145 9.8087 18.8848C10.383 19.6552 11.1209 20.2886 11.9693 20.7396C12.8178 21.1905 13.7556 21.4478 14.7154 21.4928C15.6752 21.5379 16.633 21.3695 17.5199 21" stroke="white" stroke-linecap="round" stroke-linejoin="round"/>
</g>
<defs>
<clipPath id="clip0_442_48">
<rect width="14" height="14" fill="white" transform="translate(8 8)"/>
</clipPath>
</defs>
</svg>
