<svg width="30" height="30" viewBox="0 0 30 30" fill="none" xmlns="http://www.w3.org/2000/svg">
<circle cx="15" cy="15" r="15" fill="white"/>
<g clip-path="url(#clip0_457_53)">
<path d="M18.0508 14.9999C18.0507 15.5911 17.8759 16.1691 17.5485 16.6613C17.221 17.1535 16.7554 17.538 16.2101 17.7665C15.6648 17.9949 15.0642 18.0572 14.4837 17.9454C13.9031 17.8337 13.3685 17.5529 12.9471 17.1383C12.5256 16.7237 12.236 16.1939 12.1147 15.6152C11.9933 15.0366 12.0456 14.4351 12.265 13.8861C12.4845 13.3371 12.8612 12.8652 13.3479 12.5296C13.8346 12.1941 14.4097 12.0098 15.0008 11.9999C15.3989 11.9933 15.7944 12.066 16.1642 12.2138C16.534 12.3616 16.8706 12.5815 17.1545 12.8607C17.4384 13.14 17.6639 13.4729 17.8177 13.8402C17.9716 14.2075 18.0508 14.6017 18.0508 14.9999Z" stroke="black" stroke-linecap="round" stroke-linejoin="round"/>
<path d="M18.0504 15V16.3C18.0504 19.79 23.5204 16.5 20.6504 11.76C20.0725 10.773 19.2477 9.95349 18.2571 9.3819C17.2665 8.81032 16.1441 8.50639 15.0004 8.5C14.0396 8.50297 13.0914 8.71891 12.224 9.1323C11.3566 9.54568 10.5917 10.1462 9.98426 10.8907C9.37682 11.6351 8.94199 12.505 8.71105 13.4377C8.48011 14.3704 8.45882 15.3426 8.6487 16.2845C8.83859 17.2264 9.23493 18.1145 9.80919 18.8848C10.3835 19.6552 11.1214 20.2886 11.9698 20.7396C12.8182 21.1905 13.7561 21.4478 14.7159 21.4928C15.6757 21.5379 16.6335 21.3695 17.5204 21" stroke="black" stroke-linecap="round" stroke-linejoin="round"/>
</g>
<defs>
<clipPath id="clip0_457_53">
<rect width="14" height="14" fill="white" transform="translate(8 8)"/>
</clipPath>
</defs>
</svg>
