<svg width="30" height="30" viewBox="0 0 30 30" fill="none" xmlns="http://www.w3.org/2000/svg">
<circle cx="15" cy="15" r="15" fill="black"/>
<path d="M20.5 13.5V14C20.4989 14.846 20.1918 15.6631 19.6354 16.3003C19.0789 16.9375 18.3107 17.3519 17.4725 17.4669C17.8146 17.9047 18.0003 18.4444 18 19V21.5C18 21.6326 17.9473 21.7598 17.8536 21.8536C17.7598 21.9473 17.6326 22 17.5 22H13.5C13.3674 22 13.2402 21.9473 13.1464 21.8536C13.0527 21.7598 13 21.6326 13 21.5V20.5H11.5C10.837 20.5 10.2011 20.2366 9.73223 19.7678C9.26339 19.2989 9 18.663 9 18C9 17.6022 8.84196 17.2207 8.56066 16.9393C8.27936 16.658 7.89782 16.5 7.5 16.5C7.36739 16.5 7.24021 16.4473 7.14645 16.3536C7.05268 16.2598 7 16.1326 7 16C7 15.8674 7.05268 15.7402 7.14645 15.6465C7.24021 15.5527 7.36739 15.5 7.5 15.5C7.8283 15.5 8.15339 15.5647 8.45671 15.6903C8.76002 15.8159 9.03562 16.0001 9.26777 16.2322C9.49991 16.4644 9.68406 16.74 9.8097 17.0433C9.93534 17.3466 10 17.6717 10 18C10 18.3978 10.158 18.7794 10.4393 19.0607C10.7206 19.342 11.1022 19.5 11.5 19.5H13V19C12.9997 18.4444 13.1854 17.9047 13.5275 17.4669C12.6893 17.3519 11.9211 16.9375 11.3646 16.3003C10.8082 15.6631 10.5011 14.846 10.5 14V13.5C10.5062 12.8786 10.6717 12.2692 10.9806 11.73C10.8278 11.237 10.7788 10.7177 10.8366 10.2048C10.8945 9.6919 11.058 9.19656 11.3169 8.75001C11.3608 8.67398 11.4239 8.61085 11.4999 8.56697C11.576 8.52308 11.6622 8.49999 11.75 8.50001C12.3324 8.49879 12.907 8.6338 13.4279 8.89425C13.9488 9.1547 14.4015 9.53337 14.75 10H16.25C16.5985 9.53337 17.0512 9.1547 17.5721 8.89425C18.093 8.6338 18.6676 8.49879 19.25 8.50001C19.3378 8.49999 19.424 8.52308 19.5001 8.56697C19.5761 8.61085 19.6392 8.67398 19.6831 8.75001C19.942 9.19655 20.1055 9.69192 20.1633 10.2048C20.221 10.7177 20.1718 11.2371 20.0188 11.73C20.3283 12.269 20.494 12.8785 20.5 13.5Z" fill="white"/>
</svg>
