<svg width="1391" height="680" viewBox="0 0 1391 680" fill="none" xmlns="http://www.w3.org/2000/svg">
<path d="M347.204 348.217H247.052V129.817H488.228V224.041L335.348 215.929V234.337L458.276 231.217V274.273L335.348 268.657L347.204 348.217ZM975.926 348.217H834.902L938.486 235.897L841.142 129.817H978.11L990.59 205.945H996.83L1009 129.817H1145.97L1048.93 235.897L1152.52 348.217H1011.18L996.83 264.913H990.59L975.926 348.217ZM252.103 410.817L252.415 505.665L163.495 502.545L180.967 629.217H78.9429L96.1029 502.545L7.49491 505.665L7.80691 410.817H252.103ZM396.649 550.593H357.025L363.577 629.217H266.857V410.817H421.297C457.697 411.025 485.569 416.121 504.913 426.105C524.465 436.089 534.241 452.937 534.241 476.649C534.241 497.241 524.777 512.009 505.849 520.953C486.921 529.689 459.153 534.057 422.545 534.057V539.361H450.001C480.993 539.361 504.601 547.161 520.825 562.761C537.257 578.361 543.393 600.513 539.233 629.217H427.225C434.089 606.337 435.025 587.513 430.033 572.745C425.249 557.977 414.121 550.593 396.649 550.593ZM418.801 501.297H356.401V522.201H418.801C435.441 522.201 443.761 518.665 443.761 511.593C443.761 504.729 435.441 501.297 418.801 501.297ZM795.022 604.257C768.19 624.017 732.31 633.897 687.382 633.897C642.454 633.897 606.47 623.913 579.43 603.945C552.39 583.977 538.87 556.001 538.87 520.017C538.87 483.825 552.286 455.849 579.118 436.089C606.158 416.121 642.246 406.137 687.382 406.137C732.31 406.137 768.19 416.121 795.022 436.089C822.062 455.849 835.582 483.825 835.582 520.017C835.582 556.209 822.062 584.289 795.022 604.257ZM687.382 544.041C705.478 544.041 719.726 541.961 730.126 537.801C740.526 533.433 745.726 527.505 745.726 520.017C745.726 512.529 740.526 506.705 730.126 502.545C719.726 498.177 705.478 495.993 687.382 495.993C669.078 495.993 654.726 498.177 644.326 502.545C634.134 506.705 629.038 512.529 629.038 520.017C629.038 527.505 634.134 533.433 644.326 537.801C654.726 541.961 669.078 544.041 687.382 544.041ZM1020.71 629.217H916.185L811.041 410.817H934.281L965.793 530.313H971.409L1002.61 410.817H1125.85L1020.71 629.217ZM1374 496.305L1219.25 493.185V507.849L1336.56 504.729V533.433L1219.25 530.313V546.225L1382.42 538.113V629.217H1130.95V410.817H1374V496.305Z" fill="#555555"/>
<path d="M347.204 342.111H247.052V123.711H488.228V217.935L335.348 209.823V228.231L458.276 225.111V268.167L335.348 262.551L347.204 342.111ZM975.926 342.111H834.902L938.486 229.791L841.142 123.711H978.11L990.59 199.839H996.83L1009 123.711H1145.97L1048.93 229.791L1152.52 342.111H1011.18L996.83 258.807H990.59L975.926 342.111ZM252.103 404.711L252.415 499.559L163.495 496.439L180.967 623.111H78.9429L96.1029 496.439L7.49491 499.559L7.80691 404.711H252.103ZM396.649 544.487H357.025L363.577 623.111H266.857V404.711H421.297C457.697 404.919 485.569 410.015 504.913 419.999C524.465 429.983 534.241 446.831 534.241 470.543C534.241 491.135 524.777 505.903 505.849 514.847C486.921 523.583 459.153 527.951 422.545 527.951V533.255H450.001C480.993 533.255 504.601 541.055 520.825 556.655C537.257 572.255 543.393 594.407 539.233 623.111H427.225C434.089 600.231 435.025 581.407 430.033 566.639C425.249 551.871 414.121 544.487 396.649 544.487ZM418.801 495.191H356.401V516.095H418.801C435.441 516.095 443.761 512.559 443.761 505.487C443.761 498.623 435.441 495.191 418.801 495.191ZM795.022 598.151C768.19 617.911 732.31 627.791 687.382 627.791C642.454 627.791 606.47 617.807 579.43 597.839C552.39 577.871 538.87 549.895 538.87 513.911C538.87 477.719 552.286 449.743 579.118 429.983C606.158 410.015 642.246 400.031 687.382 400.031C732.31 400.031 768.19 410.015 795.022 429.983C822.062 449.743 835.582 477.719 835.582 513.911C835.582 550.103 822.062 578.183 795.022 598.151ZM687.382 537.935C705.478 537.935 719.726 535.855 730.126 531.695C740.526 527.327 745.726 521.399 745.726 513.911C745.726 506.423 740.526 500.599 730.126 496.439C719.726 492.071 705.478 489.887 687.382 489.887C669.078 489.887 654.726 492.071 644.326 496.439C634.134 500.599 629.038 506.423 629.038 513.911C629.038 521.399 634.134 527.327 644.326 531.695C654.726 535.855 669.078 537.935 687.382 537.935ZM1020.71 623.111H916.185L811.041 404.711H934.281L965.793 524.207H971.409L1002.61 404.711H1125.85L1020.71 623.111ZM1374 490.199L1219.25 487.079V501.743L1336.56 498.623V527.327L1219.25 524.207V540.119L1382.42 532.007V623.111H1130.95V404.711H1374V490.199Z" fill="white"/>
<path d="M544.485 339.406L551.645 336.457C550.39 335.557 549.664 334.945 548.885 334.476C541.657 329.841 536.031 323.845 532.432 315.929C531.593 314.084 531.971 313.305 533.695 312.564C535.918 311.604 538.05 310.439 540.432 309.26L531.638 304.602C532.765 303.846 533.43 303.46 534.02 302.984C536.553 300.92 539.026 298.78 541.581 296.761C543.222 295.468 543.29 294.198 541.967 292.671C541.65 292.202 541.396 291.693 541.211 291.158C542.972 289.722 544.863 288.414 546.503 286.826C554.821 278.66 559.698 268.241 564.65 257.995C568.748 249.512 571.841 240.537 575.5 231.834C576.151 230.284 575.999 229.354 574.85 228.182C558.48 211.547 545.732 192.41 535.426 171.557C527.79 156.109 523.041 139.717 520.017 122.863C517.907 111.151 515.972 99.3404 515.223 87.4922C514.58 77.2847 515.458 66.9486 516.191 56.7109C516.711 49.7501 517.722 42.8347 519.215 36.0161C521.242 26.6706 524.932 17.8694 529.476 9.42367C530.444 7.62412 531.684 7.15533 533.725 8.02486C536.961 9.43123 538.844 12.0852 540.659 14.8299C545.248 21.7332 549.959 28.5835 554.216 35.6985C562.609 49.7471 573.035 62.2154 583.704 74.54C591.417 83.5075 599.22 92.5279 606.539 101.934C614.387 111.975 619.672 123.528 624.451 135.286C629.996 148.972 635.508 162.685 640.987 176.426C642.22 179.534 643.059 182.8 644.178 186.301C662.952 182.082 682.424 182.051 701.211 186.21C704.811 176.895 708.198 167.761 711.873 158.741C716.697 146.877 721.543 135.014 726.738 123.309C733.029 109.117 742.336 96.9284 752.567 85.3373C765.027 71.2358 777.851 57.4065 788.028 41.4828C793.601 32.7573 799.181 24.0469 804.844 15.3818C806.719 12.5086 808.625 9.6505 811.989 8.1156C814.137 7.14777 815.467 7.56364 816.443 9.49172C821.539 19.5707 825.872 29.9067 827.618 41.1803C829.652 54.2762 831.134 67.3947 830.99 80.6721C830.832 95.9531 828.359 110.917 825.304 125.842C822.575 139.135 819.142 152.238 813.585 164.676C803.12 188.063 789.389 209.287 771.5 227.698C769.987 229.21 769.73 230.375 770.6 232.356C775.189 242.888 779.386 253.602 784.21 264.044C786.755 269.57 789.816 274.843 793.351 279.794C796.035 283.537 799.778 286.523 803.067 289.828C803.544 290.253 804.049 290.644 804.579 291C802.787 295.604 802.765 295.635 806.477 299.113C807.584 300.092 808.756 300.994 809.986 301.812C811.18 302.651 812.443 303.392 814.265 304.549L805.502 309.313C807.831 310.462 809.963 311.619 812.178 312.579C813.842 313.335 814.364 314.031 813.486 315.921C810.234 323.077 805.022 329.166 798.455 333.485C797.23 334.295 796.035 335.164 794.266 336.404L801.026 339.345C799.022 341.175 797.177 343.081 795.12 344.714C781.972 355.125 768.657 365.288 755.644 375.896C740.038 388.651 724.946 401.989 712.425 417.943C710.043 420.968 707.631 423.992 704.984 426.805C697.423 434.804 688.184 439.53 677.054 440.248C666.68 440.921 656.692 439.424 648.246 433.103C643.437 429.512 639.437 424.786 635.316 420.348C628.164 412.65 621.479 404.469 614.092 397.044C600.989 383.827 586.192 372.569 571.372 361.348C563.183 355.148 555.433 348.366 547.486 341.84C546.587 341.092 545.694 340.381 544.485 339.406ZM601.783 151.686L602.894 150.612C601.246 147.278 599.688 143.891 597.927 140.617C589.729 125.415 580.238 110.947 569.557 97.3746C561.656 87.2805 553.021 77.7535 546.405 66.6915C545.173 64.6349 543.766 62.6842 542.156 60.2419C540.671 68.1374 540.774 76.2495 542.458 84.1048C544.424 93.6242 548.9 102.176 553.649 110.569C555.962 114.667 558.45 118.674 561.142 123.196C555.706 119.906 550.906 115.664 546.972 110.675C547.66 116.602 548.295 122.493 551.161 127.627C556.953 138 563.894 147.565 572.703 155.663C573.144 156.267 573.472 156.946 573.671 157.667C572.914 157.75 572.105 158.068 571.402 157.879C569.716 157.417 568.09 156.722 566.109 155.996C566.586 161.901 568.71 166.755 571.274 171.443C573.837 176.131 576.03 180.864 580.748 183.843C574.434 183.36 568.431 182.286 562.707 178.445C563.161 182.838 563.508 186.581 563.977 190.316C564.136 191.209 564.487 192.058 565.006 192.803C569.951 200.312 575.289 207.548 582.472 213.067C584.422 214.579 587.19 215.071 589.662 215.766C590.082 215.774 590.497 215.672 590.867 215.472C591.236 215.272 591.548 214.98 591.772 214.625C592.228 212.784 593.059 211.057 594.213 209.551C595.367 208.046 596.819 206.795 598.479 205.877L596.082 201.476L601.639 202.905C600.966 198.293 600.346 194.013 599.643 189.166C604.482 192.395 608.898 194.731 614.312 194.459C606.55 189.228 599.675 182.787 593.949 175.383C588.052 167.897 583.878 159.504 580.287 150.113C587.848 155.86 595.031 161.069 603.287 164.578C598.176 158.453 593.405 152.215 590.434 144.768L601.783 151.686ZM803.718 60.257C803.007 61.2854 802.666 61.8071 802.304 62.3061C796.179 70.8502 790.153 79.4547 783.9 87.9005C779.159 94.3047 773.723 100.218 769.33 106.841C761.239 119.014 753.64 131.513 745.973 143.966C744.695 146.045 744.121 148.563 743.221 150.885L744.091 151.694L755.493 144.745C752.408 152.223 747.69 158.529 742.541 164.616C750.812 161.077 757.98 155.867 765.534 150.204C758.653 168.85 747.758 183.617 731.622 194.482C737.089 194.769 741.452 192.214 746.261 189.28C745.504 194.127 744.884 198.436 744.212 202.973L749.875 201.416C748.892 203.155 748.181 204.44 747.349 205.907C751.001 207.805 752.982 210.776 754.056 214.504C754.23 215.094 755.372 215.714 756.12 215.789C759.19 216.092 761.663 214.564 763.938 212.765C769.647 208.228 773.768 202.225 778.41 196.667C782.826 191.374 782.554 185.212 782.947 178.566C777.405 182.346 771.432 183.382 765.262 183.972C773.405 176.411 777.753 167.058 780.059 155.875C777.564 156.782 775.893 157.485 774.169 157.969C773.586 158.136 772.845 157.765 772.18 157.637C772.357 156.985 772.629 156.363 772.989 155.792C777.405 150.726 782.131 145.902 786.266 140.609C791.847 133.464 796.935 125.956 798.175 116.595C798.417 114.78 798.765 112.973 799.067 111.166L798.47 110.848C794.788 115.812 790.144 119.983 784.815 123.113C787.62 118.379 790.297 114.145 792.693 109.752C797.82 100.369 802.787 90.9022 804.096 80.0369C805.003 73.4643 804.876 66.7901 803.718 60.257ZM675.889 382.119C679.67 378.777 683.36 376.002 686.475 372.652C690.694 368.07 694.474 363.087 698.353 358.195C698.918 357.414 699.208 356.467 699.178 355.503C698.92 349.923 694.165 344.608 688.592 343.761C678.745 342.327 668.75 342.231 658.877 343.474C651.981 344.283 648.291 347.791 646.862 354.649C646.728 355.981 647.062 357.318 647.807 358.43C649.168 360.569 650.885 362.475 652.45 364.478C657.251 370.656 662.158 376.727 669.084 380.788C669.368 381.032 669.597 381.333 669.756 381.672C669.915 382.011 670.001 382.379 670.007 382.754C670.082 387.29 669.961 391.827 670.067 396.364C670.067 397.936 669.561 398.972 668.147 399.388C664.85 400.333 661.553 401.513 658.174 401.914C655.414 402.239 652.231 402.254 649.788 401.157C645.857 399.411 642.378 396.621 638.719 394.284C637.396 393.438 636.11 392.515 634.81 391.63L634.341 392.182C637.365 395.411 640.39 398.579 643.361 401.868C645.245 404.058 647.881 405.461 650.749 405.8C657.743 406.806 664.555 406.783 670.869 403.161C671.48 402.728 672.21 402.495 672.959 402.495C673.708 402.495 674.439 402.728 675.05 403.161C681.946 407.153 689.341 406.821 696.864 405.505C701.136 404.749 702.981 401.036 705.809 398.534C707.288 397.114 708.672 395.599 709.952 393.997C710.465 393.348 710.942 392.672 711.381 391.971C709.113 392.976 707.268 394.504 705.279 395.751C701.733 397.952 698.308 400.931 694.422 401.846C688.894 403.131 683.14 401.914 677.832 399.502C677.211 399.296 676.678 398.884 676.323 398.334C675.968 397.784 675.812 397.128 675.882 396.477C675.957 391.441 675.889 386.421 675.889 382.119ZM752.809 286.357C752.052 286.357 751.508 286.402 750.964 286.357C745.247 285.737 739.554 284.747 733.823 284.55C724.636 284.247 715.419 284.384 706.217 284.512C703.124 284.55 699.835 284.588 696.985 285.593C692.735 287.106 690.528 292.633 691.548 297.737L695.216 292.444C695.972 293.517 696.38 294.266 696.902 294.962C701.93 301.57 707.805 306.938 716.319 308.693C729.044 311.324 739.365 307.362 747.916 297.82C750.156 295.463 752.634 293.344 755.311 291.499C757.33 289.986 759.674 288.973 762.116 287.605C758.591 281.26 753.636 275.823 747.644 271.726C750.843 276.051 753.489 280.558 752.809 286.357ZM583.78 287.605C585.625 288.648 587.228 289.616 588.884 290.47C592.347 292.255 595.598 294.251 597.851 297.593C600.218 301.086 603.65 303.347 607.219 305.426C621.585 313.827 639.641 309.207 649.221 294.5C649.607 293.911 650.068 293.374 650.733 292.519C652.019 294.379 653.138 295.997 654.612 298.145C654.885 294.319 654.476 291.166 652.624 288.671C651.299 287.024 649.502 285.821 647.475 285.223C644.913 284.618 642.278 284.376 639.649 284.505C627.082 284.603 614.493 283.514 601.964 285.404C599.076 285.843 596.165 286.115 593.088 286.478C592.392 280.595 595.076 276.112 598.199 271.741C592.237 275.85 587.302 281.279 583.78 287.605Z" fill="#555555"/>
<path d="M544.485 332.406L551.645 329.457C550.39 328.557 549.664 327.945 548.885 327.476C541.657 322.841 536.031 316.845 532.432 308.929C531.593 307.084 531.971 306.305 533.695 305.564C535.918 304.604 538.05 303.439 540.432 302.26L531.638 297.602C532.765 296.846 533.43 296.46 534.02 295.984C536.553 293.92 539.026 291.78 541.581 289.761C543.222 288.468 543.29 287.198 541.967 285.671C541.65 285.202 541.396 284.693 541.211 284.158C542.972 282.722 544.863 281.414 546.503 279.826C554.821 271.66 559.698 261.241 564.65 250.995C568.748 242.512 571.841 233.537 575.5 224.834C576.151 223.284 575.999 222.354 574.85 221.182C558.48 204.547 545.732 185.41 535.426 164.557C527.79 149.109 523.041 132.717 520.017 115.863C517.907 104.151 515.972 92.3404 515.223 80.4922C514.58 70.2847 515.458 59.9486 516.191 49.7109C516.711 42.7501 517.722 35.8347 519.215 29.0161C521.242 19.6706 524.932 10.8694 529.476 2.42367C530.444 0.624121 531.684 0.155334 533.725 1.02486C536.961 2.43123 538.844 5.08518 540.659 7.82986C545.248 14.7332 549.959 21.5835 554.216 28.6985C562.609 42.7471 573.035 55.2154 583.704 67.54C591.417 76.5075 599.22 85.5279 606.539 94.9339C614.387 104.975 619.672 116.528 624.451 128.286C629.996 141.972 635.508 155.685 640.987 169.426C642.22 172.534 643.059 175.8 644.178 179.301C662.952 175.082 682.424 175.051 701.211 179.21C704.811 169.895 708.198 160.761 711.873 151.741C716.697 139.877 721.543 128.014 726.738 116.309C733.029 102.117 742.336 89.9284 752.567 78.3373C765.027 64.2358 777.851 50.4065 788.028 34.4828C793.601 25.7573 799.181 17.0469 804.844 8.38183C806.719 5.50861 808.625 2.6505 811.989 1.1156C814.137 0.147775 815.467 0.563636 816.443 2.49172C821.539 12.5707 825.872 22.9067 827.618 34.1803C829.652 47.2762 831.134 60.3947 830.99 73.6721C830.832 88.9531 828.359 103.917 825.304 118.842C822.575 132.135 819.142 145.238 813.585 157.676C803.12 181.063 789.389 202.287 771.5 220.698C769.987 222.21 769.73 223.375 770.6 225.356C775.189 235.888 779.386 246.602 784.21 257.044C786.755 262.57 789.816 267.843 793.351 272.794C796.035 276.537 799.778 279.523 803.067 282.828C803.544 283.253 804.049 283.644 804.579 284C802.787 288.604 802.765 288.635 806.477 292.113C807.584 293.092 808.756 293.994 809.986 294.812C811.18 295.651 812.443 296.392 814.265 297.549L805.502 302.313C807.831 303.462 809.963 304.619 812.178 305.579C813.842 306.335 814.364 307.031 813.486 308.921C810.234 316.077 805.022 322.166 798.455 326.485C797.23 327.295 796.035 328.164 794.266 329.404L801.026 332.345C799.022 334.175 797.177 336.081 795.12 337.714C781.972 348.125 768.657 358.288 755.644 368.896C740.038 381.651 724.946 394.989 712.425 410.943C710.043 413.968 707.631 416.992 704.984 419.805C697.423 427.804 688.184 432.53 677.054 433.248C666.68 433.921 656.692 432.424 648.246 426.103C643.437 422.512 639.437 417.786 635.316 413.348C628.164 405.65 621.479 397.469 614.092 390.044C600.989 376.827 586.192 365.569 571.372 354.348C563.183 348.148 555.433 341.366 547.486 334.84C546.587 334.092 545.694 333.381 544.485 332.406ZM601.783 144.686L602.894 143.612C601.246 140.278 599.688 136.891 597.927 133.617C589.729 118.415 580.238 103.947 569.557 90.3746C561.656 80.2805 553.021 70.7535 546.405 59.6915C545.173 57.6349 543.766 55.6842 542.156 53.2419C540.671 61.1374 540.774 69.2495 542.458 77.1048C544.424 86.6242 548.9 95.1759 553.649 103.569C555.962 107.667 558.45 111.674 561.142 116.196C555.706 112.906 550.906 108.664 546.972 103.675C547.66 109.602 548.295 115.493 551.161 120.627C556.953 131 563.894 140.565 572.703 148.663C573.144 149.267 573.472 149.946 573.671 150.667C572.914 150.75 572.105 151.068 571.402 150.879C569.716 150.417 568.09 149.722 566.109 148.996C566.586 154.901 568.71 159.755 571.274 164.443C573.837 169.131 576.03 173.864 580.748 176.843C574.434 176.36 568.431 175.286 562.707 171.445C563.161 175.838 563.508 179.581 563.977 183.316C564.136 184.209 564.487 185.058 565.006 185.803C569.951 193.312 575.289 200.548 582.472 206.067C584.422 207.579 587.19 208.071 589.662 208.766C590.082 208.774 590.497 208.672 590.867 208.472C591.236 208.272 591.548 207.98 591.772 207.625C592.228 205.784 593.059 204.057 594.213 202.551C595.367 201.046 596.819 199.795 598.479 198.877L596.082 194.476L601.639 195.905C600.966 191.293 600.346 187.013 599.643 182.166C604.482 185.395 608.898 187.731 614.312 187.459C606.55 182.228 599.675 175.787 593.949 168.383C588.052 160.897 583.878 152.504 580.287 143.113C587.848 148.86 595.031 154.069 603.287 157.578C598.176 151.453 593.405 145.215 590.434 137.768L601.783 144.686ZM803.718 53.257C803.007 54.2854 802.666 54.8071 802.304 55.3061C796.179 63.8502 790.153 72.4547 783.9 80.9005C779.159 87.3047 773.723 93.2175 769.33 99.8411C761.239 112.014 753.64 124.513 745.973 136.966C744.695 139.045 744.121 141.563 743.221 143.885L744.091 144.694L755.493 137.745C752.408 145.223 747.69 151.529 742.541 157.616C750.812 154.077 757.98 148.867 765.534 143.204C758.653 161.85 747.758 176.617 731.622 187.482C737.089 187.769 741.452 185.214 746.261 182.28C745.504 187.127 744.884 191.436 744.212 195.973L749.875 194.416C748.892 196.155 748.181 197.44 747.349 198.907C751.001 200.805 752.982 203.776 754.056 207.504C754.23 208.094 755.372 208.714 756.12 208.789C759.19 209.092 761.663 207.564 763.938 205.765C769.647 201.228 773.768 195.225 778.41 189.667C782.826 184.374 782.554 178.212 782.947 171.566C777.405 175.346 771.432 176.382 765.262 176.972C773.405 169.411 777.753 160.058 780.059 148.875C777.564 149.782 775.893 150.485 774.169 150.969C773.586 151.136 772.845 150.765 772.18 150.637C772.357 149.985 772.629 149.363 772.989 148.792C777.405 143.726 782.131 138.902 786.266 133.609C791.847 126.464 796.935 118.956 798.175 109.595C798.417 107.78 798.765 105.973 799.067 104.166L798.47 103.848C794.788 108.812 790.144 112.983 784.815 116.113C787.62 111.379 790.297 107.145 792.693 102.752C797.82 93.3688 802.787 83.9022 804.096 73.0369C805.003 66.4643 804.876 59.7901 803.718 53.257ZM675.889 375.119C679.67 371.777 683.36 369.002 686.475 365.652C690.694 361.07 694.474 356.087 698.353 351.195C698.918 350.414 699.208 349.467 699.178 348.503C698.92 342.923 694.165 337.608 688.592 336.761C678.745 335.327 668.75 335.231 658.877 336.474C651.981 337.283 648.291 340.791 646.862 347.649C646.728 348.981 647.062 350.318 647.807 351.43C649.168 353.569 650.885 355.475 652.45 357.478C657.251 363.656 662.158 369.727 669.084 373.788C669.368 374.032 669.597 374.333 669.756 374.672C669.915 375.011 670.001 375.379 670.007 375.754C670.082 380.29 669.961 384.827 670.067 389.364C670.067 390.936 669.561 391.972 668.147 392.388C664.85 393.333 661.553 394.513 658.174 394.914C655.414 395.239 652.231 395.254 649.788 394.157C645.857 392.411 642.378 389.621 638.719 387.284C637.396 386.438 636.11 385.515 634.81 384.63L634.341 385.182C637.365 388.411 640.39 391.579 643.361 394.868C645.245 397.058 647.881 398.461 650.749 398.8C657.743 399.806 664.555 399.783 670.869 396.161C671.48 395.728 672.21 395.495 672.959 395.495C673.708 395.495 674.439 395.728 675.05 396.161C681.946 400.153 689.341 399.821 696.864 398.505C701.136 397.749 702.981 394.036 705.809 391.534C707.288 390.114 708.672 388.599 709.952 386.997C710.465 386.348 710.942 385.672 711.381 384.971C709.113 385.976 707.268 387.504 705.279 388.751C701.733 390.952 698.308 393.931 694.422 394.846C688.894 396.131 683.14 394.914 677.832 392.502C677.211 392.296 676.678 391.884 676.323 391.334C675.968 390.784 675.812 390.128 675.882 389.477C675.957 384.441 675.889 379.421 675.889 375.119ZM752.809 279.357C752.052 279.357 751.508 279.402 750.964 279.357C745.247 278.737 739.554 277.747 733.823 277.55C724.636 277.247 715.419 277.384 706.217 277.512C703.124 277.55 699.835 277.588 696.985 278.593C692.735 280.106 690.528 285.633 691.548 290.737L695.216 285.444C695.972 286.517 696.38 287.266 696.902 287.962C701.93 294.57 707.805 299.938 716.319 301.693C729.044 304.324 739.365 300.362 747.916 290.82C750.156 288.463 752.634 286.344 755.311 284.499C757.33 282.986 759.674 281.973 762.116 280.605C758.591 274.26 753.636 268.823 747.644 264.726C750.843 269.051 753.489 273.558 752.809 279.357ZM583.78 280.605C585.625 281.648 587.228 282.616 588.884 283.47C592.347 285.255 595.598 287.251 597.851 290.593C600.218 294.086 603.65 296.347 607.219 298.426C621.585 306.827 639.641 302.207 649.221 287.5C649.607 286.911 650.068 286.374 650.733 285.519C652.019 287.379 653.138 288.997 654.612 291.145C654.885 287.319 654.476 284.166 652.624 281.671C651.299 280.024 649.502 278.821 647.475 278.223C644.913 277.618 642.278 277.376 639.649 277.505C627.082 277.603 614.493 276.514 601.964 278.404C599.076 278.843 596.165 279.115 593.088 279.478C592.392 273.595 595.076 269.112 598.199 264.741C592.237 268.85 587.302 274.279 583.78 280.605Z" fill="white"/>
</svg>
