<?xml version="1.0" standalone="no"?>
<!DOCTYPE svg PUBLIC "-//W3C//DTD SVG 1.1//EN" "http://www.w3.org/Graphics/SVG/1.1/DTD/svg11.dtd" >
<svg xmlns="http://www.w3.org/2000/svg" xmlns:xlink="http://www.w3.org/1999/xlink" version="1.1">
<metadata>
Created by FontForge 20170731 at Fri Jul 31 09:35:59 2020
 By Aleksey,,,
Copyright (c) 2020 by Cahya Sofyan. All rights reserved.
</metadata>
<defs>
<font id="GulfsDisplay-Expanded" horiz-adv-x="744" >
  <font-face 
    font-family="Gulfs Display Expanded"
    font-weight="400"
    font-stretch="expanded"
    units-per-em="1000"
    panose-1="0 0 5 5 0 0 0 0 0 0"
    ascent="773"
    descent="-227"
    x-height="500"
    cap-height="700"
    bbox="-611 -432 1466 998"
    underline-thickness="50"
    underline-position="-200"
    unicode-range="U+0020-FB02"
  />
<missing-glyph horiz-adv-x="500" 
d="M93 800h317v-1000h-317v1000zM333 700v33h-165v-33h65v-37h-66v-33h166v33h-66v37h66zM267 534v70h-100v-104h166v34h-66zM200 570h33v-36h-33v36zM333 440v33h-166v-33h66v-37h-66v-33h100v70h66zM333 313v100h-33v-66h-133v-34h166zM333 178v113h-100v-56h34v23h33v-47
h-100v80h-33v-113h166zM333 5v113h-166v-113h166zM200 85h100v-47h-100v47zM333 -51v33h-166v-33h70l-70 -47v-33h166v33h-102l70 47h32z" />
    <glyph glyph-name="fi" unicode="fi" horiz-adv-x="904" 
d="M95 277l-89 -8v231l89 -1v45q0 91 69 140.5t189 49.5q81 0 159 -23l-17 -172q-34 12 -70 12t-55 -4.5t-19 -20.5v-27l537 1v-500h-262v272h-269l12 -272h-274v277zM584 631q0 46 41 73.5t109 27.5t108 -27.5t40 -73.5q0 -47 -40.5 -75t-107.5 -28q-68 0 -109 28t-41 75z
" />
    <glyph glyph-name="fl" unicode="fl" horiz-adv-x="935" 
d="M840 700l-37 -467h126v-233h-382v269l-190 8l12 -277h-274v277l-89 -8v231l89 -1v45q0 91 69 140.5t189 49.5q80 0 155 -22l-13 -173q-34 12 -70 12t-55 -4.5t-19 -20.5v-27l196 1v200h293z" />
    <glyph glyph-name="f_f" unicode="ff" horiz-adv-x="1071" 
d="M95 277l-89 -8v231l89 -1v45q0 91 69 140.5t189 49.5q81 0 159 -23l-17 -172q-34 12 -70 12t-55 -4.5t-19 -20.5v-27h269v45q0 91 69 140.5t189 49.5q81 0 159 -23l-17 -172q-32 12 -70 12q-17 0 -27.5 -0.5t-22.5 -3t-18 -7.5t-6 -14v-27l182 1v-231l-176 8l12 -277
h-274v277h-263l12 -277h-274v277z" />
    <glyph glyph-name="f_f_i" unicode="ffi" horiz-adv-x="1429" 
d="M95 277l-89 -8v231l89 -1v45q0 91 69 140.5t189 49.5q81 0 159 -23l-17 -172q-34 12 -70 12t-55 -4.5t-19 -20.5v-27h269v45q0 91 69 140.5t189 49.5q81 0 159 -23l-17 -172q-32 12 -70 12q-17 0 -27.5 -0.5t-22.5 -3t-18 -7.5t-6 -14v-27l537 1v-500h-262v271h-269
l12 -271h-274v277h-263l12 -277h-274v277zM1110 631q0 46 40.5 73.5t108.5 27.5t108 -27.5t40 -73.5q0 -47 -40.5 -75t-107.5 -28t-108 28t-41 75z" />
    <glyph glyph-name="f_f_l" unicode="ffl" horiz-adv-x="1460" 
d="M1365 700l-36 -467h126v-233h-383v270l-190 7l12 -277h-274v277h-263l12 -277h-274v277l-89 -8v231l89 -1v45q0 91 69 140.5t189 49.5q81 0 159 -23l-17 -172q-34 12 -70 12t-55 -4.5t-19 -20.5v-27h269v45q0 91 69 140.5t189 49.5q80 0 155 -22l-13 -173q-32 12 -70 12
q-17 0 -27.5 -0.5t-22.5 -3t-18 -7.5t-6 -14v-27l196 1v200h293z" />
    <glyph glyph-name=".notdef" horiz-adv-x="500" 
d="M93 800h317v-1000h-317v1000zM333 700v33h-165v-33h65v-37h-66v-33h166v33h-66v37h66zM267 534v70h-100v-104h166v34h-66zM200 570h33v-36h-33v36zM333 440v33h-166v-33h66v-37h-66v-33h100v70h66zM333 313v100h-33v-66h-133v-34h166zM333 178v113h-100v-56h34v23h33v-47
h-100v80h-33v-113h166zM333 5v113h-166v-113h166zM200 85h100v-47h-100v47zM333 -51v33h-166v-33h70l-70 -47v-33h166v33h-102l70 47h32z" />
    <glyph glyph-name=".null" horiz-adv-x="0" 
 />
    <glyph glyph-name="nonmarkingreturn" horiz-adv-x="333" 
 />
    <glyph glyph-name="space" unicode=" " horiz-adv-x="272" 
 />
    <glyph glyph-name="exclam" unicode="!" horiz-adv-x="375" 
d="M294 268h-206l-44 432h287zM187 -11q-61 0 -97.5 31t-36.5 85t36.5 84.5t97.5 30.5t98 -31t37 -85q-1 -54 -37.5 -84.5t-97.5 -30.5z" />
    <glyph glyph-name="quotedbl" unicode="&#x22;" horiz-adv-x="544" 
d="M229 378h-168l-16 322h200zM482 378h-168l-16 322h200z" />
    <glyph glyph-name="numbersign" unicode="#" horiz-adv-x="911" 
d="M340 0h-244l27 167h-109l5 123h122l19 113h-92l4 123h107l26 167h243l-26 -167h122l26 167h243l-26 -167h109l-4 -123h-124l-19 -113h86l-5 -123h-100l-26 -167h-243l27 167h-122zM403 403l-18 -113h121l19 113h-122z" />
    <glyph glyph-name="dollar" unicode="$" horiz-adv-x="859" 
d="M502 -115h-148v104q-224 21 -334 63l8 288q176 -90 421 -90q65 0 93.5 6t28.5 23q0 10 -40.5 15.5t-101.5 7.5t-132 13t-132 29.5t-101.5 60t-40.5 101.5q0 98 86.5 145.5t244.5 59.5v103h148v-102q171 -11 278 -57l-5 -272q-50 26 -158.5 47t-185.5 21q-130 0 -130 -29
q0 -15 40.5 -21t101.5 -6t132 -7.5t132 -23t101.5 -55.5t40.5 -101q0 -201 -347 -221v-102z" />
    <glyph glyph-name="percent" unicode="%" horiz-adv-x="1033" 
d="M223 307q-87 0 -145 57t-58 145q0 89 57.5 145.5t145.5 56.5t145.5 -56.5t57.5 -145.5q0 -88 -58 -145t-145 -57zM413 0h-187l393 700h187zM223 434q29 0 48 21t19 54t-19 54t-48 21t-48.5 -21t-19.5 -54t19.5 -54t48.5 -21zM811 -11q-88 0 -145.5 57t-57.5 145t57.5 145
t145.5 57q87 0 144.5 -57t57.5 -145t-57.5 -145t-144.5 -57zM811 116q29 0 48 21t19 54t-19 54t-48 21q-30 0 -49 -20.5t-19 -54.5q0 -33 19.5 -54t48.5 -21z" />
    <glyph glyph-name="ampersand" unicode="&#x26;" horiz-adv-x="990" 
d="M496 -17q-229 0 -355.5 55.5t-126.5 165.5q0 72 63 108.5t158 42.5v12q-182 31 -182 163q0 183 445 183q72 0 192 -8v-243q-96 6 -156 6q-102 0 -146.5 -8t-44.5 -27q0 -20 31.5 -28.5t111.5 -8.5h23v-82h-58q-142 0 -142 -42q0 -45 226 -45q26 0 40 1v168h398v-82h-109
v-306q-46 -10 -168 -17.5t-200 -7.5z" />
    <glyph glyph-name="quotesingle" unicode="'" horiz-adv-x="284" 
d="M226 378h-168l-16 322h200z" />
    <glyph glyph-name="parenleft" unicode="(" horiz-adv-x="458" 
d="M438 63l-89 -147q-145 57 -225 166.5t-80 262.5q0 152 80.5 261.5t224.5 165.5l89 -147q-141 -93 -141 -281t141 -281z" />
    <glyph glyph-name="parenright" unicode=")" horiz-adv-x="457" 
d="M107 -84l-88 147q140 93 140 281t-140 281l89 147q144 -56 224.5 -165.5t80.5 -261.5q0 -153 -80.5 -262.5t-225.5 -166.5z" />
    <glyph glyph-name="asterisk" unicode="*" horiz-adv-x="569" 
d="M353 156h-137l11 175l-145 -99l-68 119l157 77l-157 77l68 119l146 -98l-12 174h137l-12 -175l145 99l69 -119l-158 -77l158 -77l-69 -119l-145 98z" />
    <glyph glyph-name="plus" unicode="+" horiz-adv-x="701" 
d="M443 78h-184v188h-230v163h230v187h184v-187h229v-163h-229v-188z" />
    <glyph glyph-name="comma" unicode="," horiz-adv-x="363" 
d="M168 -155l-67 80q27 13 54.5 34.5t33.5 37.5q-17 -5 -29 -5q-48 0 -82 32.5t-34 85.5q0 55 39 87.5t100 32.5q63 0 102.5 -38t38.5 -103q-1 -83 -46.5 -149.5t-109.5 -94.5z" />
    <glyph glyph-name="hyphen" unicode="-" horiz-adv-x="554" 
d="M524 243h-494v170h494v-170z" />
    <glyph glyph-name="period" unicode="." horiz-adv-x="368" 
d="M184 -10q-62 0 -101 32.5t-39 88.5t39 88t101 32t101 -32t39 -89q0 -56 -39 -88t-101 -32z" />
    <glyph glyph-name="slash" unicode="/" horiz-adv-x="583" 
d="M236 -1h-236l347 700h236z" />
    <glyph glyph-name="zero" unicode="0" horiz-adv-x="983" 
d="M492 -15q-216 0 -343 93.5t-127 271.5q0 179 126.5 272t343.5 93q215 0 342 -93t127 -272q0 -178 -127 -271.5t-342 -93.5zM492 275q135 0 135 75q0 76 -135 76q-138 0 -138 -76q0 -75 138 -75z" />
    <glyph glyph-name="one" unicode="1" horiz-adv-x="639" 
d="M584 0h-327v394h-233v306h560v-700z" />
    <glyph glyph-name="two" unicode="2" horiz-adv-x="912" 
d="M891 0h-873v248l306 84q160 45 160 82q0 8 -13 15t-44 12t-76 5q-150 0 -313 -25v260q146 34 389 34q185 0 301 -51t116 -140q0 -135 -203 -204l-159 -53v-9h409v-258z" />
    <glyph glyph-name="three" unicode="3" horiz-adv-x="889" 
d="M394 -15q-224 0 -381 29v256q141 -26 311 -26q80 0 143 14t63 33q0 39 -151 44q-105 2 -176 -18l-20 67l250 55v15l-381 -8v254h767v-247l-224 -57v-10q141 -1 208 -50.5t67 -124.5q0 -104 -136 -165t-340 -61z" />
    <glyph glyph-name="four" unicode="4" horiz-adv-x="1075" 
d="M886 0h-329v125h-542v118l612 457h259v-357h176v-217h-176v-126zM557 478l-174 -136h174v136z" />
    <glyph glyph-name="five" unicode="5" horiz-adv-x="873" 
d="M360 -15q-165 0 -325 34l-8 252q125 -27 333 -27q164 0 164 46q0 21 -40.5 33t-108.5 12q-45 0 -115 -10t-98 -21l-123 43l2 353h761v-261h-485v-55q75 8 166 8q96 0 179.5 -19t139 -60.5t55.5 -97.5q0 -58 -36.5 -102.5t-103.5 -72t-156.5 -41.5t-200.5 -14z" />
    <glyph glyph-name="six" unicode="6" horiz-adv-x="937" 
d="M496 -15q-247 0 -360 91q-114 86 -114 253q0 196 135.5 291t389.5 95q152 0 266 -22v-255q-97 22 -214 22q-100 0 -170.5 -28.5t-74.5 -71.5h6q44 48 220 48q68 0 125 -8.5t107.5 -28.5t79.5 -58.5t29 -92.5q0 -75 -56.5 -129t-151 -80t-217.5 -26zM476 244q56 0 88 13
t32 36q0 21 -33.5 32.5t-89.5 11.5q-55 0 -87.5 -11.5t-32.5 -30.5q0 -51 123 -51z" />
    <glyph glyph-name="seven" unicode="7" horiz-adv-x="848" 
d="M431 0h-356l397 434h-448v266h805v-239z" />
    <glyph glyph-name="eight" unicode="8" horiz-adv-x="947" 
d="M473 -13q-201 0 -327.5 58t-126.5 153q0 62 65.5 112t150.5 60v8q-72 9 -127 53.5t-55 95.5q0 84 119.5 137t300.5 53q183 0 303.5 -53t120.5 -137q0 -51 -56.5 -95.5t-129.5 -53.5v-8q82 -10 149.5 -60t67.5 -112q0 -95 -126 -153t-329 -58zM473 382q53 0 84.5 11
t31.5 31t-32.5 30.5t-83.5 10.5q-113 0 -113 -41q0 -20 31 -31t82 -11zM473 242q128 0 128 47q0 22 -35 33.5t-93 11.5q-57 0 -92 -11.5t-35 -33.5q0 -47 127 -47z" />
    <glyph glyph-name="nine" unicode="9" horiz-adv-x="937" 
d="M396 -15q-152 0 -266 22v255q97 -22 214 -22q100 0 170.5 28.5t74.5 71.5h-6q-44 -48 -220 -48q-68 0 -125 8.5t-107.5 28.5t-79.5 58.5t-29 92.5q0 75 56.5 129t151 80t217.5 26q247 0 360 -91q114 -86 114 -253q0 -196 -135.5 -291t-389.5 -95zM470 363q55 0 87.5 11.5
t32.5 30.5q0 51 -123 51q-56 0 -88 -13t-32 -36q0 -21 33.5 -32.5t89.5 -11.5z" />
    <glyph glyph-name="colon" unicode=":" horiz-adv-x="362" 
d="M184 322q-62 0 -101 32t-39 88t39.5 88.5t100.5 32.5q62 0 101 -32.5t39 -88.5t-39 -88t-101 -32zM184 -13q-62 0 -101 32.5t-39 88.5q0 55 39.5 87.5t100.5 32.5q62 0 101 -32.5t39 -88.5t-39 -88t-101 -32z" />
    <glyph glyph-name="semicolon" unicode=";" horiz-adv-x="364" 
d="M184 321q-62 0 -101 32.5t-39 88.5t39 88t101 32t101 -32t39 -89q0 -56 -39 -88t-101 -32zM169 -158l-67 80q27 13 54.5 34.5t33.5 36.5q-20 -4 -29 -4q-49 0 -82.5 32t-33.5 85q0 56 39 88t100 32q63 0 102 -38t39 -102q-1 -83 -46.5 -149.5t-109.5 -94.5z" />
    <glyph glyph-name="less" unicode="&#x3c;" horiz-adv-x="563" 
d="M534 287v-206l-517 157v218l517 156v-205l-305 -61z" />
    <glyph glyph-name="equal" unicode="=" horiz-adv-x="701" 
d="M672 389h-643v164h643v-164zM672 140h-643v167h643v-167z" />
    <glyph glyph-name="greater" unicode="&#x3e;" horiz-adv-x="586" 
d="M554 238l-517 -157v206l304 61l-304 59v205l517 -156v-218z" />
    <glyph glyph-name="question" unicode="?" horiz-adv-x="668" 
d="M414 268h-202l-27 109h22q111 0 151.5 17t40.5 52q0 26 -30.5 43t-81.5 17q-59 0 -123 -10.5t-97 -19.5t-41 -13v210q9 4 37 11.5t94 17t135 9.5q162 0 260 -52t97 -142q0 -78 -54.5 -121.5t-167.5 -61.5zM314 -11q-62 1 -98.5 31.5t-36.5 84.5t37 85t98 31t97.5 -31
t36.5 -85t-36.5 -85t-97.5 -31z" />
    <glyph glyph-name="at" unicode="@" horiz-adv-x="1057" 
d="M494 -189q-226 0 -352 111.5t-110 311.5q16 204 161 322.5t373 117.5q147 0 254 -48.5t161.5 -142.5t44.5 -222q-19 -243 -244 -243q-143 0 -185 81q-27 -34 -71.5 -56.5t-95.5 -22.5q-97 0 -151.5 56t-46.5 153q7 107 76 173t170 66q46 0 85 -21.5t58 -55.5l11 56h196
l-29 -245q-2 -28 0 -46t17 -33t45 -15q77 0 86 154q14 158 -88.5 249t-299.5 91q-199 1 -317 -97.5t-132 -270.5q-13 -165 90.5 -257.5t300.5 -92.5q78 0 154 14.5t122 36.5l-2 -79q-111 -45 -281 -45zM506 158q39 0 69 29t34 68q3 34 -22 53.5t-62 19.5q-38 0 -66 -28.5
t-31 -68.5q-3 -34 19 -53.5t59 -19.5z" />
    <glyph glyph-name="A" unicode="A" horiz-adv-x="985" 
d="M419 137l-28 -137h-403l337 700h335l337 -700h-403l-28 137h-147zM502 424h-19l-41 -201h100z" />
    <glyph glyph-name="B" unicode="B" horiz-adv-x="920" 
d="M612 0h-584v700h545q140 0 218 -45.5t78 -127.5q0 -76 -63.5 -116t-183.5 -40v-20q285 0 285 -164q0 -87 -77.5 -137t-217.5 -50zM312 439v-60h218q61 0 61 31q0 29 -62 29h-217zM312 331v-70h231q62 0 62 35t-62 35h-231z" />
    <glyph glyph-name="C" unicode="C" horiz-adv-x="909" 
d="M533 -15q-241 0 -378 89t-137 276q0 96 37.5 167t107 114t162 63.5t210.5 20.5q180 0 333 -42l-18 -311q-50 25 -133.5 43t-162.5 18q-125 0 -188 -16t-63 -55q0 -44 68 -59t209 -15q86 0 167.5 18t133.5 43v-317q-158 -37 -348 -37z" />
    <glyph glyph-name="D" unicode="D" horiz-adv-x="933" 
d="M449 0h-421v700h421q216 0 341 -91.5t125 -258.5q0 -166 -125 -258t-341 -92zM477 414h-161v-127h161q68 0 106.5 16.5t38.5 46.5q0 31 -38 47.5t-107 16.5z" />
    <glyph glyph-name="E" unicode="E" horiz-adv-x="855" 
d="M807 426l-496 10v-47l376 10v-92l-376 10v-51l523 26v-292h-806v700h779v-274z" />
    <glyph glyph-name="F" unicode="F" horiz-adv-x="821" 
d="M349 0h-321v700h773v-302l-490 26v-59l394 10v-138l-394 18z" />
    <glyph glyph-name="G" unicode="G" horiz-adv-x="1031" 
d="M413 -15q-185 0 -290 94.5t-105 269.5q0 177 135 271.5t363 94.5q188 0 341 -27l-29 -268q-149 24 -297 24q-110 0 -171 -23.5t-61 -67.5q0 -91 188 -91q61 0 100 13t40 31l-215 3v98h616v-117h-55l4 -290h-290l61 286h-21q-25 -165 -102.5 -233t-211.5 -68z" />
    <glyph glyph-name="H" unicode="H" horiz-adv-x="939" 
d="M362 0h-334v700h334l-45 -257h305l-44 257h333v-700h-333l44 266h-305z" />
    <glyph glyph-name="I" unicode="I" horiz-adv-x="793" 
d="M20 402v298h753v-298l-243 18l1 -140l242 18v-298h-753v298l243 -18l1 140z" />
    <glyph glyph-name="J" unicode="J" horiz-adv-x="815" 
d="M319 -15q-178 0 -299 37l11 305q22 -10 87.5 -21.5t111.5 -11.5q64 0 106.5 7.5t61 20.5t24.5 26.5t4 31.5l-3 30l-381 -14v304h753v-301l-85 4l13 -98q18 -102 -31.5 -176t-146 -109t-226.5 -35z" />
    <glyph glyph-name="K" unicode="K" horiz-adv-x="903" 
d="M326 159l29 -159h-327v700h314l-34 -342h17l93 342h473l-483 -330l13 -18q83 78 170 78q156 0 234.5 -119.5t52.5 -310.5h-354q18 84 20 153.5t-28.5 114.5t-90.5 45q-61 0 -86.5 -45t-12.5 -109z" />
    <glyph glyph-name="L" unicode="L" horiz-adv-x="815" 
d="M308 298l489 18v-316h-769v700h308z" />
    <glyph glyph-name="M" unicode="M" horiz-adv-x="1111" 
d="M401 0h-376l73 700h369l79 -392h18l80 392h369l73 -700h-376l53 384l-19 3l-123 -330h-131l-122 330l-20 -3z" />
    <glyph glyph-name="N" unicode="N" horiz-adv-x="962" 
d="M934 0h-257l-358 358l-16 -5l81 -353h-356v700h264l350 -314l18 6l-68 308h342v-700z" />
    <glyph glyph-name="O" unicode="O" horiz-adv-x="987" 
d="M494 -15q-216 0 -346 96t-130 269q0 174 129.5 269.5t346.5 95.5q216 0 345.5 -95.5t129.5 -269.5t-129.5 -269.5t-345.5 -95.5zM494 273q87 0 137 20.5t50 56.5t-50 56.5t-137 20.5q-88 0 -137.5 -20.5t-49.5 -56.5t49.5 -56.5t137.5 -20.5z" />
    <glyph glyph-name="P" unicode="P" horiz-adv-x="898" 
d="M339 -1l-311 1v700h495q169 -1 265.5 -65.5t96.5 -190.5t-96.5 -191t-265.5 -65h-207zM316 407v-77h201q78 0 78 39q0 38 -78 38h-201z" />
    <glyph glyph-name="Q" unicode="Q" horiz-adv-x="973" 
d="M63 -6l-25 244l272 18l-2 17q-142 0 -219 49.5t-77 140.5q0 120 129.5 186t345.5 66q217 0 346.5 -66t129.5 -186q0 -103 -99 -152t-288 -63l-259 -19l2 -19q48 6 271 12.5t325 35.5l32 -253q-100 -20 -223.5 -20t-221.5 11.5t-219.5 13t-219.5 -15.5zM487 299
q87 0 137.5 15t50.5 42q0 28 -50 43t-138 15q-187 0 -187 -58q0 -27 50 -42t137 -15z" />
    <glyph glyph-name="R" unicode="R" horiz-adv-x="917" 
d="M444 252h-127l21 -252h-310v700h495q175 -1 268.5 -49t93.5 -162q0 -99 -91 -141.5t-267 -42.5v-17h88q149 0 227.5 -75t58.5 -213h-359q33 110 9.5 181t-107.5 71zM515 410h-200v-67h200q80 0 80 34q0 33 -80 33z" />
    <glyph glyph-name="S" unicode="S" horiz-adv-x="920" 
d="M474 -15q-94 0 -237 20.5t-216 46.5l-1 322q69 -59 185.5 -91t260.5 -32q130 0 130 24q0 23 -59 32t-143.5 14t-168.5 17.5t-143 54.5t-59 114q0 208 429 208q95 0 220.5 -18.5t196.5 -48.5l-41 -281q-71 38 -168 61t-196 23q-138 0 -138 -29q0 -20 42.5 -29.5
t106.5 -9.5t138 -7t138 -20t106.5 -50.5t42.5 -96.5q0 -111 -109.5 -167.5t-316.5 -56.5z" />
    <glyph glyph-name="T" unicode="T" horiz-adv-x="821" 
d="M802 700l1 -304l-285 10l56 -406h-327l55 406l-284 -10l1 304h783z" />
    <glyph glyph-name="U" unicode="U" horiz-adv-x="908" 
d="M454 -15q-203 0 -315.5 87t-112.5 242v386h309l-22 -257q-6 -66 30 -106.5t111 -40.5t111.5 41t30.5 106l-22 257h308v-386q0 -155 -112 -242t-316 -87z" />
    <glyph glyph-name="V" unicode="V" horiz-adv-x="985" 
d="M660 0h-335l-337 700h395l101 -383h18l100 383h395z" />
    <glyph glyph-name="W" unicode="W" horiz-adv-x="1181" 
d="M1009 0h-346l-63 416h-19l-63 -416h-345l-173 700h382l-2 -419l18 -2l103 380h179l104 -380l17 2l-1 419h381z" />
    <glyph glyph-name="X" unicode="X" horiz-adv-x="1020" 
d="M453 0h-452l332 360l-312 340h439l40 -244h20l39 244h439l-311 -340l332 -360h-453l-46 267h-20z" />
    <glyph glyph-name="Y" unicode="Y" horiz-adv-x="947" 
d="M484 428l65 272h396l-346 -435l49 -265h-348l49 265l-347 435h396l66 -272h20z" />
    <glyph glyph-name="Z" unicode="Z" horiz-adv-x="889" 
d="M454 294l4 -16l411 36v-314h-849v218l388 179l-5 17l-367 -37v323h798v-212z" />
    <glyph glyph-name="bracketleft" unicode="[" horiz-adv-x="427" 
d="M409 -34h-367v734h367v-179h-124v-376h124v-179z" />
    <glyph glyph-name="backslash" unicode="\" horiz-adv-x="584" 
d="M584 0h-236l-347 700h236z" />
    <glyph glyph-name="bracketright" unicode="]" horiz-adv-x="426" 
d="M385 -34h-368v179h125v376h-125v179h368v-734z" />
    <glyph glyph-name="asciicircum" unicode="^" horiz-adv-x="755" 
d="M261 232h-206l196 468h267l196 -468h-205l-124 282z" />
    <glyph glyph-name="underscore" unicode="_" horiz-adv-x="622" 
d="M625 -173h-628v165h628v-165z" />
    <glyph glyph-name="a" unicode="a" horiz-adv-x="776" 
d="M235 -15q-223 0 -223 155q0 73 62.5 113.5t173.5 40.5q75 0 123 -22.5t59 -55.5h17v13q0 38 -58.5 66t-141.5 28q-101 0 -198 -41v193q133 40 269 40q124 0 218.5 -29t143 -85.5t33.5 -130.5l-11 -53h68v-217h-340l21 125h-20q-1 -62 -63.5 -101t-132.5 -39zM361 147
q89 0 89 28t-89 28q-88 0 -88 -28t88 -28z" />
    <glyph glyph-name="b" unicode="b" horiz-adv-x="788" 
d="M528 -15q-86 0 -153 45t-83 122h-14l27 -152h-283v700h294l-39 -366h15q14 85 80.5 133t155.5 48q111 0 179.5 -73.5t68.5 -191.5t-68.5 -191.5t-179.5 -73.5zM409 214q122 0 122 34t-122 34q-128 0 -128 -34t128 -34z" />
    <glyph glyph-name="c" unicode="c" horiz-adv-x="644" 
d="M366 -15q-160 0 -257 71.5t-97 194.5q0 121 95 192.5t261 71.5q137 0 241 -23l-16 -231q-90 26 -174 26q-155 0 -155 -33q0 -22 39 -29.5t126 -7.5q114 0 198 39l2 -239q-104 -32 -263 -32z" />
    <glyph glyph-name="d" unicode="d" horiz-adv-x="788" 
d="M259 -15q-111 0 -179 74t-68 191t68 191t179 74q89 0 156 -48t81 -133h14l-39 366h295v-700h-283l27 152h-15q-15 -77 -82 -122t-154 -45zM379 214q128 0 128 34t-128 34q-122 0 -122 -34t122 -34z" />
    <glyph glyph-name="e" unicode="e" horiz-adv-x="708" 
d="M385 -15q-177 0 -275 70.5t-98 195.5q0 126 96 195t251 69q159 0 248 -68.5t89 -179.5q0 -22 -7 -38h-434q1 -18 49 -30.5t119 -12.5q140 0 237 35l2 -195q-114 -41 -277 -41zM257 267h210q-4 26 -33.5 41.5t-71.5 15.5q-87 0 -105 -57z" />
    <glyph glyph-name="f" unicode="f" horiz-adv-x="546" 
d="M369 0h-274v277l-89 -8v231l89 -1v45q0 91 69 140.5t189 49.5q81 0 159 -23l-17 -170q-34 12 -70 12q-74 0 -74 -33v-21l182 1v-231l-176 8z" />
    <glyph glyph-name="g" unicode="g" horiz-adv-x="785" 
d="M187 -215q-71 0 -125 36.5t-71.5 94.5t8.5 130l57 142l157 -32l4 11q-214 36 -214 162q0 86 97.5 136t260.5 50q185 0 417 -15v-240l-156 130l-6 -8q51 -40 51 -98q0 -67 -80.5 -104t-225.5 -37h-88l-21 -35q-16 -31 -3.5 -49t42.5 -18q34 0 76 23t92.5 46t106.5 23
q54 0 94 -10t69.5 -34t42 -61.5t8.5 -95t-27 -132.5h-267q11 22 15 43.5t-4 37.5t-30 16q-24 0 -52 -17.5t-52 -38.5t-71 -38.5t-105 -17.5zM360 207q49 0 78 10.5t29 29.5t-29.5 30.5t-77.5 11.5t-77.5 -11.5t-29.5 -30.5q0 -18 29.5 -29t77.5 -11z" />
    <glyph glyph-name="h" unicode="h" horiz-adv-x="736" 
d="M293 0h-271v700h294l-32 -379h13q15 89 70 141.5t135 52.5q111 0 163.5 -57.5t52.5 -156.5v-301h-279l22 165q7 48 -14.5 79t-66.5 31t-74 -30.5t-25 -78.5z" />
    <glyph glyph-name="i" unicode="i" horiz-adv-x="379" 
d="M208 528q-67 0 -108 28t-41 75q0 46 40.5 73.5t108.5 27.5t108.5 -27.5t40.5 -73.5q0 -47 -40.5 -75t-108.5 -28zM363 0h-263v267h-94v233h357v-500z" />
    <glyph glyph-name="j" unicode="j" horiz-adv-x="411" 
d="M248 528q-68 0 -108.5 28t-40.5 75q0 46 40.5 73.5t108.5 27.5t108.5 -27.5t40.5 -73.5q0 -47 -40.5 -75t-108.5 -28zM138 -213q-95 0 -171 22l20 168q44 -11 70 -11q30 0 46.5 16.5t16.5 46.5v238h-111v233h374v-495q0 -102 -58.5 -160t-186.5 -58z" />
    <glyph glyph-name="k" unicode="k" horiz-adv-x="767" 
d="M289 113l17 -113h-284v700h293l-47 -438h10l75 238h404l-407 -235l7 -11q67 55 147 55q129 0 193 -85t68 -224h-295q6 38 3 78t-13 73.5t-35 54.5t-62 20q-42 -1 -62 -32t-12 -81z" />
    <glyph glyph-name="l" unicode="l" horiz-adv-x="410" 
d="M278 233h126v-233h-382v700h293z" />
    <glyph glyph-name="m" unicode="m" horiz-adv-x="1109" 
d="M286 0h-264v500h269l-14 -179h12q16 89 69 141.5t130 52.5q99 0 143.5 -50.5t47.5 -143.5h11q16 88 72 141t134 53q106 0 150.5 -55.5t44.5 -158.5l-1 -301h-270l22 172q6 46 -11 74.5t-61 28.5q-42 0 -66 -28.5t-23 -80.5l2 -166h-270l22 172q12 103 -73 103
q-42 0 -67 -29t-21 -80z" />
    <glyph glyph-name="n" unicode="n" 
d="M289 166l12 -166h-279v500h284l-14 -179h13q15 88 70 141t134 53q111 0 164 -57t53 -157l-1 -301h-277l22 172q6 47 -15 75t-68 28q-44 0 -73 -29.5t-25 -79.5z" />
    <glyph glyph-name="o" unicode="o" horiz-adv-x="741" 
d="M370 -15q-165 0 -261.5 70.5t-96.5 193.5q0 124 96.5 195t261.5 71q166 0 262.5 -71t96.5 -195q0 -123 -96.5 -193.5t-262.5 -70.5zM370 210q121 0 121 40q0 19 -32 30t-89 11q-56 0 -88 -11t-32 -30q0 -40 120 -40z" />
    <glyph glyph-name="p" unicode="p" horiz-adv-x="788" 
d="M316 -200h-294v700h283l-27 -152h14q16 77 83 122t153 45q111 0 179.5 -73.5t68.5 -191.5t-68.5 -191.5t-179.5 -73.5q-89 0 -155.5 48t-80.5 133h-15zM408 218q123 0 123 34t-123 34q-127 0 -127 -34t127 -34z" />
    <glyph glyph-name="q" unicode="q" horiz-adv-x="788" 
d="M766 -200h-295l39 366h-14q-14 -85 -81 -133t-156 -48q-111 0 -179 74t-68 191t68 191t179 74q87 0 154 -45t82 -122h15l-27 152h283v-700zM379 218q128 0 128 34t-128 34q-122 0 -122 -34t122 -34z" />
    <glyph glyph-name="r" unicode="r" horiz-adv-x="614" 
d="M273 133l13 -133h-264v500h269l-14 -179h12q15 87 72.5 140.5t135.5 53.5q66 0 106 -26l-16 -284q-19 29 -59.5 49.5t-82.5 20.5q-87 0 -132 -42t-40 -100z" />
    <glyph glyph-name="s" unicode="s" horiz-adv-x="653" 
d="M308 -15q-60 0 -152.5 10t-147.5 23v229q62 -24 140 -38.5t136 -14.5q61 0 85 3.5t24 18.5q0 10 -39.5 13.5t-96 7.5t-113.5 14t-96.5 40.5t-39.5 79.5q0 67 84 105.5t240 38.5q132 0 253 -31l2 -209q-94 45 -230 45q-52 0 -74.5 -3.5t-22.5 -16.5q0 -8 39.5 -11.5t96 -9
t113.5 -17.5t96.5 -43t39.5 -79q0 -75 -89 -115t-248 -40z" />
    <glyph glyph-name="t" unicode="t" horiz-adv-x="551" 
d="M357 -15q-74 0 -125.5 14t-78 40t-37.5 55.5t-11 66.5v108h-100v231q106 0 156 49.5t50 135.5h157v-185h171v-231h-171v-13q0 -38 77 -38q40 0 88 16v-212q-88 -37 -176 -37z" />
    <glyph glyph-name="u" unicode="u" 
d="M235 -15q-111 0 -164 57t-53 157v301h279l-23 -172q-7 -49 14.5 -76t68.5 -27q44 0 73.5 29.5t25.5 79.5l-13 166h279v-500h-284l14 179h-13q-16 -89 -70.5 -141.5t-133.5 -52.5z" />
    <glyph glyph-name="v" unicode="v" horiz-adv-x="831" 
d="M602 0h-374l-226 500h362l44 -280h17l38 280h366z" />
    <glyph glyph-name="w" unicode="w" horiz-adv-x="1078" 
d="M970 0h-356l-68 273h-14l-68 -273h-355l-103 500h389l-46 -285l18 -1l110 262h124l110 -262l19 1l-47 285h389z" />
    <glyph glyph-name="x" unicode="x" horiz-adv-x="831" 
d="M371 0h-367l220 256l-205 244h365l25 -201h17l19 201h369l-205 -244l218 -256h-371l-31 224h-16z" />
    <glyph glyph-name="y" unicode="y" horiz-adv-x="835" 
d="M203 -215q-48 0 -155 11l6 228q102 -30 174 -30q54 0 83 6t36 27l6 18h-123l-226 455h362l43 -255h18l38 255h366l-250 -565q-5 -12 -9.5 -20.5t-18.5 -26t-30 -29.5t-46 -27t-66 -24.5t-90 -16t-118 -6.5z" />
    <glyph glyph-name="z" unicode="z" horiz-adv-x="684" 
d="M638 317l-275 -97h307v-220h-655v184l274 97h-274v219h623v-183z" />
    <glyph glyph-name="braceleft" unicode="{" horiz-adv-x="455" 
d="M438 40v-168q-174 0 -243.5 41t-69.5 145v63q0 56 -31 75t-91 19v142q60 0 91 19t31 75v63q0 105 70 145.5t243 40.5v-168q-62 0 -89.5 -20.5t-27.5 -69.5v-51q0 -39 -26 -68.5t-67 -31.5v-10q41 -1 67 -31t26 -69v-51q0 -50 28 -70t89 -20z" />
    <glyph glyph-name="bar" unicode="|" horiz-adv-x="324" 
d="M271 -99h-218v799h218v-799z" />
    <glyph glyph-name="braceright" unicode="}" horiz-adv-x="455" 
d="M15 -128v168q61 0 89 20t28 70v51q0 39 26 69t67 31v10q-41 2 -67 31.5t-26 68.5v51q0 49 -27.5 69.5t-89.5 20.5v168q173 0 242.5 -40.5t69.5 -145.5v-63q0 -55 31 -74.5t92 -19.5v-142q-61 0 -92 -19.5t-31 -74.5v-63q0 -104 -69.5 -145t-242.5 -41z" />
    <glyph glyph-name="asciitilde" unicode="~" horiz-adv-x="621" 
d="M102 197l-89 163q56 72 159 72q49 0 119.5 -19.5t103.5 -19.5q67 0 106 41l89 -163q-57 -73 -158 -73q-47 0 -119.5 20t-103.5 20q-54 0 -107 -41z" />
    <glyph glyph-name="exclamdown" unicode="&#xa1;" horiz-adv-x="375" 
d="M187 283q-61 0 -97.5 30.5t-36.5 84.5t36.5 85t97.5 31q62 0 98.5 -30.5t36.5 -84.5t-37 -85t-98 -31zM331 -197h-287l44 432h206z" />
    <glyph glyph-name="cent" unicode="&#xa2;" horiz-adv-x="682" 
d="M472 0h-145v91q-154 15 -230.5 81t-76.5 175t76.5 175.5t230.5 81.5v96h145v-92q117 -6 168 -19l-2 -202q-84 22 -193 22q-178 0 -178 -61q0 -62 180 -62q57 0 122 7.5t89 15.5v-202q-44 -14 -186 -20v-87z" />
    <glyph glyph-name="sterling" unicode="&#xa3;" horiz-adv-x="849" 
d="M837 0h-786v244q37 1 66.5 13t29.5 39v18h-136v86h136v122q0 91 106 142t284 51q142 0 278 -34l-1 -240q-2 1 -38 6.5t-104 11.5t-131 6q-124 0 -124 -44v-21h340v-86h-340v-8q0 -34 -42 -49v-6h462v-251z" />
    <glyph glyph-name="currency" unicode="&#xa4;" horiz-adv-x="821" 
d="M193 150l-111 -70l-74 122l81 53q-24 51 -24 108q2 66 28 114l-85 56l75 121l117 -74q86 46 212 46q123 0 209 -44l115 72l75 -121l-81 -54q29 -50 29 -117q0 -60 -26 -110l78 -50l-74 -122l-107 69q-88 -48 -218 -48q-133 0 -219 49zM412 264q53 0 85.5 26.5t32.5 71.5
q0 47 -32.5 74.5t-85.5 27.5q-52 0 -84.5 -27.5t-32.5 -73.5t32.5 -72.5t84.5 -26.5z" />
    <glyph glyph-name="yen" unicode="&#xa5;" horiz-adv-x="939" 
d="M598 0h-257v100h-216v82h216v39h-216v82h165l-288 397h282l186 -256l184 256h283l-288 -397h165v-82h-216v-39h216v-82h-216v-100z" />
    <glyph glyph-name="brokenbar" unicode="&#xa6;" horiz-adv-x="305" 
d="M252 428h-199v306h199v-306zM252 -36h-199v311h199v-311z" />
    <glyph glyph-name="section" unicode="&#xa7;" horiz-adv-x="761" 
d="M362 -135q-53 0 -119 6t-108 12.5t-47 8.5l1 162q85 -37 231 -37q47 0 85.5 7t38.5 20q0 15 -24 21.5t-86 14.5q-7 1 -10 1q-288 21 -288 178q0 78 65 131q-64 50 -64 134q0 86 93 136.5t242 50.5q69 0 136 -8t98.5 -15.5t38.5 -10.5l-1 -160q-90 42 -229 42
q-48 0 -86 -6.5t-38 -19.5q0 -15 24.5 -21t90.5 -13q293 -21 293 -181q0 -77 -63 -132q62 -49 62 -132q0 -87 -93.5 -138t-242.5 -51zM388 245q87 9 87 38q0 39 -128 48q-87 -7 -87 -38q0 -21 27.5 -32t100.5 -16z" />
    <glyph glyph-name="copyright" unicode="&#xa9;" horiz-adv-x="869" 
d="M434 -17q-187 0 -295.5 102.5t-108.5 261.5t109.5 262.5t296.5 103.5t295 -102.5t108 -261.5q0 -160 -109.5 -263t-295.5 -103zM434 59q153 0 238 82.5t85 207.5q0 124 -84.5 206t-236.5 82t-237 -82.5t-85 -207.5t84 -206.5t236 -81.5zM460 153q-122 0 -190.5 53
t-68.5 145q0 91 69.5 146t191.5 55q33 0 79 -5.5t62 -13.5v-116q-12 10 -51 18t-65 8q-69 0 -111.5 -25t-42.5 -65q0 -42 40.5 -66.5t103.5 -24.5q100 0 137 29v-118q-16 -9 -66.5 -14.5t-87.5 -5.5z" />
    <glyph glyph-name="guillemotleft" unicode="&#xab;" horiz-adv-x="709" 
d="M404 77h-201l-173 252l173 251h201l-177 -251zM679 77h-201l-173 252l173 251h201l-177 -251z" />
    <glyph glyph-name="logicalnot" unicode="&#xac;" horiz-adv-x="613" 
d="M583 180h-193v122h-360v170h553v-292z" />
    <glyph glyph-name="uni00AD" unicode="&#xad;" horiz-adv-x="613" 
d="M583 302h-553v170h553v-170z" />
    <glyph glyph-name="registered" unicode="&#xae;" horiz-adv-x="907" 
d="M453 -17q-196 0 -309.5 102.5t-113.5 261.5t114.5 262.5t309.5 103.5t309 -102.5t114 -261.5q0 -160 -114.5 -263t-309.5 -103zM453 59q159 0 248.5 83t89.5 207t-88.5 206t-248.5 82t-248.5 -82.5t-88.5 -207.5t88 -206.5t248 -81.5zM393 168h-136v386h241
q88 0 138 -34.5t50 -101.5q0 -81 -81 -115l96 -135h-159l-68 113h-81v-113zM393 451v-82h102q55 0 55 42q0 40 -54 40h-103z" />
    <glyph glyph-name="degree" unicode="&#xb0;" horiz-adv-x="399" 
d="M199 372q-80 0 -129.5 45.5t-49.5 119.5q0 75 49.5 120.5t129.5 45.5q81 0 131 -45.5t50 -120.5q0 -74 -50 -119.5t-131 -45.5zM199 475q29 0 47.5 16.5t18.5 45.5t-18.5 46.5t-47.5 17.5q-28 0 -46.5 -17.5t-18.5 -46.5q0 -28 18.5 -45t46.5 -17z" />
    <glyph glyph-name="plusminus" unicode="&#xb1;" horiz-adv-x="667" 
d="M433 189h-184v148h-214v164h214v148h184v-148h197v-164h-197v-148zM638 4h-609v134h609v-134z" />
    <glyph glyph-name="paragraph" unicode="&#xb6;" horiz-adv-x="682" 
d="M666 1h-211v183h-95q-157 0 -250.5 68t-93.5 192q0 125 89 192.5t245 67.5h316v-703z" />
    <glyph glyph-name="periodcentered" unicode="&#xb7;" horiz-adv-x="370" 
d="M185 197q-60 0 -100 37.5t-40 95.5q0 56 40 93t100 37q61 0 100.5 -37t39.5 -94t-40 -94.5t-100 -37.5z" />
    <glyph glyph-name="guillemotright" unicode="&#xbb;" horiz-adv-x="709" 
d="M231 77h-201l177 252l-177 251h201l173 -251zM506 77h-201l177 252l-177 251h201l173 -251z" />
    <glyph glyph-name="questiondown" unicode="&#xbf;" horiz-adv-x="668" 
d="M362 283q-61 0 -97.5 31t-36.5 85t36.5 85.5t97.5 30.5t97.5 -31.5t36.5 -84.5t-36.5 -85t-97.5 -31zM383 -207q-162 0 -259.5 52t-97.5 142q0 77 54.5 121.5t167.5 62.5l14 66h201l27 -110h-35q-100 0 -139.5 -17.5t-39.5 -51.5q0 -26 30.5 -43t81.5 -17q59 0 123 10.5
t97 19.5t41 13v-209q-10 -4 -37.5 -11.5t-93.5 -17.5t-135 -10z" />
    <glyph glyph-name="Agrave" unicode="&#xc0;" horiz-adv-x="985" 
d="M588 753h-162l-215 151h263zM660 700l337 -700h-403l-28 137h-147l-28 -137h-403l337 700h335zM502 424h-19l-41 -201h100z" />
    <glyph glyph-name="Aacute" unicode="&#xc1;" horiz-adv-x="985" 
d="M564 753h-162l114 151h263zM419 137l-28 -137h-403l337 700h335l337 -700h-403l-28 137h-147zM502 424h-19l-41 -201h100z" />
    <glyph glyph-name="Acircumflex" unicode="&#xc2;" horiz-adv-x="985" 
d="M431 752h-208l147 151h246l146 -151h-205l-63 63zM594 0l-28 137h-147l-28 -137h-403l337 700h335l337 -700h-403zM442 223h100l-40 201h-19z" />
    <glyph glyph-name="Atilde" unicode="&#xc3;" horiz-adv-x="985" 
d="M375 768l-110 20q3 68 39.5 106.5t93.5 38.5q38 0 100 -27q48 -22 67 -22q21 0 31.5 10.5t12.5 40.5l110 -19q-4 -74 -39 -109t-94 -35q-47 0 -107 28q-39 19 -63 19q-15 0 -27 -13t-14 -38zM419 137l-28 -137h-403l337 700h335l337 -700h-403l-28 137h-147zM502 424h-19
l-41 -201h100z" />
    <glyph glyph-name="Adieresis" unicode="&#xc4;" horiz-adv-x="985" 
d="M371 750q-51 0 -82 25t-31 68q0 44 31 69t82 25q49 0 80.5 -25.5t31.5 -68.5q0 -44 -31 -68.5t-81 -24.5zM616 750q-50 0 -81.5 25t-30.5 68q0 44 31 69t81 25q51 0 81.5 -25.5t30.5 -68.5q0 -44 -30.5 -68.5t-81.5 -24.5zM997 0h-403l-28 137h-147l-28 -137h-403
l337 700h335zM483 424l-41 -201h100l-40 201h-19z" />
    <glyph glyph-name="Aring" unicode="&#xc5;" horiz-adv-x="985" 
d="M493 744q-78 0 -124 34t-46 93q0 58 46 92.5t124 34.5t124 -34t46 -93t-46 -93t-124 -34zM493 826q21 0 33.5 12t12.5 32t-12.5 32t-33.5 12t-33.5 -12t-12.5 -32t13 -32t33 -12zM391 0h-403l337 700h335l337 -700h-403l-28 137h-147zM483 424l-41 -201h100l-40 201h-19z
" />
    <glyph glyph-name="AE" unicode="&#xc6;" horiz-adv-x="1470" 
d="M432 0h-439l444 700h977v-260l-493 10v-44l389 10v-113l-389 10v-59l522 18v-272h-804v153h-151zM602 456l-79 -205h116v205h-37z" />
    <glyph glyph-name="Ccedilla" unicode="&#xc7;" horiz-adv-x="909" 
d="M533 -15h-31l-20 -37q42 14 82.5 -6.5t40.5 -66.5q0 -47 -43 -72.5t-108 -25.5q-90 0 -143 34l22 68q53 -29 114 -29q52 0 52 27q0 16 -22 20t-42 -8l-62 37l31 66q-183 22 -284.5 110t-101.5 248q0 96 37.5 167t107 114t162 63.5t210.5 20.5q180 0 333 -42l-18 -311
q-50 25 -133.5 43t-162.5 18q-125 0 -188 -16t-63 -55q0 -44 68 -59t209 -15q86 0 167.5 18t133.5 43v-317q-158 -37 -348 -37z" />
    <glyph glyph-name="Egrave" unicode="&#xc8;" horiz-adv-x="855" 
d="M510 753h-162l-215 151h263zM311 389l376 10v-92l-376 10v-51l523 26v-292h-806v700h779v-274l-496 10v-47z" />
    <glyph glyph-name="Eacute" unicode="&#xc9;" horiz-adv-x="855" 
d="M486 753h-162l114 151h263zM834 292v-292h-806v700h779v-274l-496 10v-47l376 10v-92l-376 10v-51z" />
    <glyph glyph-name="Ecircumflex" unicode="&#xca;" horiz-adv-x="855" 
d="M353 752h-208l147 151h246l146 -151h-205l-63 63zM311 317v-51l523 26v-292h-806v700h779v-274l-496 10v-47l376 10v-92z" />
    <glyph glyph-name="Edieresis" unicode="&#xcb;" horiz-adv-x="855" 
d="M293 750q-51 0 -82 25t-31 68q0 44 31 69t82 25q49 0 80.5 -25.5t31.5 -68.5q0 -44 -31 -68.5t-81 -24.5zM538 750q-50 0 -81.5 25t-30.5 68q0 44 31 69t81 25q51 0 81.5 -25.5t30.5 -68.5q0 -44 -30.5 -68.5t-81.5 -24.5zM687 307l-376 10v-51l523 26v-292h-806v700h779
v-274l-496 10v-47l376 10v-92z" />
    <glyph glyph-name="Igrave" unicode="&#xcc;" horiz-adv-x="793" 
d="M476 753h-162l-215 151h263zM773 700v-298l-243 18l1 -140l242 18v-298h-753v298l243 -18l1 140l-244 -18v298h753z" />
    <glyph glyph-name="Iacute" unicode="&#xcd;" horiz-adv-x="793" 
d="M452 753h-162l114 151h263zM773 298v-298h-753v298l243 -18l1 140l-244 -18v298h753v-298l-243 18l1 -140z" />
    <glyph glyph-name="Icircumflex" unicode="&#xce;" horiz-adv-x="793" 
d="M319 752h-208l147 151h246l146 -151h-205l-63 63zM531 280l242 18v-298h-753v298l243 -18l1 140l-244 -18v298h753v-298l-243 18z" />
    <glyph glyph-name="Idieresis" unicode="&#xcf;" horiz-adv-x="793" 
d="M259 750q-51 0 -82 25t-31 68q0 44 31 69t82 25q49 0 80.5 -25.5t31.5 -68.5q0 -44 -31 -68.5t-81 -24.5zM504 750q-50 0 -81.5 25t-30.5 68q0 44 31 69t81 25q51 0 81.5 -25.5t30.5 -68.5q0 -44 -30.5 -68.5t-81.5 -24.5zM530 420l1 -140l242 18v-298h-753v298l243 -18
l1 140l-244 -18v298h753v-298z" />
    <glyph glyph-name="Eth" unicode="&#xd0;" horiz-adv-x="1008" 
d="M525 0h-422v322h-104v59h104v319h422q216 0 340.5 -91.5t124.5 -258.5q0 -166 -124.5 -258t-340.5 -92zM391 322v-35h161q68 0 106.5 16.5t38.5 46.5q0 31 -38 47.5t-107 16.5h-161v-33h157v-59h-157z" />
    <glyph glyph-name="Ntilde" unicode="&#xd1;" horiz-adv-x="962" 
d="M364 768l-110 20q3 68 39.5 106.5t93.5 38.5q38 0 100 -27q48 -22 67 -22q21 0 31.5 10.5t12.5 40.5l110 -19q-4 -74 -39 -109t-94 -35q-47 0 -107 28q-39 19 -63 19q-15 0 -27 -13t-14 -38zM934 0h-257l-358 358l-16 -5l81 -353h-356v700h264l350 -314l18 6l-68 308h342
v-700z" />
    <glyph glyph-name="Ograve" unicode="&#xd2;" horiz-adv-x="987" 
d="M589 753h-162l-215 151h263zM494 -15q-216 0 -346 96t-130 269q0 174 129.5 269.5t346.5 95.5q216 0 345.5 -95.5t129.5 -269.5t-129.5 -269.5t-345.5 -95.5zM494 273q87 0 137 20.5t50 56.5t-50 56.5t-137 20.5q-88 0 -137.5 -20.5t-49.5 -56.5t49.5 -56.5t137.5 -20.5z
" />
    <glyph glyph-name="Oacute" unicode="&#xd3;" horiz-adv-x="987" 
d="M565 753h-162l114 151h263zM494 -15q-216 0 -346 96t-130 269q0 174 129.5 269.5t346.5 95.5q216 0 345.5 -95.5t129.5 -269.5t-129.5 -269.5t-345.5 -95.5zM494 273q87 0 137 20.5t50 56.5t-50 56.5t-137 20.5q-88 0 -137.5 -20.5t-49.5 -56.5t49.5 -56.5t137.5 -20.5z
" />
    <glyph glyph-name="Ocircumflex" unicode="&#xd4;" horiz-adv-x="987" 
d="M432 752h-208l147 151h246l146 -151h-205l-63 63zM494 -15q-216 0 -346 96t-130 269q0 174 129.5 269.5t346.5 95.5q216 0 345.5 -95.5t129.5 -269.5t-129.5 -269.5t-345.5 -95.5zM494 273q87 0 137 20.5t50 56.5t-50 56.5t-137 20.5q-88 0 -137.5 -20.5t-49.5 -56.5
t49.5 -56.5t137.5 -20.5z" />
    <glyph glyph-name="Otilde" unicode="&#xd5;" horiz-adv-x="987" 
d="M376 768l-110 20q3 68 39.5 106.5t93.5 38.5q38 0 100 -27q48 -22 67 -22q21 0 31.5 10.5t12.5 40.5l110 -19q-4 -74 -39 -109t-94 -35q-47 0 -107 28q-39 19 -63 19q-15 0 -27 -13t-14 -38zM494 -15q-216 0 -346 96t-130 269q0 174 129.5 269.5t346.5 95.5
q216 0 345.5 -95.5t129.5 -269.5t-129.5 -269.5t-345.5 -95.5zM494 273q87 0 137 20.5t50 56.5t-50 56.5t-137 20.5q-88 0 -137.5 -20.5t-49.5 -56.5t49.5 -56.5t137.5 -20.5z" />
    <glyph glyph-name="Odieresis" unicode="&#xd6;" horiz-adv-x="987" 
d="M371 750q-51 0 -82 25t-31 68q0 44 31 69t82 25q49 0 80.5 -25.5t31.5 -68.5q0 -44 -31 -68.5t-81 -24.5zM616 750q-50 0 -81.5 25t-30.5 68q0 44 31 69t81 25q51 0 81.5 -25.5t30.5 -68.5q0 -44 -30.5 -68.5t-81.5 -24.5zM494 -15q-216 0 -346 96t-130 269
q0 174 129.5 269.5t346.5 95.5q216 0 345.5 -95.5t129.5 -269.5t-129.5 -269.5t-345.5 -95.5zM494 273q87 0 137 20.5t50 56.5t-50 56.5t-137 20.5q-88 0 -137.5 -20.5t-49.5 -56.5t49.5 -56.5t137.5 -20.5z" />
    <glyph glyph-name="multiply" unicode="&#xd7;" horiz-adv-x="605" 
d="M302 229l-138 -129l-122 116l136 131l-136 130l122 117l138 -130l138 130l123 -117l-136 -130l136 -131l-123 -116z" />
    <glyph glyph-name="Oslash" unicode="&#xd8;" horiz-adv-x="987" 
d="M946 646l-72 -56q95 -93 95 -240q0 -174 -129.5 -269.5t-345.5 -95.5q-187 0 -309 71l-95 -74l-52 69l76 59q-96 94 -96 240q0 174 129.5 269.5t346.5 95.5q188 0 309 -71l92 71zM307 350q0 -37 43 -57l180 139q-12 1 -36 1q-88 0 -137.5 -22t-49.5 -61zM494 268
q87 0 137 21.5t50 60.5q0 36 -43 57l-178 -138q11 -1 34 -1z" />
    <glyph glyph-name="Ugrave" unicode="&#xd9;" horiz-adv-x="908" 
d="M550 753h-162l-215 151h263zM454 -15q-203 0 -315.5 87t-112.5 242v386h309l-22 -257q-6 -66 30 -106.5t111 -40.5t111.5 41t30.5 106l-22 257h308v-386q0 -155 -112 -242t-316 -87z" />
    <glyph glyph-name="Uacute" unicode="&#xda;" horiz-adv-x="908" 
d="M526 753h-162l114 151h263zM454 -15q-203 0 -315.5 87t-112.5 242v386h309l-22 -257q-6 -66 30 -106.5t111 -40.5t111.5 41t30.5 106l-22 257h308v-386q0 -155 -112 -242t-316 -87z" />
    <glyph glyph-name="Ucircumflex" unicode="&#xdb;" horiz-adv-x="908" 
d="M393 752h-208l147 151h246l146 -151h-205l-63 63zM454 -15q-203 0 -315.5 87t-112.5 242v386h309l-22 -257q-6 -66 30 -106.5t111 -40.5t111.5 41t30.5 106l-22 257h308v-386q0 -155 -112 -242t-316 -87z" />
    <glyph glyph-name="Udieresis" unicode="&#xdc;" horiz-adv-x="908" 
d="M332 750q-51 0 -82 25t-31 68q0 44 31 69t82 25q49 0 80.5 -25.5t31.5 -68.5q0 -44 -31 -68.5t-81 -24.5zM577 750q-50 0 -81.5 25t-30.5 68q0 44 31 69t81 25q51 0 81.5 -25.5t30.5 -68.5q0 -44 -30.5 -68.5t-81.5 -24.5zM454 -15q-203 0 -315.5 87t-112.5 242v386h309
l-22 -257q-6 -66 30 -106.5t111 -40.5t111.5 41t30.5 106l-22 257h308v-386q0 -155 -112 -242t-316 -87z" />
    <glyph glyph-name="Yacute" unicode="&#xdd;" horiz-adv-x="947" 
d="M545 753h-162l114 151h263zM599 265l49 -265h-348l49 265l-347 435h396l66 -272h20l65 272h396z" />
    <glyph glyph-name="Thorn" unicode="&#xde;" horiz-adv-x="898" 
d="M326 0h-298v700h292l-3 -79h206q169 -1 265.5 -64t96.5 -189q0 -125 -96.5 -190.5t-265.5 -65.5h-207zM316 331v-76h201q78 0 78 38t-78 38h-201z" />
    <glyph glyph-name="germandbls" unicode="&#xdf;" horiz-adv-x="897" 
d="M550 -15q-81 0 -171 18v234q30 -7 93 -7q55 0 82.5 12.5t27.5 31.5q0 18 -29.5 31.5t-86.5 13.5h-79v70h61q46 0 73 12.5t27 30.5q0 17 -26 28t-69 11q-56 0 -87 -17t-31 -48l1 -407h-287v419q0 133 102.5 215t301.5 82q175 0 278 -55.5t103 -146.5q0 -58 -50.5 -100
t-135.5 -45v-12q98 -2 164 -48t66 -118q0 -96 -86 -150.5t-242 -54.5z" />
    <glyph glyph-name="agrave" unicode="&#xe0;" horiz-adv-x="776" 
d="M491 553h-162l-215 151h263zM235 -15q-223 0 -223 155q0 73 62.5 113.5t173.5 40.5q75 0 123 -22.5t59 -55.5h17v13q0 38 -58.5 66t-141.5 28q-101 0 -198 -41v193q133 40 269 40q124 0 218.5 -29t143 -85.5t33.5 -130.5l-11 -53h68v-217h-340l21 125h-20
q-1 -62 -63.5 -101t-132.5 -39zM361 147q89 0 89 28t-89 28q-88 0 -88 -28t88 -28z" />
    <glyph glyph-name="aacute" unicode="&#xe1;" horiz-adv-x="776" 
d="M467 553h-162l114 151h263zM235 -15q-223 0 -223 155q0 73 62.5 113.5t173.5 40.5q75 0 123 -22.5t59 -55.5h17v13q0 38 -58.5 66t-141.5 28q-101 0 -198 -41v193q133 40 269 40q124 0 218.5 -29t143 -85.5t33.5 -130.5l-11 -53h68v-217h-340l21 125h-20
q-1 -62 -63.5 -101t-132.5 -39zM361 147q89 0 89 28t-89 28q-88 0 -88 -28t88 -28z" />
    <glyph glyph-name="acircumflex" unicode="&#xe2;" horiz-adv-x="776" 
d="M334 552h-208l147 151h246l146 -151h-205l-63 63zM235 -15q-223 0 -223 155q0 73 62.5 113.5t173.5 40.5q75 0 123 -22.5t59 -55.5h17v13q0 38 -58.5 66t-141.5 28q-101 0 -198 -41v193q133 40 269 40q124 0 218.5 -29t143 -85.5t33.5 -130.5l-11 -53h68v-217h-340
l21 125h-20q-1 -62 -63.5 -101t-132.5 -39zM361 147q89 0 89 28t-89 28q-88 0 -88 -28t88 -28z" />
    <glyph glyph-name="atilde" unicode="&#xe3;" horiz-adv-x="776" 
d="M278 568l-110 20q3 68 39.5 106.5t93.5 38.5q38 0 100 -27q48 -22 67 -22q21 0 31.5 10.5t12.5 40.5l110 -19q-4 -74 -39 -109t-94 -35q-47 0 -107 28q-39 19 -63 19q-15 0 -27 -13t-14 -38zM235 -15q-223 0 -223 155q0 73 62.5 113.5t173.5 40.5q75 0 123 -22.5
t59 -55.5h17v13q0 38 -58.5 66t-141.5 28q-101 0 -198 -41v193q133 40 269 40q124 0 218.5 -29t143 -85.5t33.5 -130.5l-11 -53h68v-217h-340l21 125h-20q-1 -62 -63.5 -101t-132.5 -39zM361 147q89 0 89 28t-89 28q-88 0 -88 -28t88 -28z" />
    <glyph glyph-name="adieresis" unicode="&#xe4;" horiz-adv-x="776" 
d="M273 550q-51 0 -82 25t-31 68q0 44 31 69t82 25q49 0 80.5 -25.5t31.5 -68.5q0 -44 -31 -68.5t-81 -24.5zM518 550q-50 0 -81.5 25t-30.5 68q0 44 31 69t81 25q51 0 81.5 -25.5t30.5 -68.5q0 -44 -30.5 -68.5t-81.5 -24.5zM235 -15q-223 0 -223 155q0 73 62.5 113.5
t173.5 40.5q75 0 123 -22.5t59 -55.5h17v13q0 38 -58.5 66t-141.5 28q-101 0 -198 -41v193q133 40 269 40q124 0 218.5 -29t143 -85.5t33.5 -130.5l-11 -53h68v-217h-340l21 125h-20q-1 -62 -63.5 -101t-132.5 -39zM361 147q89 0 89 28t-89 28q-88 0 -88 -28t88 -28z" />
    <glyph glyph-name="aring" unicode="&#xe5;" horiz-adv-x="776" 
d="M396 544q-78 0 -124 34t-46 93q0 58 46 92.5t124 34.5t124 -34t46 -93t-46 -93t-124 -34zM396 626q21 0 33.5 12t12.5 32t-12.5 32t-33.5 12t-33.5 -12t-12.5 -32t13 -32t33 -12zM235 -15q-223 0 -223 155q0 73 62.5 113.5t173.5 40.5q75 0 123 -22.5t59 -55.5h17v13
q0 38 -58.5 66t-141.5 28q-101 0 -198 -41v193q133 40 269 40q124 0 218.5 -29t143 -85.5t33.5 -130.5l-11 -53h68v-217h-340l21 125h-20q-1 -62 -63.5 -101t-132.5 -39zM361 147q89 0 89 28t-89 28q-88 0 -88 -28t88 -28z" />
    <glyph glyph-name="ae" unicode="&#xe6;" horiz-adv-x="1163" 
d="M283 -15q-120 0 -194 40t-74 115q0 73 63 113.5t174 40.5q74 0 122 -22t60 -56h16v13q0 38 -58.5 66t-141.5 28q-101 0 -198 -41v193q133 40 269 40q108 0 181 -29t92 -88h12q22 57 87 87t144 30q146 0 225.5 -68t79.5 -180q0 -20 -6 -38h-422q1 -18 56 -30.5t123 -12.5
q128 0 216 35l2 -195q-104 -41 -253 -41q-229 0 -309 134h-13q-2 -64 -71 -99t-182 -35zM709 267h204q-4 26 -32 41.5t-70 15.5q-84 0 -102 -57zM364 147q89 0 89 28t-89 28q-88 0 -88 -28t88 -28z" />
    <glyph glyph-name="ccedilla" unicode="&#xe7;" horiz-adv-x="644" 
d="M426 -13l-21 -39q42 14 82.5 -6.5t40.5 -66.5q0 -47 -43 -72.5t-108 -25.5q-90 0 -143 34l22 68q53 -29 114 -29q52 0 52 27q0 16 -22 20t-42 -8l-62 37l28 60q-143 10 -227.5 80.5t-84.5 184.5q0 121 95 192.5t261 71.5q137 0 241 -23l-16 -231q-90 26 -174 26
q-155 0 -155 -33q0 -22 39 -29.5t126 -7.5q114 0 198 39l2 -239q-73 -23 -203 -30z" />
    <glyph glyph-name="egrave" unicode="&#xe8;" horiz-adv-x="708" 
d="M451 553h-162l-215 151h263zM385 -15q-177 0 -275 70.5t-98 195.5q0 126 96 195t251 69q159 0 248 -68.5t89 -179.5q0 -22 -7 -38h-434q1 -18 49 -30.5t119 -12.5q140 0 237 35l2 -195q-114 -41 -277 -41zM257 267h210q-4 26 -33.5 41.5t-71.5 15.5q-87 0 -105 -57z" />
    <glyph glyph-name="eacute" unicode="&#xe9;" horiz-adv-x="708" 
d="M427 553h-162l114 151h263zM385 -15q-177 0 -275 70.5t-98 195.5q0 126 96 195t251 69q159 0 248 -68.5t89 -179.5q0 -22 -7 -38h-434q1 -18 49 -30.5t119 -12.5q140 0 237 35l2 -195q-114 -41 -277 -41zM257 267h210q-4 26 -33.5 41.5t-71.5 15.5q-87 0 -105 -57z" />
    <glyph glyph-name="ecircumflex" unicode="&#xea;" horiz-adv-x="708" 
d="M294 552h-208l147 151h246l146 -151h-205l-63 63zM385 -15q-177 0 -275 70.5t-98 195.5q0 126 96 195t251 69q159 0 248 -68.5t89 -179.5q0 -22 -7 -38h-434q1 -18 49 -30.5t119 -12.5q140 0 237 35l2 -195q-114 -41 -277 -41zM257 267h210q-4 26 -33.5 41.5t-71.5 15.5
q-87 0 -105 -57z" />
    <glyph glyph-name="edieresis" unicode="&#xeb;" horiz-adv-x="708" 
d="M233 550q-51 0 -82 25t-31 68q0 44 31 69t82 25q49 0 80.5 -25.5t31.5 -68.5q0 -44 -31 -68.5t-81 -24.5zM478 550q-50 0 -81.5 25t-30.5 68q0 44 31 69t81 25q51 0 81.5 -25.5t30.5 -68.5q0 -44 -30.5 -68.5t-81.5 -24.5zM385 -15q-177 0 -275 70.5t-98 195.5
q0 126 96 195t251 69q159 0 248 -68.5t89 -179.5q0 -22 -7 -38h-434q1 -18 49 -30.5t119 -12.5q140 0 237 35l2 -195q-114 -41 -277 -41zM257 267h210q-4 26 -33.5 41.5t-71.5 15.5q-87 0 -105 -57z" />
    <glyph glyph-name="igrave" unicode="&#xec;" horiz-adv-x="419" 
d="M302 553h-162l-215 151h263zM106 0v267h-94v233h357v-500h-263z" />
    <glyph glyph-name="iacute" unicode="&#xed;" horiz-adv-x="419" 
d="M278 553h-162l114 151h263zM369 500v-500h-263v267h-94v233h357z" />
    <glyph glyph-name="icircumflex" unicode="&#xee;" horiz-adv-x="419" 
d="M145 552h-208l147 151h246l146 -151h-205l-63 63zM12 500h357v-500h-263v267h-94v233z" />
    <glyph glyph-name="idieresis" unicode="&#xef;" horiz-adv-x="419" 
d="M84 550q-51 0 -82 25t-31 68q0 44 31 69t82 25q49 0 80.5 -25.5t31.5 -68.5q0 -44 -31 -68.5t-81 -24.5zM329 550q-50 0 -81.5 25t-30.5 68q0 44 31 69t81 25q51 0 81.5 -25.5t30.5 -68.5q0 -44 -30.5 -68.5t-81.5 -24.5zM12 267v233h357v-500h-263v267h-94z" />
    <glyph glyph-name="eth" unicode="&#xf0;" horiz-adv-x="819" 
d="M657 780l-95 -71q112 -55 176.5 -145t64.5 -208q0 -173 -111 -272t-294 -99q-102 0 -184.5 27t-137 89t-54.5 150q0 112 88 169t243 57q92 0 157 -50l10 8q-17 38 -62 69t-105 49l-81 -61l-40 47l40 30q-78 8 -140 -15v223q195 18 363 -41l122 92zM408 262
q56 0 96.5 17.5t40.5 49.5q0 28 -39 44.5t-100 16.5q-60 0 -98 -15.5t-38 -45.5q0 -31 36 -49t102 -18z" />
    <glyph glyph-name="ntilde" unicode="&#xf1;" 
d="M249 568l-110 20q3 68 39.5 106.5t93.5 38.5q38 0 100 -27q48 -22 67 -22q21 0 31.5 10.5t12.5 40.5l110 -19q-4 -74 -39 -109t-94 -35q-47 0 -107 28q-39 19 -63 19q-15 0 -27 -13t-14 -38zM289 166l12 -166h-279v500h284l-14 -179h13q15 88 70 141t134 53
q111 0 164 -57t53 -157l-1 -301h-277l22 172q6 47 -15 75t-68 28q-44 0 -73 -29.5t-25 -79.5z" />
    <glyph glyph-name="ograve" unicode="&#xf2;" horiz-adv-x="741" 
d="M466 553h-162l-215 151h263zM370 -15q-165 0 -261.5 70.5t-96.5 193.5q0 124 96.5 195t261.5 71q166 0 262.5 -71t96.5 -195q0 -123 -96.5 -193.5t-262.5 -70.5zM370 210q121 0 121 40q0 19 -32 30t-89 11q-56 0 -88 -11t-32 -30q0 -40 120 -40z" />
    <glyph glyph-name="oacute" unicode="&#xf3;" horiz-adv-x="741" 
d="M442 553h-162l114 151h263zM370 -15q-165 0 -261.5 70.5t-96.5 193.5q0 124 96.5 195t261.5 71q166 0 262.5 -71t96.5 -195q0 -123 -96.5 -193.5t-262.5 -70.5zM370 210q121 0 121 40q0 19 -32 30t-89 11q-56 0 -88 -11t-32 -30q0 -40 120 -40z" />
    <glyph glyph-name="ocircumflex" unicode="&#xf4;" horiz-adv-x="741" 
d="M309 552h-208l147 151h246l146 -151h-205l-63 63zM370 -15q-165 0 -261.5 70.5t-96.5 193.5q0 124 96.5 195t261.5 71q166 0 262.5 -71t96.5 -195q0 -123 -96.5 -193.5t-262.5 -70.5zM370 210q121 0 121 40q0 19 -32 30t-89 11q-56 0 -88 -11t-32 -30q0 -40 120 -40z" />
    <glyph glyph-name="otilde" unicode="&#xf5;" horiz-adv-x="741" 
d="M254 568l-110 20q3 68 39.5 106.5t93.5 38.5q38 0 100 -27q48 -22 67 -22q21 0 31.5 10.5t12.5 40.5l110 -19q-4 -74 -39 -109t-94 -35q-47 0 -107 28q-39 19 -63 19q-15 0 -27 -13t-14 -38zM370 -15q-165 0 -261.5 70.5t-96.5 193.5q0 124 96.5 195t261.5 71
q166 0 262.5 -71t96.5 -195q0 -123 -96.5 -193.5t-262.5 -70.5zM370 210q121 0 121 40q0 19 -32 30t-89 11q-56 0 -88 -11t-32 -30q0 -40 120 -40z" />
    <glyph glyph-name="odieresis" unicode="&#xf6;" horiz-adv-x="741" 
d="M249 550q-51 0 -82 25t-31 68q0 44 31 69t82 25q49 0 80.5 -25.5t31.5 -68.5q0 -44 -31 -68.5t-81 -24.5zM494 550q-50 0 -81.5 25t-30.5 68q0 44 31 69t81 25q51 0 81.5 -25.5t30.5 -68.5q0 -44 -30.5 -68.5t-81.5 -24.5zM370 -15q-165 0 -261.5 70.5t-96.5 193.5
q0 124 96.5 195t261.5 71q166 0 262.5 -71t96.5 -195q0 -123 -96.5 -193.5t-262.5 -70.5zM370 210q121 0 121 40q0 19 -32 30t-89 11q-56 0 -88 -11t-32 -30q0 -40 120 -40z" />
    <glyph glyph-name="divide" unicode="&#xf7;" horiz-adv-x="682" 
d="M341 451q-60 1 -97.5 31t-37.5 83t37.5 83.5t97.5 30.5q60 -1 97.5 -31t37.5 -83t-37.5 -83.5t-97.5 -30.5zM653 276h-624v143h624v-143zM341 16q-60 1 -97.5 31t-37.5 83q0 52 37.5 82.5t97.5 30.5q60 -1 97.5 -31t37.5 -82q0 -53 -37.5 -83.5t-97.5 -30.5z" />
    <glyph glyph-name="oslash" unicode="&#xf8;" horiz-adv-x="759" 
d="M676 506l-48 -52q110 -72 110 -205q0 -123 -96.5 -193.5t-262.5 -70.5q-88 0 -163 22l-71 -77l-61 57l52 56q-115 71 -115 206q0 124 96.5 195t261.5 71q95 0 169 -24l66 72zM229 251q0 -35 48 -54l114 124h-11q-68 0 -109.5 -18.5t-41.5 -51.5zM380 182q70 0 110.5 18
t40.5 51t-42 52l-112 -121h3z" />
    <glyph glyph-name="ugrave" unicode="&#xf9;" 
d="M469 553h-162l-215 151h263zM235 -15q-111 0 -164 57t-53 157v301h279l-23 -172q-7 -49 14.5 -76t68.5 -27q44 0 73.5 29.5t25.5 79.5l-13 166h279v-500h-284l14 179h-13q-16 -89 -70.5 -141.5t-133.5 -52.5z" />
    <glyph glyph-name="uacute" unicode="&#xfa;" 
d="M445 553h-162l114 151h263zM235 -15q-111 0 -164 57t-53 157v301h279l-23 -172q-7 -49 14.5 -76t68.5 -27q44 0 73.5 29.5t25.5 79.5l-13 166h279v-500h-284l14 179h-13q-16 -89 -70.5 -141.5t-133.5 -52.5z" />
    <glyph glyph-name="ucircumflex" unicode="&#xfb;" 
d="M312 552h-208l147 151h246l146 -151h-205l-63 63zM235 -15q-111 0 -164 57t-53 157v301h279l-23 -172q-7 -49 14.5 -76t68.5 -27q44 0 73.5 29.5t25.5 79.5l-13 166h279v-500h-284l14 179h-13q-16 -89 -70.5 -141.5t-133.5 -52.5z" />
    <glyph glyph-name="udieresis" unicode="&#xfc;" 
d="M251 550q-51 0 -82 25t-31 68q0 44 31 69t82 25q49 0 80.5 -25.5t31.5 -68.5q0 -44 -31 -68.5t-81 -24.5zM496 550q-50 0 -81.5 25t-30.5 68q0 44 31 69t81 25q51 0 81.5 -25.5t30.5 -68.5q0 -44 -30.5 -68.5t-81.5 -24.5zM235 -15q-111 0 -164 57t-53 157v301h279
l-23 -172q-7 -49 14.5 -76t68.5 -27q44 0 73.5 29.5t25.5 79.5l-13 166h279v-500h-284l14 179h-13q-16 -89 -70.5 -141.5t-133.5 -52.5z" />
    <glyph glyph-name="yacute" unicode="&#xfd;" horiz-adv-x="835" 
d="M489 553h-162l114 151h263zM203 -215q-48 0 -155 11l6 228q102 -30 174 -30q54 0 83 6t36 27l6 18h-123l-226 455h362l43 -255h18l38 255h366l-250 -565q-5 -12 -9.5 -20.5t-18.5 -26t-30 -29.5t-46 -27t-66 -24.5t-90 -16t-118 -6.5z" />
    <glyph glyph-name="thorn" unicode="&#xfe;" horiz-adv-x="820" 
d="M338 -200h-294v900h320l-64 -352h14q16 77 83 122t153 45q111 0 179.5 -73.5t68.5 -191.5t-68.5 -191.5t-179.5 -73.5q-89 0 -155.5 48t-80.5 133h-15zM430 218q123 0 123 34t-123 34q-127 0 -127 -34t127 -34z" />
    <glyph glyph-name="ydieresis" unicode="&#xff;" horiz-adv-x="835" 
d="M296 550q-51 0 -82 25t-31 68q0 44 31 69t82 25q49 0 80.5 -25.5t31.5 -68.5q0 -44 -31 -68.5t-81 -24.5zM541 550q-50 0 -81.5 25t-30.5 68q0 44 31 69t81 25q51 0 81.5 -25.5t30.5 -68.5q0 -44 -30.5 -68.5t-81.5 -24.5zM203 -215q-48 0 -155 11l6 228q102 -30 174 -30
q54 0 83 6t36 27l6 18h-123l-226 455h362l43 -255h18l38 255h366l-250 -565q-5 -12 -9.5 -20.5t-18.5 -26t-30 -29.5t-46 -27t-66 -24.5t-90 -16t-118 -6.5z" />
    <glyph glyph-name="Amacron" unicode="&#x100;" horiz-adv-x="985" 
d="M726 756h-466v136h466v-136zM325 700h335l337 -700h-403l-28 137h-147l-28 -137h-403zM542 223l-40 201h-19l-41 -201h100z" />
    <glyph glyph-name="amacron" unicode="&#x101;" horiz-adv-x="776" 
d="M628 556h-466v136h466v-136zM235 -15q-223 0 -223 155q0 73 62.5 113.5t173.5 40.5q75 0 123 -22.5t59 -55.5h17v13q0 38 -58.5 66t-141.5 28q-101 0 -198 -41v193q133 40 269 40q124 0 218.5 -29t143 -85.5t33.5 -130.5l-11 -53h68v-217h-340l21 125h-20
q-1 -62 -63.5 -101t-132.5 -39zM361 147q89 0 89 28t-89 28q-88 0 -88 -28t88 -28z" />
    <glyph glyph-name="Abreve" unicode="&#x102;" horiz-adv-x="985" 
d="M492 748q-86 0 -145 49t-59 119h132q0 -25 21 -42t51 -17q31 0 52 17t22 42h131q-1 -70 -59.5 -119t-145.5 -49zM566 137h-147l-28 -137h-403l337 700h335l337 -700h-403zM542 223l-40 201h-19l-41 -201h100z" />
    <glyph glyph-name="abreve" unicode="&#x103;" horiz-adv-x="776" 
d="M395 548q-86 0 -145 49t-59 119h132q0 -25 21 -42t51 -17q31 0 52 17t22 42h131q-1 -70 -59.5 -119t-145.5 -49zM235 -15q-223 0 -223 155q0 73 62.5 113.5t173.5 40.5q75 0 123 -22.5t59 -55.5h17v13q0 38 -58.5 66t-141.5 28q-101 0 -198 -41v193q133 40 269 40
q124 0 218.5 -29t143 -85.5t33.5 -130.5l-11 -53h68v-217h-340l21 125h-20q-1 -62 -63.5 -101t-132.5 -39zM361 147q89 0 89 28t-89 28q-88 0 -88 -28t88 -28z" />
    <glyph glyph-name="Aogonek" unicode="&#x104;" horiz-adv-x="985" 
d="M888 -158q24 0 62 19l21 -84q-20 -13 -64 -22.5t-81 -9.5q-72 0 -119 31.5t-47 95.5q0 30 20 65.5t54 62.5h-140l-28 137h-147l-28 -137h-403l337 700h335l337 -700h-90q-35 -19 -60.5 -46.5t-25.5 -57.5q0 -23 18 -38.5t49 -15.5zM483 424l-41 -201h100l-40 201h-19z
" />
    <glyph glyph-name="aogonek" unicode="&#x105;" horiz-adv-x="776" 
d="M751 -140l21 -84q-20 -13 -64 -22.5t-81 -9.5q-72 0 -119 31.5t-47 95.5q0 31 20.5 66.5t55.5 62.5h-107l21 125h-20q-1 -62 -63.5 -101t-132.5 -39q-223 0 -223 155q0 73 62.5 113.5t173.5 40.5q75 0 123 -22.5t59 -55.5h17v13q0 38 -58.5 66t-141.5 28q-101 0 -198 -41
v193q133 40 269 40q124 0 218.5 -29t143 -85.5t33.5 -130.5l-11 -53h68v-217h-60q-35 -17 -61.5 -46t-26.5 -59q0 -23 18 -38.5t49 -15.5q24 0 62 19zM361 147q89 0 89 28t-89 28q-88 0 -88 -28t88 -28z" />
    <glyph glyph-name="Cacute" unicode="&#x106;" horiz-adv-x="909" 
d="M526 753h-162l114 151h263zM533 -15q-241 0 -378 89t-137 276q0 96 37.5 167t107 114t162 63.5t210.5 20.5q180 0 333 -42l-18 -311q-50 25 -133.5 43t-162.5 18q-125 0 -188 -16t-63 -55q0 -44 68 -59t209 -15q86 0 167.5 18t133.5 43v-317q-158 -37 -348 -37z" />
    <glyph glyph-name="cacute" unicode="&#x107;" horiz-adv-x="644" 
d="M411 553h-162l114 151h263zM366 -15q-160 0 -257 71.5t-97 194.5q0 121 95 192.5t261 71.5q137 0 241 -23l-16 -231q-90 26 -174 26q-155 0 -155 -33q0 -22 39 -29.5t126 -7.5q114 0 198 39l2 -239q-104 -32 -263 -32z" />
    <glyph glyph-name="Cdotaccent" unicode="&#x10a;" horiz-adv-x="909" 
d="M455 751q-51 0 -82 25t-31 68q0 44 31 69t82 25q50 0 81 -25.5t31 -68.5q0 -44 -31 -68.5t-81 -24.5zM533 -15q-241 0 -378 89t-137 276q0 96 37.5 167t107 114t162 63.5t210.5 20.5q180 0 333 -42l-18 -311q-50 25 -133.5 43t-162.5 18q-125 0 -188 -16t-63 -55
q0 -44 68 -59t209 -15q86 0 167.5 18t133.5 43v-317q-158 -37 -348 -37z" />
    <glyph glyph-name="cdotaccent" unicode="&#x10b;" horiz-adv-x="644" 
d="M340 551q-51 0 -82 25t-31 68q0 44 31 69t82 25q50 0 81 -25.5t31 -68.5q0 -44 -31 -68.5t-81 -24.5zM366 -15q-160 0 -257 71.5t-97 194.5q0 121 95 192.5t261 71.5q137 0 241 -23l-16 -231q-90 26 -174 26q-155 0 -155 -33q0 -22 39 -29.5t126 -7.5q114 0 198 39
l2 -239q-104 -32 -263 -32z" />
    <glyph glyph-name="Ccaron" unicode="&#x10c;" horiz-adv-x="909" 
d="M578 752h-246l-147 151h207l64 -62l62 62h206zM533 -15q-241 0 -378 89t-137 276q0 96 37.5 167t107 114t162 63.5t210.5 20.5q180 0 333 -42l-18 -311q-50 25 -133.5 43t-162.5 18q-125 0 -188 -16t-63 -55q0 -44 68 -59t209 -15q86 0 167.5 18t133.5 43v-317
q-158 -37 -348 -37z" />
    <glyph glyph-name="ccaron" unicode="&#x10d;" horiz-adv-x="644" 
d="M463 552h-246l-147 151h207l64 -62l62 62h206zM366 -15q-160 0 -257 71.5t-97 194.5q0 121 95 192.5t261 71.5q137 0 241 -23l-16 -231q-90 26 -174 26q-155 0 -155 -33q0 -22 39 -29.5t126 -7.5q114 0 198 39l2 -239q-104 -32 -263 -32z" />
    <glyph glyph-name="Dcaron" unicode="&#x10e;" horiz-adv-x="933" 
d="M565 752h-246l-147 151h207l64 -62l62 62h206zM449 0h-421v700h421q216 0 341 -91.5t125 -258.5q0 -166 -125 -258t-341 -92zM477 414h-161v-127h161q68 0 106.5 16.5t38.5 46.5q0 31 -38 47.5t-107 16.5z" />
    <glyph glyph-name="dcaron" unicode="&#x10f;" horiz-adv-x="1035" 
d="M883 521l-60 70q25 11 49 30.5t29 33.5q-16 -4 -26 -4q-42 0 -71.5 28.5t-29.5 74.5q0 48 34 76.5t88 28.5t88 -33.5t34 -90.5q0 -72 -40 -130.5t-95 -83.5zM259 -15q-111 0 -179 74t-68 191t68 191t179 74q89 0 156 -48t81 -133h14l-39 366h295v-700h-283l27 152h-15
q-15 -77 -82 -122t-154 -45zM379 214q128 0 128 34t-128 34q-122 0 -122 -34t122 -34z" />
    <glyph glyph-name="Dcroat" unicode="&#x110;" horiz-adv-x="1008" 
d="M525 0h-422v322h-104v59h104v319h422q216 0 340.5 -91.5t124.5 -258.5q0 -166 -124.5 -258t-340.5 -92zM391 322v-35h161q68 0 106.5 16.5t38.5 46.5q0 31 -38 47.5t-107 16.5h-161v-33h157v-59h-157z" />
    <glyph glyph-name="dcroat" unicode="&#x111;" horiz-adv-x="838" 
d="M269 -15q-111 0 -179 74t-68 191t68 191t179 74q89 0 156 -48t81 -133h14l-23 195h-112v72h104l-8 99h295v-99h62v-72h-62v-529h-283l27 152h-15q-15 -77 -82 -122t-154 -45zM389 214q128 0 128 34t-128 34q-122 0 -122 -34t122 -34z" />
    <glyph glyph-name="Emacron" unicode="&#x112;" horiz-adv-x="855" 
d="M648 756h-466v136h466v-136zM311 436v-47l376 10v-92l-376 10v-51l523 26v-292h-806v700h779v-274z" />
    <glyph glyph-name="emacron" unicode="&#x113;" horiz-adv-x="708" 
d="M588 556h-466v136h466v-136zM385 -15q-177 0 -275 70.5t-98 195.5q0 126 96 195t251 69q159 0 248 -68.5t89 -179.5q0 -22 -7 -38h-434q1 -18 49 -30.5t119 -12.5q140 0 237 35l2 -195q-114 -41 -277 -41zM257 267h210q-4 26 -33.5 41.5t-71.5 15.5q-87 0 -105 -57z" />
    <glyph glyph-name="Edotaccent" unicode="&#x116;" horiz-adv-x="855" 
d="M416 751q-51 0 -82 25t-31 68q0 44 31 69t82 25q50 0 81 -25.5t31 -68.5q0 -44 -31 -68.5t-81 -24.5zM687 399v-92l-376 10v-51l523 26v-292h-806v700h779v-274l-496 10v-47z" />
    <glyph glyph-name="edotaccent" unicode="&#x117;" horiz-adv-x="708" 
d="M356 551q-51 0 -82 25t-31 68q0 44 31 69t82 25q50 0 81 -25.5t31 -68.5q0 -44 -31 -68.5t-81 -24.5zM385 -15q-177 0 -275 70.5t-98 195.5q0 126 96 195t251 69q159 0 248 -68.5t89 -179.5q0 -22 -7 -38h-434q1 -18 49 -30.5t119 -12.5q140 0 237 35l2 -195
q-114 -41 -277 -41zM257 267h210q-4 26 -33.5 41.5t-71.5 15.5q-87 0 -105 -57z" />
    <glyph glyph-name="Eogonek" unicode="&#x118;" horiz-adv-x="855" 
d="M873 -141l21 -84q-20 -13 -64 -22.5t-81 -9.5q-72 0 -119 31.5t-47 95.5q0 31 20.5 66.5t56.5 63.5h-632v700h779v-274l-496 10v-47l376 10v-92l-376 10v-51l523 26v-292q-35 -18 -62.5 -46.5t-27.5 -59.5q0 -23 18 -38.5t49 -15.5q24 0 62 19z" />
    <glyph glyph-name="eogonek" unicode="&#x119;" horiz-adv-x="708" 
d="M696 267q0 -22 -7 -38h-434q1 -18 49 -30.5t119 -12.5q140 0 237 35l2 -195q-71 -25 -178 -36q-69 -43 -69 -94q0 -23 18 -38.5t49 -15.5q24 0 62 19l21 -84q-20 -13 -64 -22.5t-81 -9.5q-72 0 -119 31.5t-47 95.5q0 58 61 116q-145 13 -224 82.5t-79 180.5q0 126 96 195
t251 69q159 0 248 -68.5t89 -179.5zM257 267h210q-4 26 -33.5 41.5t-71.5 15.5q-87 0 -105 -57z" />
    <glyph glyph-name="Ecaron" unicode="&#x11a;" horiz-adv-x="855" 
d="M538 752h-246l-147 151h207l64 -62l62 62h206zM311 266l523 26v-292h-806v700h779v-274l-496 10v-47l376 10v-92l-376 10v-51z" />
    <glyph glyph-name="ecaron" unicode="&#x11b;" horiz-adv-x="708" 
d="M478 552h-246l-147 151h207l64 -62l62 62h206zM385 -15q-177 0 -275 70.5t-98 195.5q0 126 96 195t251 69q159 0 248 -68.5t89 -179.5q0 -22 -7 -38h-434q1 -18 49 -30.5t119 -12.5q140 0 237 35l2 -195q-114 -41 -277 -41zM257 267h210q-4 26 -33.5 41.5t-71.5 15.5
q-87 0 -105 -57z" />
    <glyph glyph-name="Gbreve" unicode="&#x11e;" horiz-adv-x="1031" 
d="M522 748q-86 0 -145 49t-59 119h132q0 -25 21 -42t51 -17q31 0 52 17t22 42h131q-1 -70 -59.5 -119t-145.5 -49zM413 -15q-185 0 -290 94.5t-105 269.5q0 177 135 271.5t363 94.5q188 0 341 -27l-29 -268q-149 24 -297 24q-110 0 -171 -23.5t-61 -67.5q0 -91 188 -91
q61 0 100 13t40 31l-215 3v98h616v-117h-55l4 -290h-290l61 286h-21q-25 -165 -102.5 -233t-211.5 -68z" />
    <glyph glyph-name="gbreve" unicode="&#x11f;" horiz-adv-x="785" 
d="M385 548q-86 0 -145 49t-59 119h132q0 -25 21 -42t51 -17q31 0 52 17t22 42h131q-1 -70 -59.5 -119t-145.5 -49zM187 -215q-71 0 -125 36.5t-71.5 94.5t8.5 130l57 142l157 -32l4 11q-214 36 -214 162q0 86 97.5 136t260.5 50q185 0 417 -15v-240l-156 130l-6 -8
q51 -40 51 -98q0 -67 -80.5 -104t-225.5 -37h-88l-21 -35q-16 -31 -3.5 -49t42.5 -18q34 0 76 23t92.5 46t106.5 23q54 0 94 -10t69.5 -34t42 -61.5t8.5 -95t-27 -132.5h-267q11 22 15 43.5t-4 37.5t-30 16q-24 0 -52 -17.5t-52 -38.5t-71 -38.5t-105 -17.5zM360 207
q49 0 78 10.5t29 29.5t-29.5 30.5t-77.5 11.5t-77.5 -11.5t-29.5 -30.5q0 -18 29.5 -29t77.5 -11z" />
    <glyph glyph-name="Gdotaccent" unicode="&#x120;" horiz-adv-x="1031" 
d="M523 751q-51 0 -82 25t-31 68q0 44 31 69t82 25q50 0 81 -25.5t31 -68.5q0 -44 -31 -68.5t-81 -24.5zM413 -15q-185 0 -290 94.5t-105 269.5q0 177 135 271.5t363 94.5q188 0 341 -27l-29 -268q-149 24 -297 24q-110 0 -171 -23.5t-61 -67.5q0 -91 188 -91q61 0 100 13
t40 31l-215 3v98h616v-117h-55l4 -290h-290l61 286h-21q-25 -165 -102.5 -233t-211.5 -68z" />
    <glyph glyph-name="gdotaccent" unicode="&#x121;" horiz-adv-x="785" 
d="M386 551q-51 0 -82 25t-31 68q0 44 31 69t82 25q50 0 81 -25.5t31 -68.5q0 -44 -31 -68.5t-81 -24.5zM187 -215q-71 0 -125 36.5t-71.5 94.5t8.5 130l57 142l157 -32l4 11q-214 36 -214 162q0 86 97.5 136t260.5 50q185 0 417 -15v-240l-156 130l-6 -8q51 -40 51 -98
q0 -67 -80.5 -104t-225.5 -37h-88l-21 -35q-16 -31 -3.5 -49t42.5 -18q34 0 76 23t92.5 46t106.5 23q54 0 94 -10t69.5 -34t42 -61.5t8.5 -95t-27 -132.5h-267q11 22 15 43.5t-4 37.5t-30 16q-24 0 -52 -17.5t-52 -38.5t-71 -38.5t-105 -17.5zM360 207q49 0 78 10.5t29 29.5
t-29.5 30.5t-77.5 11.5t-77.5 -11.5t-29.5 -30.5q0 -18 29.5 -29t77.5 -11z" />
    <glyph glyph-name="uni0122" unicode="&#x122;" horiz-adv-x="1031" 
d="M413 -15q-185 0 -290 94.5t-105 269.5q0 177 135 271.5t363 94.5q188 0 341 -27l-29 -268q-149 24 -297 24q-110 0 -171 -23.5t-61 -67.5q0 -91 188 -91q61 0 100 13t40 31l-215 3v98h616v-117h-55l4 -290h-290l61 286h-21q-25 -165 -102.5 -233t-211.5 -68zM396 -432
l-67 80q27 13 54.5 34.5t33.5 37.5q-17 -5 -29 -5q-48 0 -82 32.5t-34 85.5q0 56 39 88t100 32q63 0 102 -37.5t39 -103.5q-1 -83 -46.5 -149.5t-109.5 -94.5z" />
    <glyph glyph-name="uni0123" unicode="&#x123;" horiz-adv-x="785" 
d="M386 545q-63 0 -102 38t-39 103q1 83 46.5 149.5t109.5 94.5l67 -80q-27 -13 -54.5 -34.5t-33.5 -37.5q17 5 29 5q49 0 82.5 -32.5t33.5 -85.5q0 -55 -39 -87.5t-100 -32.5zM187 -215q-71 0 -125 36.5t-71.5 94.5t8.5 130l57 142l157 -32l4 11q-214 36 -214 162
q0 86 97.5 136t260.5 50q185 0 417 -15v-240l-156 130l-6 -8q51 -40 51 -98q0 -67 -80.5 -104t-225.5 -37h-88l-21 -35q-16 -31 -3.5 -49t42.5 -18q34 0 76 23t92.5 46t106.5 23q54 0 94 -10t69.5 -34t42 -61.5t8.5 -95t-27 -132.5h-267q11 22 15 43.5t-4 37.5t-30 16
q-24 0 -52 -17.5t-52 -38.5t-71 -38.5t-105 -17.5zM360 207q49 0 78 10.5t29 29.5t-29.5 30.5t-77.5 11.5t-77.5 -11.5t-29.5 -30.5q0 -18 29.5 -29t77.5 -11z" />
    <glyph glyph-name="Hbar" unicode="&#x126;" horiz-adv-x="1040" 
d="M394 0h-316v528h-78v71h78v101h316l-11 -101h274l-11 101h315v-101h79v-71h-79v-528h-315l28 266h-308zM375 528l-9 -85h308l-9 85h-290z" />
    <glyph glyph-name="hbar" unicode="&#x127;" horiz-adv-x="792" 
d="M544 515q110 0 162.5 -57.5t52.5 -156.5v-301h-279l22 165q7 48 -14 79t-67 31q-45 0 -74 -30.5t-25 -78.5l12 -166h-271v529h-62v72h62v99h294l-8 -99h105v-72h-111l-18 -208h13q16 89 70.5 141.5t135.5 52.5z" />
    <glyph glyph-name="Imacron" unicode="&#x12a;" horiz-adv-x="793" 
d="M614 756h-466v136h466v-136zM20 700h753v-298l-243 18l1 -140l242 18v-298h-753v298l243 -18l1 140l-244 -18v298z" />
    <glyph glyph-name="imacron" unicode="&#x12b;" horiz-adv-x="419" 
d="M440 556h-466v136h466v-136zM369 0h-263v267h-94v233h357v-500z" />
    <glyph glyph-name="Iogonek" unicode="&#x12e;" horiz-adv-x="793" 
d="M20 700h753v-298l-243 18l1 -140l242 18v-298h-321q-35 -17 -61.5 -46t-26.5 -59q0 -23 18 -38.5t49 -15.5q24 0 62 19l21 -84q-20 -13 -64 -22.5t-81 -9.5q-72 0 -119 31.5t-47 95.5q0 31 20.5 66.5t55.5 62.5h-259v298l243 -18l1 140l-244 -18v298z" />
    <glyph glyph-name="iogonek" unicode="&#x12f;" horiz-adv-x="419" 
d="M207 551q-51 0 -82 25t-31 68q0 44 31 69t82 25q50 0 81 -25.5t31 -68.5q0 -44 -31 -68.5t-81 -24.5zM368 -140l21 -84q-20 -13 -64 -22.5t-81 -9.5q-72 0 -119 31.5t-47 95.5q0 31 20.5 66.5t55.5 62.5h-48v267h-94v233h357v-500h-42q-35 -17 -61.5 -46t-26.5 -59
q0 -23 18 -38.5t49 -15.5q24 0 62 19z" />
    <glyph glyph-name="Idotaccent" unicode="&#x130;" horiz-adv-x="793" 
d="M381 751q-51 0 -82 25t-31 68q0 44 31 69t82 25q50 0 81 -25.5t31 -68.5q0 -44 -31 -68.5t-81 -24.5zM773 402l-243 18l1 -140l242 18v-298h-753v298l243 -18l1 140l-244 -18v298h753v-298z" />
    <glyph glyph-name="dotlessi" unicode="&#x131;" horiz-adv-x="419" 
d="M369 500v-500h-263v267h-94v233h357z" />
    <glyph glyph-name="uni0136" unicode="&#x136;" horiz-adv-x="903" 
d="M326 159l29 -159h-327v700h314l-34 -342h17l93 342h473l-483 -330l13 -18q83 78 170 78q156 0 234.5 -119.5t52.5 -310.5h-354q18 84 20 153.5t-28.5 114.5t-90.5 45q-61 0 -86.5 -45t-12.5 -109zM409 -432l-67 80q27 13 54.5 34.5t33.5 37.5q-17 -5 -29 -5
q-48 0 -82 32.5t-34 85.5q0 56 39 88t100 32q63 0 102 -37.5t39 -103.5q-1 -83 -46.5 -149.5t-109.5 -94.5z" />
    <glyph glyph-name="uni0137" unicode="&#x137;" horiz-adv-x="767" 
d="M289 113l17 -113h-284v700h293l-47 -438h10l75 238h404l-407 -235l7 -11q67 55 147 55q129 0 193 -85t68 -224h-295q6 38 3 78t-13 73.5t-35 54.5t-62 20q-42 -1 -62 -32t-12 -81zM374 -432l-67 80q27 13 54.5 34.5t33.5 37.5q-17 -5 -29 -5q-48 0 -82 32.5t-34 85.5
q0 56 39 88t100 32q63 0 102 -37.5t39 -103.5q-1 -83 -46.5 -149.5t-109.5 -94.5z" />
    <glyph glyph-name="Lacute" unicode="&#x139;" horiz-adv-x="815" 
d="M251 753h-162l114 151h263zM797 316v-316h-769v700h308l-28 -402z" />
    <glyph glyph-name="lacute" unicode="&#x13a;" horiz-adv-x="410" 
d="M241 753h-162l114 151h263zM404 233v-233h-382v700h293l-37 -467h126z" />
    <glyph glyph-name="uni013B" unicode="&#x13b;" horiz-adv-x="815" 
d="M308 298l489 18v-316h-769v700h308zM382 -432l-67 80q27 13 54.5 34.5t33.5 37.5q-17 -5 -29 -5q-48 0 -82 32.5t-34 85.5q0 56 39 88t100 32q63 0 102 -37.5t39 -103.5q-1 -83 -46.5 -149.5t-109.5 -94.5z" />
    <glyph glyph-name="uni013C" unicode="&#x13c;" horiz-adv-x="410" 
d="M278 233h126v-233h-382v700h293zM198 -432l-67 80q27 13 54.5 34.5t33.5 37.5q-17 -5 -29 -5q-48 0 -82 32.5t-34 85.5q0 56 39 88t100 32q63 0 102 -37.5t39 -103.5q-1 -83 -46.5 -149.5t-109.5 -94.5z" />
    <glyph glyph-name="Lcaron" unicode="&#x13d;" horiz-adv-x="804" 
d="M600 412l-60 69q25 12 49 31.5t29 33.5q-13 -5 -26 -5q-42 0 -71.5 28.5t-29.5 74.5q0 48 34 76.5t88 28.5t88.5 -33t34.5 -90q0 -73 -40 -131.5t-96 -82.5zM797 316v-316h-769v700h308l-28 -402z" />
    <glyph glyph-name="lcaron" unicode="&#x13e;" horiz-adv-x="625" 
d="M474 549l-60 70q25 11 49 30.5t29 33.5q-13 -5 -26 -5q-42 0 -71 28.5t-29 75.5q0 48 33.5 76t87.5 28q55 0 89 -33t34 -90q0 -72 -40 -130.5t-96 -83.5zM404 233v-233h-382v700h293l-37 -467h126z" />
    <glyph glyph-name="Lslash" unicode="&#x141;" horiz-adv-x="858" 
d="M840 0h-769v270l-61 -25l-27 65l88 36v354h292l-7 -238l93 39l26 -64l-121 -51l-3 -104l489 18v-300z" />
    <glyph glyph-name="lslash" unicode="&#x142;" horiz-adv-x="457" 
d="M458 0h-382v272l-67 -27l-27 65l94 39v351h293l-19 -240l88 36l26 -65l-120 -49l-12 -149h126v-233z" />
    <glyph glyph-name="Nacute" unicode="&#x143;" horiz-adv-x="962" 
d="M553 753h-162l114 151h263zM303 353l81 -353h-356v700h264l350 -314l18 6l-68 308h342v-700h-257l-358 358z" />
    <glyph glyph-name="nacute" unicode="&#x144;" 
d="M438 553h-162l114 151h263zM289 166l12 -166h-279v500h284l-14 -179h13q15 88 70 141t134 53q111 0 164 -57t53 -157l-1 -301h-277l22 172q6 47 -15 75t-68 28q-44 0 -73 -29.5t-25 -79.5z" />
    <glyph glyph-name="uni0145" unicode="&#x145;" horiz-adv-x="962" 
d="M677 0l-358 358l-16 -5l81 -353h-356v700h264l350 -314l18 6l-68 308h342v-700h-257zM468 -432l-67 80q27 13 54.5 34.5t33.5 37.5q-17 -5 -29 -5q-48 0 -82 32.5t-34 85.5q0 56 39 88t100 32q63 0 102 -37.5t39 -103.5q-1 -83 -46.5 -149.5t-109.5 -94.5z" />
    <glyph glyph-name="uni0146" unicode="&#x146;" 
d="M289 166l12 -166h-279v500h284l-14 -179h13q15 88 70 141t134 53q111 0 164 -57t53 -157l-1 -301h-277l22 172q6 47 -15 75t-68 28q-44 0 -73 -29.5t-25 -79.5zM352 -432l-67 80q27 13 54.5 34.5t33.5 37.5q-17 -5 -29 -5q-48 0 -82 32.5t-34 85.5q0 56 39 88t100 32
q63 0 102 -37.5t39 -103.5q-1 -83 -46.5 -149.5t-109.5 -94.5z" />
    <glyph glyph-name="Ncaron" unicode="&#x147;" horiz-adv-x="962" 
d="M605 752h-246l-147 151h207l64 -62l62 62h206zM319 358l-16 -5l81 -353h-356v700h264l350 -314l18 6l-68 308h342v-700h-257z" />
    <glyph glyph-name="ncaron" unicode="&#x148;" 
d="M489 552h-246l-147 151h207l64 -62l62 62h206zM289 166l12 -166h-279v500h284l-14 -179h13q15 88 70 141t134 53q111 0 164 -57t53 -157l-1 -301h-277l22 172q6 47 -15 75t-68 28q-44 0 -73 -29.5t-25 -79.5z" />
    <glyph glyph-name="Eng" unicode="&#x14a;" horiz-adv-x="962" 
d="M689 -213q-95 0 -171 22l19 201q49 -13 71 -13q30 0 43.5 11t13.5 39v20l-344 291l-18 -5l49 -353h-324v700h264l348 -314l20 6l-36 308h310v-712q0 -96 -62 -148.5t-183 -52.5z" />
    <glyph glyph-name="eng" unicode="&#x14b;" horiz-adv-x="780" 
d="M503 -213q-95 0 -171 22l19 198q43 -12 71 -12q60 0 60 63v115q0 51 -19 76.5t-62 25.5t-68.5 -29t-21.5 -80l12 -166h-279v500h284l-14 -179h13q15 88 70 141t134 53q111 0 164 -57t53 -157v-296q0 -101 -59 -159.5t-186 -58.5z" />
    <glyph glyph-name="Omacron" unicode="&#x14c;" horiz-adv-x="987" 
d="M727 756h-466v136h466v-136zM494 -15q-216 0 -346 96t-130 269q0 174 129.5 269.5t346.5 95.5q216 0 345.5 -95.5t129.5 -269.5t-129.5 -269.5t-345.5 -95.5zM494 273q87 0 137 20.5t50 56.5t-50 56.5t-137 20.5q-88 0 -137.5 -20.5t-49.5 -56.5t49.5 -56.5t137.5 -20.5z
" />
    <glyph glyph-name="omacron" unicode="&#x14d;" horiz-adv-x="741" 
d="M604 556h-466v136h466v-136zM370 -15q-165 0 -261.5 70.5t-96.5 193.5q0 124 96.5 195t261.5 71q166 0 262.5 -71t96.5 -195q0 -123 -96.5 -193.5t-262.5 -70.5zM370 210q121 0 121 40q0 19 -32 30t-89 11q-56 0 -88 -11t-32 -30q0 -40 120 -40z" />
    <glyph glyph-name="Ohungarumlaut" unicode="&#x150;" horiz-adv-x="987" 
d="M471 753h-201l119 150h206zM721 753h-201l124 150h207zM494 -15q-216 0 -346 96t-130 269q0 174 129.5 269.5t346.5 95.5q216 0 345.5 -95.5t129.5 -269.5t-129.5 -269.5t-345.5 -95.5zM494 273q87 0 137 20.5t50 56.5t-50 56.5t-137 20.5q-88 0 -137.5 -20.5
t-49.5 -56.5t49.5 -56.5t137.5 -20.5z" />
    <glyph glyph-name="ohungarumlaut" unicode="&#x151;" horiz-adv-x="741" 
d="M349 553h-201l119 150h206zM599 553h-201l124 150h207zM370 -15q-165 0 -261.5 70.5t-96.5 193.5q0 124 96.5 195t261.5 71q166 0 262.5 -71t96.5 -195q0 -123 -96.5 -193.5t-262.5 -70.5zM370 210q121 0 121 40q0 19 -32 30t-89 11q-56 0 -88 -11t-32 -30q0 -40 120 -40
z" />
    <glyph glyph-name="OE" unicode="&#x152;" horiz-adv-x="1486" 
d="M488 -15q-215 0 -342.5 94.5t-127.5 270.5t127.5 270.5t342.5 94.5q76 0 156 -15h787v-278l-499 18v-51l392 10v-103l-392 10v-54l527 18l1 -270h-816q-72 -15 -156 -15zM511 276q85 0 134 16v115q-49 16 -134 16q-98 0 -153.5 -19.5t-55.5 -53.5q0 -35 55.5 -54.5
t153.5 -19.5z" />
    <glyph glyph-name="oe" unicode="&#x153;" horiz-adv-x="1206" 
d="M330 -15q-142 0 -225.5 71t-83.5 193q0 124 83.5 195t225.5 71q104 0 178 -37.5t102 -105.5h13q27 69 101.5 106t174.5 37q140 0 217.5 -68t77.5 -180q0 -20 -6 -38h-423q1 -17 61.5 -30t126.5 -13q125 0 209 35l2 -195q-41 -17 -108 -29t-133 -12q-113 0 -192 38
t-107 106h-13q-28 -69 -102 -106.5t-179 -37.5zM759 267h206q-4 26 -32.5 41.5t-70.5 15.5q-85 0 -103 -57zM379 210q52 0 82.5 10.5t30.5 29.5t-30.5 30t-82.5 11q-50 0 -81 -11t-31 -30t30.5 -29.5t81.5 -10.5z" />
    <glyph glyph-name="Racute" unicode="&#x154;" horiz-adv-x="917" 
d="M517 753h-162l114 151h263zM317 252l21 -252h-310v700h495q175 -1 268.5 -49t93.5 -162q0 -99 -91 -141.5t-267 -42.5v-17h88q149 0 227.5 -75t58.5 -213h-359q33 110 9.5 181t-107.5 71h-127zM515 410h-200v-67h200q80 0 80 34q0 33 -80 33z" />
    <glyph glyph-name="racute" unicode="&#x155;" horiz-adv-x="614" 
d="M259 553h-162l114 151h263zM273 133l13 -133h-264v500h269l-14 -179h12q15 87 72.5 140.5t135.5 53.5q66 0 106 -26l-16 -284q-19 29 -59.5 49.5t-82.5 20.5q-87 0 -132 -42t-40 -100z" />
    <glyph glyph-name="uni0156" unicode="&#x156;" horiz-adv-x="917" 
d="M444 252h-127l21 -252h-310v700h495q175 -1 268.5 -49t93.5 -162q0 -99 -91 -141.5t-267 -42.5v-17h88q149 0 227.5 -75t58.5 -213h-359q33 110 9.5 181t-107.5 71zM515 410h-200v-67h200q80 0 80 34q0 33 -80 33zM432 -432l-67 80q27 13 54.5 34.5t33.5 37.5
q-17 -5 -29 -5q-48 0 -82 32.5t-34 85.5q0 56 39 88t100 32q63 0 102 -37.5t39 -103.5q-1 -83 -46.5 -149.5t-109.5 -94.5z" />
    <glyph glyph-name="uni0157" unicode="&#x157;" horiz-adv-x="614" 
d="M273 133l13 -133h-264v500h269l-14 -179h12q15 87 72.5 140.5t135.5 53.5q66 0 106 -26l-16 -284q-19 29 -59.5 49.5t-82.5 20.5q-87 0 -132 -42t-40 -100zM163 -432l-67 80q27 13 54.5 34.5t33.5 37.5q-17 -5 -29 -5q-48 0 -82 32.5t-34 85.5q0 56 39 88t100 32
q63 0 102 -37.5t39 -103.5q-1 -83 -46.5 -149.5t-109.5 -94.5z" />
    <glyph glyph-name="Rcaron" unicode="&#x158;" horiz-adv-x="917" 
d="M569 752h-246l-147 151h207l64 -62l62 62h206zM444 252h-127l21 -252h-310v700h495q175 -1 268.5 -49t93.5 -162q0 -99 -91 -141.5t-267 -42.5v-17h88q149 0 227.5 -75t58.5 -213h-359q33 110 9.5 181t-107.5 71zM515 410h-200v-67h200q80 0 80 34q0 33 -80 33z" />
    <glyph glyph-name="rcaron" unicode="&#x159;" horiz-adv-x="614" 
d="M311 552h-246l-147 151h207l64 -62l62 62h206zM273 133l13 -133h-264v500h269l-14 -179h12q15 87 72.5 140.5t135.5 53.5q66 0 106 -26l-16 -284q-19 29 -59.5 49.5t-82.5 20.5q-87 0 -132 -42t-40 -100z" />
    <glyph glyph-name="Sacute" unicode="&#x15a;" horiz-adv-x="920" 
d="M536 753h-162l114 151h263zM474 -15q-94 0 -237 20.5t-216 46.5l-1 322q69 -59 185.5 -91t260.5 -32q130 0 130 24q0 23 -59 32t-143.5 14t-168.5 17.5t-143 54.5t-59 114q0 208 429 208q95 0 220.5 -18.5t196.5 -48.5l-41 -281q-71 38 -168 61t-196 23q-138 0 -138 -29
q0 -20 42.5 -29.5t106.5 -9.5t138 -7t138 -20t106.5 -50.5t42.5 -96.5q0 -111 -109.5 -167.5t-316.5 -56.5z" />
    <glyph glyph-name="sacute" unicode="&#x15b;" horiz-adv-x="653" 
d="M398 553h-162l114 151h263zM308 -15q-60 0 -152.5 10t-147.5 23v229q62 -24 140 -38.5t136 -14.5q61 0 85 3.5t24 18.5q0 10 -39.5 13.5t-96 7.5t-113.5 14t-96.5 40.5t-39.5 79.5q0 67 84 105.5t240 38.5q132 0 253 -31l2 -209q-94 45 -230 45q-52 0 -74.5 -3.5
t-22.5 -16.5q0 -8 39.5 -11.5t96 -9t113.5 -17.5t96.5 -43t39.5 -79q0 -75 -89 -115t-248 -40z" />
    <glyph glyph-name="Scedilla" unicode="&#x15e;" horiz-adv-x="920" 
d="M900 209q0 -106 -101 -162.5t-294 -61.5l-20 -37q42 14 82.5 -6.5t40.5 -66.5q0 -47 -43 -72.5t-108 -25.5q-90 0 -143 34l22 68q53 -29 114 -29q52 0 52 27q0 16 -22 20t-42 -8l-62 37l29 61q-101 7 -212.5 25.5t-171.5 39.5l-1 322q69 -59 185.5 -91t260.5 -32
q130 0 130 24q0 23 -59 32t-143.5 14t-168.5 17.5t-143 54.5t-59 114q0 208 429 208q95 0 220.5 -18.5t196.5 -48.5l-41 -281q-71 38 -168 61t-196 23q-138 0 -138 -29q0 -20 42.5 -29.5t106.5 -9.5t138 -7t138 -20t106.5 -50.5t42.5 -96.5z" />
    <glyph glyph-name="scedilla" unicode="&#x15f;" horiz-adv-x="653" 
d="M645 140q0 -68 -72.5 -107t-204.5 -46l-21 -39q42 14 82.5 -6.5t40.5 -66.5q0 -47 -43 -72.5t-108 -25.5q-90 0 -143 34l22 68q53 -29 114 -29q52 0 52 27q0 16 -22 20t-42 -8l-62 37l28 60q-148 7 -258 32v229q62 -24 140 -38.5t136 -14.5q61 0 85 3.5t24 18.5
q0 10 -39.5 13.5t-96 7.5t-113.5 14t-96.5 40.5t-39.5 79.5q0 67 84 105.5t240 38.5q132 0 253 -31l2 -209q-94 45 -230 45q-52 0 -74.5 -3.5t-22.5 -16.5q0 -8 39.5 -11.5t96 -9t113.5 -17.5t96.5 -43t39.5 -79z" />
    <glyph glyph-name="Scaron" unicode="&#x160;" horiz-adv-x="920" 
d="M588 752h-246l-147 151h207l64 -62l62 62h206zM474 -15q-94 0 -237 20.5t-216 46.5l-1 322q69 -59 185.5 -91t260.5 -32q130 0 130 24q0 23 -59 32t-143.5 14t-168.5 17.5t-143 54.5t-59 114q0 208 429 208q95 0 220.5 -18.5t196.5 -48.5l-41 -281q-71 38 -168 61
t-196 23q-138 0 -138 -29q0 -20 42.5 -29.5t106.5 -9.5t138 -7t138 -20t106.5 -50.5t42.5 -96.5q0 -111 -109.5 -167.5t-316.5 -56.5z" />
    <glyph glyph-name="scaron" unicode="&#x161;" horiz-adv-x="653" 
d="M450 552h-246l-147 151h207l64 -62l62 62h206zM308 -15q-60 0 -152.5 10t-147.5 23v229q62 -24 140 -38.5t136 -14.5q61 0 85 3.5t24 18.5q0 10 -39.5 13.5t-96 7.5t-113.5 14t-96.5 40.5t-39.5 79.5q0 67 84 105.5t240 38.5q132 0 253 -31l2 -209q-94 45 -230 45
q-52 0 -74.5 -3.5t-22.5 -16.5q0 -8 39.5 -11.5t96 -9t113.5 -17.5t96.5 -43t39.5 -79q0 -75 -89 -115t-248 -40z" />
    <glyph glyph-name="uni0162" unicode="&#x162;" horiz-adv-x="821" 
d="M518 406l56 -406h-111l-28 -52q42 14 82.5 -6.5t40.5 -66.5q0 -47 -43 -72.5t-108 -25.5q-90 0 -143 34l22 68q53 -29 114 -29q52 0 52 27q0 16 -22 20t-42 -8l-62 37l35 74h-114l55 406l-284 -10l1 304h783l1 -304z" />
    <glyph glyph-name="uni0163" unicode="&#x163;" horiz-adv-x="551" 
d="M539 500v-231h-171v-13q0 -38 77 -38q40 0 88 16v-212q-88 -37 -176 -37h-14l-20 -37q42 14 82.5 -6.5t40.5 -66.5q0 -47 -43 -72.5t-108 -25.5q-90 0 -143 34l22 68q53 -29 114 -29q52 0 52 27q0 16 -22 20t-42 -8l-62 37l33 70q-142 31 -142 165v108h-100v231
q106 0 156 49.5t50 135.5h157v-185h171z" />
    <glyph glyph-name="Tcaron" unicode="&#x164;" horiz-adv-x="821" 
d="M534 752h-246l-147 151h207l64 -62l62 62h206zM518 406l56 -406h-327l55 406l-284 -10l1 304h783l1 -304z" />
    <glyph glyph-name="tcaron" unicode="&#x165;" horiz-adv-x="588" 
d="M519 549l-59 70q25 11 49 30.5t28 33.5q-13 -5 -25 -5q-43 0 -72 28.5t-29 75.5q0 48 34 76t87 28q55 0 89 -33t34 -90q0 -72 -40 -130.5t-96 -83.5zM357 -15q-74 0 -125.5 14t-78 40t-37.5 55.5t-11 66.5v108h-100v231q106 0 156 49.5t50 135.5h157v-185h171v-231h-171
v-13q0 -38 77 -38q40 0 88 16v-212q-88 -37 -176 -37z" />
    <glyph glyph-name="Tbar" unicode="&#x166;" horiz-adv-x="821" 
d="M556 0h-291l11 234h-136v84h140l4 88l-266 -10l1 304h783l1 -304l-267 10l4 -88h142v-84h-137z" />
    <glyph glyph-name="tbar" unicode="&#x167;" horiz-adv-x="570" 
d="M542 214l18 -192q-89 -37 -197 -37q-139 0 -195.5 47.5t-56.5 116.5v95h-97v53h97v31h-99v172q105 0 155.5 49.5t50.5 135.5h156v-185h166v-172h-166v-31h168v-53h-168v-13q0 -25 17.5 -33.5t59.5 -8.5q45 0 91 25z" />
    <glyph glyph-name="Umacron" unicode="&#x16a;" horiz-adv-x="908" 
d="M688 756h-466v136h466v-136zM454 -15q-203 0 -315.5 87t-112.5 242v386h309l-22 -257q-6 -66 30 -106.5t111 -40.5t111.5 41t30.5 106l-22 257h308v-386q0 -155 -112 -242t-316 -87z" />
    <glyph glyph-name="umacron" unicode="&#x16b;" 
d="M606 556h-466v136h466v-136zM235 -15q-111 0 -164 57t-53 157v301h279l-23 -172q-7 -49 14.5 -76t68.5 -27q44 0 73.5 29.5t25.5 79.5l-13 166h279v-500h-284l14 179h-13q-16 -89 -70.5 -141.5t-133.5 -52.5z" />
    <glyph glyph-name="Uring" unicode="&#x16e;" horiz-adv-x="908" 
d="M455 744q-78 0 -124 34t-46 93q0 58 46 92.5t124 34.5t124 -34t46 -93t-46 -93t-124 -34zM455 826q21 0 33.5 12t12.5 32t-12.5 32t-33.5 12t-33.5 -12t-12.5 -32t13 -32t33 -12zM454 -15q-203 0 -315.5 87t-112.5 242v386h309l-22 -257q-6 -66 30 -106.5t111 -40.5
t111.5 41t30.5 106l-22 257h308v-386q0 -155 -112 -242t-316 -87z" />
    <glyph glyph-name="uring" unicode="&#x16f;" 
d="M374 544q-78 0 -124 34t-46 93q0 58 46 92.5t124 34.5t124 -34t46 -93t-46 -93t-124 -34zM374 626q21 0 33.5 12t12.5 32t-12.5 32t-33.5 12t-33.5 -12t-12.5 -32t13 -32t33 -12zM235 -15q-111 0 -164 57t-53 157v301h279l-23 -172q-7 -49 14.5 -76t68.5 -27
q44 0 73.5 29.5t25.5 79.5l-13 166h279v-500h-284l14 179h-13q-16 -89 -70.5 -141.5t-133.5 -52.5z" />
    <glyph glyph-name="Uhungarumlaut" unicode="&#x170;" horiz-adv-x="908" 
d="M432 753h-201l119 150h206zM682 753h-201l124 150h207zM454 -15q-203 0 -315.5 87t-112.5 242v386h309l-22 -257q-6 -66 30 -106.5t111 -40.5t111.5 41t30.5 106l-22 257h308v-386q0 -155 -112 -242t-316 -87z" />
    <glyph glyph-name="uhungarumlaut" unicode="&#x171;" 
d="M351 553h-201l119 150h206zM601 553h-201l124 150h207zM235 -15q-111 0 -164 57t-53 157v301h279l-23 -172q-7 -49 14.5 -76t68.5 -27q44 0 73.5 29.5t25.5 79.5l-13 166h279v-500h-284l14 179h-13q-16 -89 -70.5 -141.5t-133.5 -52.5z" />
    <glyph glyph-name="Uogonek" unicode="&#x172;" horiz-adv-x="908" 
d="M596 443l-22 257h308v-386q0 -141 -94 -226.5t-267 -99.5q-62 -43 -62 -90q0 -23 18 -38.5t49 -15.5q24 0 62 19l21 -84q-20 -13 -64 -22.5t-81 -9.5q-72 0 -119 31.5t-47 95.5q0 60 61 116q-160 19 -246.5 103.5t-86.5 220.5v386h309l-22 -257q-6 -66 30 -106.5
t111 -40.5t111.5 41t30.5 106z" />
    <glyph glyph-name="uogonek" unicode="&#x173;" 
d="M723 -141l21 -84q-20 -13 -64 -22.5t-81 -9.5q-72 0 -119 31.5t-47 95.5q0 31 20.5 66.5t56.5 63.5h-72l14 179h-13q-16 -89 -70.5 -141.5t-133.5 -52.5q-111 0 -164 57t-53 157v301h279l-23 -172q-7 -49 14.5 -76t68.5 -27q44 0 73.5 29.5t25.5 79.5l-13 166h279v-500
h-38q-35 -18 -62.5 -46.5t-27.5 -59.5q0 -23 18 -38.5t49 -15.5q24 0 62 19z" />
    <glyph glyph-name="Wcircumflex" unicode="&#x174;" horiz-adv-x="1181" 
d="M530 752h-208l147 151h246l146 -151h-205l-63 63zM600 416h-19l-63 -416h-345l-173 700h382l-2 -419l18 -2l103 380h179l104 -380l17 2l-1 419h381l-172 -700h-346z" />
    <glyph glyph-name="wcircumflex" unicode="&#x175;" horiz-adv-x="1078" 
d="M478 552h-208l147 151h246l146 -151h-205l-63 63zM546 273h-14l-68 -273h-355l-103 500h389l-46 -285l18 -1l110 262h124l110 -262l19 1l-47 285h389l-102 -500h-356z" />
    <glyph glyph-name="Ycircumflex" unicode="&#x176;" horiz-adv-x="947" 
d="M412 752h-208l147 151h246l146 -151h-205l-63 63zM945 700l-346 -435l49 -265h-348l49 265l-347 435h396l66 -272h20l65 272h396z" />
    <glyph glyph-name="ycircumflex" unicode="&#x177;" horiz-adv-x="835" 
d="M356 552h-208l147 151h246l146 -151h-205l-63 63zM203 -215q-48 0 -155 11l6 228q102 -30 174 -30q54 0 83 6t36 27l6 18h-123l-226 455h362l43 -255h18l38 255h366l-250 -565q-5 -12 -9.5 -20.5t-18.5 -26t-30 -29.5t-46 -27t-66 -24.5t-90 -16t-118 -6.5z" />
    <glyph glyph-name="Ydieresis" unicode="&#x178;" horiz-adv-x="947" 
d="M352 750q-51 0 -82 25t-31 68q0 44 31 69t82 25q49 0 80.5 -25.5t31.5 -68.5q0 -44 -31 -68.5t-81 -24.5zM597 750q-50 0 -81.5 25t-30.5 68q0 44 31 69t81 25q51 0 81.5 -25.5t30.5 -68.5q0 -44 -30.5 -68.5t-81.5 -24.5zM549 700h396l-346 -435l49 -265h-348l49 265
l-347 435h396l66 -272h20z" />
    <glyph glyph-name="Zacute" unicode="&#x179;" horiz-adv-x="889" 
d="M542 753h-162l114 151h263zM869 314v-314h-849v218l388 179l-5 17l-367 -37v323h798v-212l-380 -194l4 -16z" />
    <glyph glyph-name="zacute" unicode="&#x17a;" horiz-adv-x="684" 
d="M414 553h-162l114 151h263zM670 220v-220h-655v184l274 97h-274v219h623v-183l-275 -97h307z" />
    <glyph glyph-name="Zdotaccent" unicode="&#x17b;" horiz-adv-x="889" 
d="M471 751q-51 0 -82 25t-31 68q0 44 31 69t82 25q50 0 81 -25.5t31 -68.5q0 -44 -31 -68.5t-81 -24.5zM454 294l4 -16l411 36v-314h-849v218l388 179l-5 17l-367 -37v323h798v-212z" />
    <glyph glyph-name="zdotaccent" unicode="&#x17c;" horiz-adv-x="684" 
d="M343 551q-51 0 -82 25t-31 68q0 44 31 69t82 25q50 0 81 -25.5t31 -68.5q0 -44 -31 -68.5t-81 -24.5zM638 317l-275 -97h307v-220h-655v184l274 97h-274v219h623v-183z" />
    <glyph glyph-name="Zcaron" unicode="&#x17d;" horiz-adv-x="889" 
d="M593 752h-245l-147 151h207l63 -62l63 62h206zM458 278l411 36v-314h-849v218l388 179l-5 17l-367 -37v323h798v-212l-380 -194z" />
    <glyph glyph-name="zcaron" unicode="&#x17e;" horiz-adv-x="684" 
d="M466 552h-246l-147 151h207l64 -62l62 62h206zM363 220h307v-220h-655v184l274 97h-274v219h623v-183z" />
    <glyph glyph-name="florin" unicode="&#x192;" horiz-adv-x="443" 
d="M211 -149h-199l82 392h-46v153h78l25 118q16 77 75.5 124t140.5 47q67 0 109 -28v-171q-24 25 -73 25q-52 0 -62 -45l-15 -70h89v-153h-121z" />
    <glyph glyph-name="uni0218" unicode="&#x218;" horiz-adv-x="920" 
d="M474 -15q-94 0 -237 20.5t-216 46.5l-1 322q69 -59 185.5 -91t260.5 -32q130 0 130 24q0 23 -59 32t-143.5 14t-168.5 17.5t-143 54.5t-59 114q0 208 429 208q95 0 220.5 -18.5t196.5 -48.5l-41 -281q-71 38 -168 61t-196 23q-138 0 -138 -29q0 -20 42.5 -29.5
t106.5 -9.5t138 -7t138 -20t106.5 -50.5t42.5 -96.5q0 -111 -109.5 -167.5t-316.5 -56.5zM447 -432l-67 80q27 13 54.5 34.5t33.5 37.5q-17 -5 -29 -5q-48 0 -82 32.5t-34 85.5q0 56 39 88t100 32q63 0 102 -37.5t39 -103.5q-1 -83 -46.5 -149.5t-109.5 -94.5z" />
    <glyph glyph-name="uni0219" unicode="&#x219;" horiz-adv-x="653" 
d="M308 -15q-60 0 -152.5 10t-147.5 23v229q62 -24 140 -38.5t136 -14.5q61 0 85 3.5t24 18.5q0 10 -39.5 13.5t-96 7.5t-113.5 14t-96.5 40.5t-39.5 79.5q0 67 84 105.5t240 38.5q132 0 253 -31l2 -209q-94 45 -230 45q-52 0 -74.5 -3.5t-22.5 -16.5q0 -8 39.5 -11.5t96 -9
t113.5 -17.5t96.5 -43t39.5 -79q0 -75 -89 -115t-248 -40zM309 -432l-67 80q27 13 54.5 34.5t33.5 37.5q-17 -5 -29 -5q-48 0 -82 32.5t-34 85.5q0 56 39 88t100 32q63 0 102 -37.5t39 -103.5q-1 -83 -46.5 -149.5t-109.5 -94.5z" />
    <glyph glyph-name="uni021A" unicode="&#x21a;" horiz-adv-x="821" 
d="M802 700l1 -304l-285 10l56 -406h-327l55 406l-284 -10l1 304h783zM397 -432l-67 80q27 13 54.5 34.5t33.5 37.5q-17 -5 -29 -5q-48 0 -82 32.5t-34 85.5q0 56 39 88t100 32q63 0 102 -37.5t39 -103.5q-1 -83 -46.5 -149.5t-109.5 -94.5z" />
    <glyph glyph-name="uni021B" unicode="&#x21b;" horiz-adv-x="551" 
d="M357 -15q-74 0 -125.5 14t-78 40t-37.5 55.5t-11 66.5v108h-100v231q106 0 156 49.5t50 135.5h157v-185h171v-231h-171v-13q0 -38 77 -38q40 0 88 16v-212q-88 -37 -176 -37zM286 -432l-67 80q27 13 54.5 34.5t33.5 37.5q-17 -5 -29 -5q-48 0 -82 32.5t-34 85.5
q0 56 39 88t100 32q63 0 102 -37.5t39 -103.5q-1 -83 -46.5 -149.5t-109.5 -94.5z" />
    <glyph glyph-name="uni0237" unicode="&#x237;" horiz-adv-x="459" 
d="M182 -213q-95 0 -171 22l19 204q44 -12 71 -12q30 0 46.5 17t16.5 46v203h-111v233h374v-495q0 -101 -59 -159.5t-186 -58.5z" />
    <glyph glyph-name="gravecomb" unicode="&#x300;" horiz-adv-x="0" 
d="M-10 553h-162l-215 151h263z" />
    <glyph glyph-name="acutecomb" unicode="&#x301;" horiz-adv-x="0" 
d="M-225 553h-162l114 151h263z" />
    <glyph glyph-name="uni0302" unicode="&#x302;" horiz-adv-x="0" 
d="M-341 552h-208l147 151h246l146 -151h-205l-63 63z" />
    <glyph glyph-name="tildecomb" unicode="&#x303;" horiz-adv-x="0" 
d="M-354 568l-110 20q3 68 39.5 106.5t93.5 38.5q38 0 100 -27q48 -22 67 -22q21 0 31.5 10.5t12.5 40.5l110 -19q-4 -74 -39 -109t-94 -35q-47 0 -107 28q-39 19 -63 19q-15 0 -27 -13t-14 -38z" />
    <glyph glyph-name="uni0304" unicode="&#x304;" horiz-adv-x="0" 
d="M-10 556h-466v136h466v-136z" />
    <glyph glyph-name="uni0306" unicode="&#x306;" horiz-adv-x="0" 
d="M-215 548q-86 0 -145 49t-59 119h132q0 -25 21 -42t51 -17q31 0 52 17t22 42h131q-1 -70 -59.5 -119t-145.5 -49z" />
    <glyph glyph-name="uni0307" unicode="&#x307;" horiz-adv-x="0" 
d="M-122 551q-51 0 -82 25t-31 68q0 44 31 69t82 25q50 0 81 -25.5t31 -68.5q0 -44 -31 -68.5t-81 -24.5z" />
    <glyph glyph-name="uni0308" unicode="&#x308;" horiz-adv-x="0" 
d="M-388 550q-51 0 -82 25t-31 68q0 44 31 69t82 25q49 0 80.5 -25.5t31.5 -68.5q0 -44 -31 -68.5t-81 -24.5zM-143 550q-50 0 -81.5 25t-30.5 68q0 44 31 69t81 25q51 0 81.5 -25.5t30.5 -68.5q0 -44 -30.5 -68.5t-81.5 -24.5z" />
    <glyph glyph-name="uni030A" unicode="&#x30a;" horiz-adv-x="0" 
d="M-180 544q-78 0 -124 34t-46 93q0 58 46 92.5t124 34.5t124 -34t46 -93t-46 -93t-124 -34zM-180 626q21 0 33.5 12t12.5 32t-12.5 32t-33.5 12t-33.5 -12t-12.5 -32t13 -32t33 -12z" />
    <glyph glyph-name="uni030B" unicode="&#x30b;" horiz-adv-x="0" 
d="M-410 553h-201l119 150h206zM-160 553h-201l124 150h207z" />
    <glyph glyph-name="uni030C" unicode="&#x30c;" horiz-adv-x="0" 
d="M-156 552h-246l-147 151h207l64 -62l62 62h206z" />
    <glyph glyph-name="uni0312" unicode="&#x312;" horiz-adv-x="0" 
d="M-149 545q-63 0 -102 38t-39 103q1 83 46.5 149.5t109.5 94.5l67 -80q-27 -13 -54.5 -34.5t-33.5 -37.5q17 5 29 5q49 0 82.5 -32.5t33.5 -85.5q0 -55 -39 -87.5t-100 -32.5z" />
    <glyph glyph-name="uni0326" unicode="&#x326;" horiz-adv-x="0" 
d="M-166 -432l-67 80q27 13 54.5 34.5t33.5 37.5q-17 -5 -29 -5q-48 0 -82 32.5t-34 85.5q0 56 39 88t100 32q63 0 102 -37.5t39 -103.5q-1 -83 -46.5 -149.5t-109.5 -94.5z" />
    <glyph glyph-name="uni0327" unicode="&#x327;" horiz-adv-x="0" 
d="M-161 -223q-90 0 -143 34l22 68q53 -29 114 -29q52 0 52 27q0 16 -22 20t-42 -8l-62 37l39 83h103l-33 -61q42 14 82.5 -6.5t40.5 -66.5q0 -47 -43 -72.5t-108 -25.5z" />
    <glyph glyph-name="uni0328" unicode="&#x328;" horiz-adv-x="0" 
d="M-155 -257q-72 0 -119 31.5t-47 95.5q0 48 45 100t112 72l94 -42q-35 -18 -62.5 -46.5t-27.5 -59.5q0 -23 18 -38.5t49 -15.5q24 0 62 19l21 -84q-20 -13 -64 -22.5t-81 -9.5z" />
    <glyph glyph-name="uni0374" unicode="&#x374;" horiz-adv-x="362" 
d="M159 554h-141l45 175h228z" />
    <glyph glyph-name="uni0375" unicode="&#x375;" horiz-adv-x="362" 
d="M159 -189h-141l45 176h228z" />
    <glyph glyph-name="uni037E" unicode="&#x37e;" horiz-adv-x="364" 
d="M184 321q-62 0 -101 32.5t-39 88.5t39 88t101 32t101 -32t39 -89q0 -56 -39 -88t-101 -32zM169 -158l-67 80q27 13 54.5 34.5t33.5 36.5q-20 -4 -29 -4q-49 0 -82.5 32t-33.5 85q0 56 39 88t100 32q63 0 102 -38t39 -102q-1 -83 -46.5 -149.5t-109.5 -94.5z" />
    <glyph glyph-name="anoteleia" unicode="&#x387;" horiz-adv-x="343" 
d="M172 228q-62 0 -102.5 38.5t-40.5 96.5t40.5 95.5t102.5 37.5t102 -38t40 -96t-40.5 -96t-101.5 -38z" />
    <glyph glyph-name="Wgrave" unicode="&#x1e80;" horiz-adv-x="1181" 
d="M687 753h-162l-215 151h263zM1009 0h-346l-63 416h-19l-63 -416h-345l-173 700h382l-2 -419l18 -2l103 380h179l104 -380l17 2l-1 419h381z" />
    <glyph glyph-name="wgrave" unicode="&#x1e81;" horiz-adv-x="1078" 
d="M635 553h-162l-215 151h263zM970 0h-356l-68 273h-14l-68 -273h-355l-103 500h389l-46 -285l18 -1l110 262h124l110 -262l19 1l-47 285h389z" />
    <glyph glyph-name="Wacute" unicode="&#x1e82;" horiz-adv-x="1181" 
d="M663 753h-162l114 151h263zM581 416l-63 -416h-345l-173 700h382l-2 -419l18 -2l103 380h179l104 -380l17 2l-1 419h381l-172 -700h-346l-63 416h-19z" />
    <glyph glyph-name="wacute" unicode="&#x1e83;" horiz-adv-x="1078" 
d="M611 553h-162l114 151h263zM532 273l-68 -273h-355l-103 500h389l-46 -285l18 -1l110 262h124l110 -262l19 1l-47 285h389l-102 -500h-356l-68 273h-14z" />
    <glyph glyph-name="Wdieresis" unicode="&#x1e84;" horiz-adv-x="1181" 
d="M469 750q-51 0 -82 25t-31 68q0 44 31 69t82 25q49 0 80.5 -25.5t31.5 -68.5q0 -44 -31 -68.5t-81 -24.5zM714 750q-50 0 -81.5 25t-30.5 68q0 44 31 69t81 25q51 0 81.5 -25.5t30.5 -68.5q0 -44 -30.5 -68.5t-81.5 -24.5zM663 0l-63 416h-19l-63 -416h-345l-173 700h382
l-2 -419l18 -2l103 380h179l104 -380l17 2l-1 419h381l-172 -700h-346z" />
    <glyph glyph-name="wdieresis" unicode="&#x1e85;" horiz-adv-x="1078" 
d="M417 550q-51 0 -82 25t-31 68q0 44 31 69t82 25q49 0 80.5 -25.5t31.5 -68.5q0 -44 -31 -68.5t-81 -24.5zM662 550q-50 0 -81.5 25t-30.5 68q0 44 31 69t81 25q51 0 81.5 -25.5t30.5 -68.5q0 -44 -30.5 -68.5t-81.5 -24.5zM614 0l-68 273h-14l-68 -273h-355l-103 500h389
l-46 -285l18 -1l110 262h124l110 -262l19 1l-47 285h389l-102 -500h-356z" />
    <glyph glyph-name="uni1E9E" unicode="&#x1e9e;" horiz-adv-x="931" 
d="M557 -15q-91 0 -183 19v252q38 -7 106 -7q112 0 112 42q0 18 -28.5 31t-89.5 13h-92v62l173 41v17h-229v-455h-308v700h821v-241l-217 -65v-13q138 0 213.5 -50.5t75.5 -131.5q0 -100 -93 -157t-261 -57z" />
    <glyph glyph-name="Ygrave" unicode="&#x1ef2;" horiz-adv-x="947" 
d="M569 753h-162l-215 151h263zM484 428l65 272h396l-346 -435l49 -265h-348l49 265l-347 435h396l66 -272h20z" />
    <glyph glyph-name="ygrave" unicode="&#x1ef3;" horiz-adv-x="835" 
d="M513 553h-162l-215 151h263zM203 -215q-48 0 -155 11l6 228q102 -30 174 -30q54 0 83 6t36 27l6 18h-123l-226 455h362l43 -255h18l38 255h366l-250 -565q-5 -12 -9.5 -20.5t-18.5 -26t-30 -29.5t-46 -27t-66 -24.5t-90 -16t-118 -6.5z" />
    <glyph glyph-name="endash" unicode="&#x2013;" horiz-adv-x="576" 
d="M546 163h-516v158h516v-158z" />
    <glyph glyph-name="emdash" unicode="&#x2014;" horiz-adv-x="808" 
d="M778 163h-748v158h748v-158z" />
    <glyph glyph-name="uni2015" unicode="&#x2015;" horiz-adv-x="576" 
d="M546 163h-516v158h516v-158z" />
    <glyph glyph-name="quoteleft" unicode="&#x2018;" horiz-adv-x="365" 
d="M181 330q-63 0 -102 38t-39 103q1 83 46.5 149.5t109.5 94.5l67 -80q-27 -13 -54.5 -34.5t-33.5 -37.5q17 5 29 5q49 0 82.5 -32.5t33.5 -85.5q0 -55 -39 -87.5t-100 -32.5z" />
    <glyph glyph-name="quoteright" unicode="&#x2019;" horiz-adv-x="366" 
d="M169 306l-67 80q27 13 54.5 34.5t33.5 37.5q-17 -5 -29 -5q-49 0 -82.5 32.5t-33.5 85.5q0 55 39 87.5t100 32.5q63 0 102 -38t39 -103q-1 -83 -46.5 -149.5t-109.5 -94.5z" />
    <glyph glyph-name="quotesinglbase" unicode="&#x201a;" horiz-adv-x="363" 
d="M168 -159l-67 80q27 13 54.5 34.5t33.5 37.5q-17 -5 -29 -5q-48 0 -82 32.5t-34 85.5q0 55 39 87.5t100 32.5q63 0 102 -38t39 -103q-1 -83 -46.5 -149.5t-109.5 -94.5z" />
    <glyph glyph-name="quotedblleft" unicode="&#x201c;" horiz-adv-x="680" 
d="M181 330q-63 0 -102 38t-39 103q1 83 46.5 149.5t109.5 94.5l67 -80q-27 -13 -54.5 -34.5t-33.5 -37.5q17 5 29 5q48 0 82 -32.5t34 -85.5q0 -55 -39 -87.5t-100 -32.5zM496 330q-63 0 -102 38t-39 103q1 83 46.5 149.5t109.5 94.5l67 -80q-27 -13 -54.5 -34.5
t-33.5 -37.5q17 5 29 5q49 0 82.5 -32.5t33.5 -85.5q0 -55 -39 -87.5t-100 -32.5z" />
    <glyph glyph-name="quotedblright" unicode="&#x201d;" horiz-adv-x="680" 
d="M169 306l-67 80q27 13 54.5 34.5t33.5 37.5q-17 -5 -29 -5q-49 0 -82.5 32.5t-33.5 85.5q0 55 39 87.5t100 32.5q63 0 102 -38t39 -103q-1 -83 -46.5 -149.5t-109.5 -94.5zM484 306l-67 80q27 13 54.5 34.5t33.5 37.5q-17 -5 -29 -5q-49 0 -82.5 32.5t-33.5 85.5
q0 55 39 87.5t100 32.5q63 0 102 -38t39 -103q-1 -83 -46.5 -149.5t-109.5 -94.5z" />
    <glyph glyph-name="quotedblbase" unicode="&#x201e;" horiz-adv-x="678" 
d="M168 -159l-67 80q27 13 54.5 34.5t33.5 37.5q-17 -5 -29 -5q-48 0 -82 32.5t-34 85.5q0 55 39 87.5t100 32.5q63 0 102 -38t39 -103q-1 -83 -46.5 -149.5t-109.5 -94.5zM483 -159l-67 80q27 13 54.5 34.5t33.5 37.5q-17 -5 -29 -5q-48 0 -82 32.5t-34 85.5q0 55 39 87.5
t100 32.5q63 0 102 -38t39 -103q-1 -83 -46.5 -149.5t-109.5 -94.5z" />
    <glyph glyph-name="dagger" unicode="&#x2020;" horiz-adv-x="293" 
d="M189 327h-85l5 192l-89 -4v77l89 -3l-5 88h85l-4 -88l89 3v-77l-89 4z" />
    <glyph glyph-name="daggerdbl" unicode="&#x2021;" horiz-adv-x="293" 
d="M189 180h-85l4 90l-88 -3v77l88 -4v179l-88 -4v77l88 -3l-4 88h85l-4 -88l89 3v-77l-89 4v-179l89 4v-77l-89 3z" />
    <glyph glyph-name="bullet" unicode="&#x2022;" horiz-adv-x="372" 
d="M187 115q-53 0 -90.5 37t-37.5 90t37.5 90.5t90.5 37.5t90.5 -37.5t37.5 -90.5t-37.5 -90t-90.5 -37z" />
    <glyph glyph-name="ellipsis" unicode="&#x2026;" horiz-adv-x="1114" 
d="M185 -10q-62 0 -101 32.5t-39 88.5t39 88t101 32t101 -32t39 -89q0 -56 -39 -88t-101 -32zM558 -10q-62 0 -101 32.5t-39 88.5t39 88t101 32t100.5 -32t38.5 -89q0 -56 -39 -88t-100 -32zM931 -10q-62 0 -101 32t-39 89q0 56 39 88t101 32t100.5 -32.5t38.5 -88.5
t-39 -88t-100 -32z" />
    <glyph glyph-name="perthousand" unicode="&#x2030;" horiz-adv-x="1403" 
d="M223 307q-87 0 -145 57t-58 145q0 89 57.5 145.5t145.5 56.5t145.5 -56.5t57.5 -145.5q0 -88 -58 -145t-145 -57zM413 0h-187l393 700h187zM223 434q29 0 48 21t19 54t-19 54t-48 21t-48.5 -21t-19.5 -54t19.5 -54t48.5 -21zM811 -11q-88 0 -145.5 57t-57.5 145t57.5 145
t145.5 57q87 0 144.5 -57t57.5 -145t-57.5 -145t-144.5 -57zM1264 -11q-88 0 -145.5 57t-57.5 145t57.5 145t145.5 57q87 0 144.5 -57t57.5 -145t-57.5 -145t-144.5 -57zM811 116q29 0 48 21t19 54t-19 54t-48 21q-30 0 -49 -20.5t-19 -54.5q0 -33 19.5 -54t48.5 -21z
M1264 116q29 0 48 21t19 54t-19 54t-48 21q-30 0 -49 -20.5t-19 -54.5q0 -33 19.5 -54t48.5 -21z" />
    <glyph glyph-name="minute" unicode="&#x2032;" horiz-adv-x="300" 
d="M195 428h-154l64 272h153z" />
    <glyph glyph-name="second" unicode="&#x2033;" horiz-adv-x="529" 
d="M195 428h-154l64 272h153zM423 428h-152l63 272h153z" />
    <glyph glyph-name="guilsinglleft" unicode="&#x2039;" horiz-adv-x="434" 
d="M404 77h-201l-173 252l173 251h201l-177 -251z" />
    <glyph glyph-name="guilsinglright" unicode="&#x203a;" horiz-adv-x="434" 
d="M231 77h-201l177 252l-177 251h201l173 -251z" />
    <glyph glyph-name="uni203D" unicode="&#x203d;" horiz-adv-x="686" 
d="M404 268h-223l-22 202h256l-7 -80q48 15 48 63q0 33 -45 55.5t-108 22.5q-64 0 -129.5 -12t-92.5 -21t-40 -15l1 191q116 37 269 37q161 0 259.5 -52t97.5 -143q0 -80 -69 -127t-190 -61zM302 -11q-62 1 -98.5 31.5t-36.5 84.5t37 85t98 31t97.5 -31t36.5 -85t-36.5 -85
t-97.5 -31z" />
    <glyph glyph-name="uni20A8" unicode="&#x20a8;" horiz-adv-x="728" 
d="M680 0h-252l-172 162h-262v174h314q36 0 62.5 13t34.5 36h-411v84h408q-21 48 -110 48h-296v183h717v-174h-119q24 -27 31 -57h88v-84h-94q-1 -68 -43.5 -120t-100.5 -66z" />
    <glyph glyph-name="Euro" unicode="&#x20ac;" horiz-adv-x="961" 
d="M610 -7q-225 0 -354.5 67.5t-163.5 193.5h-142v83h130v41h-130v84h145q37 122 166.5 187.5t350.5 65.5q190 0 301 -33l-1 -211q-28 27 -110.5 46.5t-157.5 19.5q-170 0 -242 -75h315v-84h-354q-5 -24 -1 -41h355v-83h-322q68 -82 249 -82q80 0 168.5 19.5t119.5 48.5
l1 -211q-54 -17 -146.5 -26.5t-176.5 -9.5z" />
    <glyph glyph-name="uni2113" unicode="&#x2113;" horiz-adv-x="467" 
d="M283 -15q-181 0 -181 158v14q-17 -6 -42 -11v100q7 2 21 6.5t21 6.5v278q6 178 185 178q82 0 123 -48t41 -130q0 -117 -42 -190q-39 -72 -130 -123v-26q0 -40 14 -53.5t52 -13.5q28 0 46 3v-137q-43 -12 -108 -12zM279 552v-196q29 35 37 77q9 41 9 117q0 53 -24 53
q-22 0 -22 -51z" />
    <glyph glyph-name="uni2116" unicode="&#x2116;" horiz-adv-x="839" 
d="M478 556q0 69 48 114t121 45t121.5 -45.5t48.5 -114.5q-1 -69 -49 -113.5t-121 -44.5q-74 0 -121.5 44.5t-47.5 114.5zM216 0h-194v700h176l81 -354h9l-26 354h185v-700h-159l-97 430h-11zM588 556q0 -29 16.5 -47t42.5 -18t42.5 18.5t16.5 46.5t-16.5 46t-42.5 18
t-42.5 -18t-16.5 -46zM794 265h-294v91h294v-91z" />
    <glyph glyph-name="uni2117" unicode="&#x2117;" horiz-adv-x="905" 
d="M452 -17q-195 0 -308.5 102.5t-113.5 261.5t114 262.5t309 103.5t308.5 -102.5t113.5 -261.5q0 -160 -114 -263t-309 -103zM452 59q159 0 247.5 82.5t88.5 207.5q0 124 -88 206t-247 82t-247.5 -82.5t-88.5 -207.5t88 -206.5t247 -81.5zM395 168h-136v386h242
q80 0 133.5 -32.5t53.5 -103.5q0 -60 -44.5 -104.5t-137.5 -44.5h-111v-101zM395 451v-82h102q26 0 41 11t15 31q0 40 -55 40h-103z" />
    <glyph glyph-name="trademark" unicode="&#x2122;" horiz-adv-x="552" 
d="M134 447h-65v194h-73v59h211v-59h-73v-194zM314 447h-65v253h83l61 -146l62 146h83v-253h-65v157l-63 -157h-34l-62 157v-157z" />
    <glyph glyph-name="estimated" unicode="&#x212e;" horiz-adv-x="715" 
d="M357 -11q-150 0 -248.5 102t-98.5 259t98.5 259t248.5 102q151 0 249.5 -102t98.5 -259v-16h-549v-207q81 -79 201 -79q142 0 226 106l43 -41q-99 -124 -269 -124zM156 573v-178h403v178q-81 78 -202 78q-120 0 -201 -78z" />
    <glyph glyph-name="minus" unicode="&#x2212;" horiz-adv-x="603" 
d="M595 264h-587v169h587v-169z" />
    <glyph glyph-name="uni2215" unicode="&#x2215;" horiz-adv-x="405" 
d="M159 0h-192l290 700h191z" />
    <glyph glyph-name="uni2219" unicode="&#x2219;" horiz-adv-x="334" 
d="M167 310q-50 0 -86.5 30t-36.5 70t36.5 69t86.5 29t86.5 -29t36.5 -69q0 -41 -36.5 -70.5t-86.5 -29.5z" />
    <glyph glyph-name="infinity" unicode="&#x221e;" horiz-adv-x="985" 
d="M258 123q-108 0 -179 59.5t-71 149.5q0 97 73.5 154t176.5 57q123 0 233 -105q113 105 236 105q107 0 178.5 -60t71.5 -151q0 -96 -73 -152.5t-177 -56.5q-125 0 -236 103q-108 -103 -233 -103zM286 272q25 0 47 10.5t29.5 17.5t33.5 32q-23 23 -33 32.5t-31 19t-46 9.5
q-74 0 -74 -61q0 -60 74 -60zM700 272q72 0 72 60q0 61 -72 61q-8 0 -15.5 -1t-13.5 -2t-13 -4t-11 -4.5t-11 -6.5t-10 -7t-10.5 -8.5t-9.5 -8.5t-10 -9.5t-10 -9.5q25 -24 34.5 -32t32 -18t47.5 -10z" />
    <glyph glyph-name="approxequal" unicode="&#x2248;" horiz-adv-x="661" 
d="M132 370l-89 164q57 72 159 72q49 0 119.5 -20t103.5 -20q67 0 106 41l89 -162q-58 -74 -158 -74q-47 0 -119.5 20t-103.5 20q-54 0 -107 -41zM132 91l-89 164q57 72 159 72q49 0 119.5 -20t103.5 -20q67 0 106 41l89 -162q-58 -74 -158 -74q-47 0 -119.5 20t-103.5 20
q-54 0 -107 -41z" />
    <glyph glyph-name="notequal" unicode="&#x2260;" horiz-adv-x="701" 
d="M252 140l-110 -151l-67 49l72 102h-118v167h242l58 82h-300v164h421l108 149l69 -49l-73 -100h118v-164h-239l-58 -82h297v-167h-420z" />
    <glyph glyph-name="lessequal" unicode="&#x2264;" horiz-adv-x="561" 
d="M532 338v-154l-517 121v178l517 121v-154l-312 -55zM532 0h-517v147h517v-147z" />
    <glyph glyph-name="greaterequal" unicode="&#x2265;" horiz-adv-x="561" 
d="M532 305l-517 -121v154l312 55l-312 57v154l517 -121v-178zM532 0h-517v147h517v-147z" />
    <glyph glyph-name="lozenge" unicode="&#x25ca;" horiz-adv-x="696" 
d="M403 0h-125l-280 350l280 350h125l295 -350zM242 349l98 -123l106 124l-106 129z" />
    <glyph glyph-name="i.loclTRK" horiz-adv-x="419" 
d="M207 551q-51 0 -82 25t-31 68q0 44 31 69t82 25q50 0 81 -25.5t31 -68.5q0 -44 -31 -68.5t-81 -24.5zM106 267h-94v233h357v-500h-263v267z" />
    <glyph glyph-name="a.ss01" horiz-adv-x="788" 
d="M259 -15q-111 0 -179 74t-68 191t68 191t179 74q89 0 156 -48t81 -133h14l-33 166h289v-500h-283l27 152h-15q-15 -77 -82 -122t-154 -45zM379 214q128 0 128 34t-128 34q-122 0 -122 -34t122 -34z" />
    <glyph glyph-name="aacute.ss01" horiz-adv-x="788" 
d="M467 553h-162l114 151h263zM259 -15q-111 0 -179 74t-68 191t68 191t179 74q89 0 156 -48t81 -133h14l-33 166h289v-500h-283l27 152h-15q-15 -77 -82 -122t-154 -45zM379 214q128 0 128 34t-128 34q-122 0 -122 -34t122 -34z" />
    <glyph glyph-name="abreve.ss01" horiz-adv-x="788" 
d="M395 548q-86 0 -145 49t-59 119h132q0 -25 21 -42t51 -17q31 0 52 17t22 42h131q-1 -70 -59.5 -119t-145.5 -49zM259 -15q-111 0 -179 74t-68 191t68 191t179 74q89 0 156 -48t81 -133h14l-33 166h289v-500h-283l27 152h-15q-15 -77 -82 -122t-154 -45zM379 214
q128 0 128 34t-128 34q-122 0 -122 -34t122 -34z" />
    <glyph glyph-name="acircumflex.ss01" horiz-adv-x="788" 
d="M334 552h-208l147 151h246l146 -151h-205l-63 63zM259 -15q-111 0 -179 74t-68 191t68 191t179 74q89 0 156 -48t81 -133h14l-33 166h289v-500h-283l27 152h-15q-15 -77 -82 -122t-154 -45zM379 214q128 0 128 34t-128 34q-122 0 -122 -34t122 -34z" />
    <glyph glyph-name="adieresis.ss01" horiz-adv-x="788" 
d="M273 550q-51 0 -82 25t-31 68q0 44 31 69t82 25q49 0 80.5 -25.5t31.5 -68.5q0 -44 -31 -68.5t-81 -24.5zM518 550q-50 0 -81.5 25t-30.5 68q0 44 31 69t81 25q51 0 81.5 -25.5t30.5 -68.5q0 -44 -30.5 -68.5t-81.5 -24.5zM259 -15q-111 0 -179 74t-68 191t68 191t179 74
q89 0 156 -48t81 -133h14l-33 166h289v-500h-283l27 152h-15q-15 -77 -82 -122t-154 -45zM379 214q128 0 128 34t-128 34q-122 0 -122 -34t122 -34z" />
    <glyph glyph-name="agrave.ss01" horiz-adv-x="788" 
d="M491 553h-162l-215 151h263zM259 -15q-111 0 -179 74t-68 191t68 191t179 74q89 0 156 -48t81 -133h14l-33 166h289v-500h-283l27 152h-15q-15 -77 -82 -122t-154 -45zM379 214q128 0 128 34t-128 34q-122 0 -122 -34t122 -34z" />
    <glyph glyph-name="amacron.ss01" horiz-adv-x="788" 
d="M628 556h-466v136h466v-136zM259 -15q-111 0 -179 74t-68 191t68 191t179 74q89 0 156 -48t81 -133h14l-33 166h289v-500h-283l27 152h-15q-15 -77 -82 -122t-154 -45zM379 214q128 0 128 34t-128 34q-122 0 -122 -34t122 -34z" />
    <glyph glyph-name="aogonek.ss01" horiz-adv-x="788" 
d="M751 -140l21 -84q-20 -13 -64 -22.5t-81 -9.5q-72 0 -119 31.5t-47 95.5q0 31 20.5 66.5t55.5 62.5h-54l27 152h-15q-15 -77 -82 -122t-154 -45q-111 0 -179 74t-68 191t68 191t179 74q89 0 156 -48t81 -133h14l-33 166h289v-500h-56q-35 -17 -61.5 -46t-26.5 -59
q0 -23 18 -38.5t49 -15.5q24 0 62 19zM379 214q128 0 128 34t-128 34q-122 0 -122 -34t122 -34z" />
    <glyph glyph-name="aring.ss01" horiz-adv-x="788" 
d="M396 544q-78 0 -124 34t-46 93q0 58 46 92.5t124 34.5t124 -34t46 -93t-46 -93t-124 -34zM396 626q21 0 33.5 12t12.5 32t-12.5 32t-33.5 12t-33.5 -12t-12.5 -32t13 -32t33 -12zM259 -15q-111 0 -179 74t-68 191t68 191t179 74q89 0 156 -48t81 -133h14l-33 166h289
v-500h-283l27 152h-15q-15 -77 -82 -122t-154 -45zM379 214q128 0 128 34t-128 34q-122 0 -122 -34t122 -34z" />
    <glyph glyph-name="atilde.ss01" horiz-adv-x="788" 
d="M278 568l-110 20q3 68 39.5 106.5t93.5 38.5q38 0 100 -27q48 -22 67 -22q21 0 31.5 10.5t12.5 40.5l110 -19q-4 -74 -39 -109t-94 -35q-47 0 -107 28q-39 19 -63 19q-15 0 -27 -13t-14 -38zM259 -15q-111 0 -179 74t-68 191t68 191t179 74q89 0 156 -48t81 -133h14
l-33 166h289v-500h-283l27 152h-15q-15 -77 -82 -122t-154 -45zM379 214q128 0 128 34t-128 34q-122 0 -122 -34t122 -34z" />
    <glyph glyph-name="g.ss01" horiz-adv-x="788" 
d="M12 259q0 113 68.5 184.5t178.5 71.5q89 0 156 -47.5t81 -129.5h14l-34 162h290v-365q0 -157 -116.5 -253.5t-342.5 -96.5q-119 0 -240 26v199q109 -30 211 -30q86 0 151 42t74 104l6 34h-14q-16 -74 -82.5 -116.5t-153.5 -42.5q-111 0 -179 72t-68 186zM257 248
q0 -34 122 -34q128 0 128 34t-128 34q-122 0 -122 -34z" />
    <glyph glyph-name="gbreve.ss01" horiz-adv-x="788" 
d="M384 548q-86 0 -145 49t-59 119h132q0 -25 21 -42t51 -17q31 0 52 17t22 42h131q-1 -70 -59.5 -119t-145.5 -49zM12 259q0 113 68.5 184.5t178.5 71.5q89 0 156 -47.5t81 -129.5h14l-34 162h290v-365q0 -157 -116.5 -253.5t-342.5 -96.5q-119 0 -240 26v199
q109 -30 211 -30q86 0 151 42t74 104l6 34h-14q-16 -74 -82.5 -116.5t-153.5 -42.5q-111 0 -179 72t-68 186zM257 248q0 -34 122 -34q128 0 128 34t-128 34q-122 0 -122 -34z" />
    <glyph glyph-name="uni0123.ss01" horiz-adv-x="788" 
d="M385 545q-63 0 -102 38t-39 103q1 83 46.5 149.5t109.5 94.5l67 -80q-27 -13 -54.5 -34.5t-33.5 -37.5q17 5 29 5q49 0 82.5 -32.5t33.5 -85.5q0 -55 -39 -87.5t-100 -32.5zM12 259q0 113 68.5 184.5t178.5 71.5q89 0 156 -47.5t81 -129.5h14l-34 162h290v-365
q0 -157 -116.5 -253.5t-342.5 -96.5q-119 0 -240 26v199q109 -30 211 -30q86 0 151 42t74 104l6 34h-14q-16 -74 -82.5 -116.5t-153.5 -42.5q-111 0 -179 72t-68 186zM257 248q0 -34 122 -34q128 0 128 34t-128 34q-122 0 -122 -34z" />
    <glyph glyph-name="gdotaccent.ss01" horiz-adv-x="788" 
d="M385 551q-51 0 -82 25t-31 68q0 44 31 69t82 25q50 0 81 -25.5t31 -68.5q0 -44 -31 -68.5t-81 -24.5zM12 259q0 113 68.5 184.5t178.5 71.5q89 0 156 -47.5t81 -129.5h14l-34 162h290v-365q0 -157 -116.5 -253.5t-342.5 -96.5q-119 0 -240 26v199q109 -30 211 -30
q86 0 151 42t74 104l6 34h-14q-16 -74 -82.5 -116.5t-153.5 -42.5q-111 0 -179 72t-68 186zM257 248q0 -34 122 -34q128 0 128 34t-128 34q-122 0 -122 -34z" />
    <glyph glyph-name="y.ss01" 
d="M263 -215q-119 0 -240 26v199q109 -30 211 -30q91 0 150.5 52.5t65.5 123.5l1 23h-12q-15 -86 -70 -131.5t-134 -45.5q-217 0 -217 197v301h279l-23 -172q-7 -49 14.5 -76t68.5 -27q44 0 73.5 29.5t25.5 79.5l-13 166h279v-365q0 -157 -116.5 -253.5t-342.5 -96.5z" />
    <glyph glyph-name="yacute.ss01" 
d="M439 553h-162l114 151h263zM263 -215q-119 0 -240 26v199q109 -30 211 -30q91 0 150.5 52.5t65.5 123.5l1 23h-12q-15 -86 -70 -131.5t-134 -45.5q-217 0 -217 197v301h279l-23 -172q-7 -49 14.5 -76t68.5 -27q44 0 73.5 29.5t25.5 79.5l-13 166h279v-365
q0 -157 -116.5 -253.5t-342.5 -96.5z" />
    <glyph glyph-name="ycircumflex.ss01" 
d="M306 552h-208l147 151h246l146 -151h-205l-63 63zM263 -215q-119 0 -240 26v199q109 -30 211 -30q91 0 150.5 52.5t65.5 123.5l1 23h-12q-15 -86 -70 -131.5t-134 -45.5q-217 0 -217 197v301h279l-23 -172q-7 -49 14.5 -76t68.5 -27q44 0 73.5 29.5t25.5 79.5l-13 166
h279v-365q0 -157 -116.5 -253.5t-342.5 -96.5z" />
    <glyph glyph-name="ydieresis.ss01" 
d="M245 550q-51 0 -82 25t-31 68q0 44 31 69t82 25q49 0 80.5 -25.5t31.5 -68.5q0 -44 -31 -68.5t-81 -24.5zM490 550q-50 0 -81.5 25t-30.5 68q0 44 31 69t81 25q51 0 81.5 -25.5t30.5 -68.5q0 -44 -30.5 -68.5t-81.5 -24.5zM263 -215q-119 0 -240 26v199q109 -30 211 -30
q91 0 150.5 52.5t65.5 123.5l1 23h-12q-15 -86 -70 -131.5t-134 -45.5q-217 0 -217 197v301h279l-23 -172q-7 -49 14.5 -76t68.5 -27q44 0 73.5 29.5t25.5 79.5l-13 166h279v-365q0 -157 -116.5 -253.5t-342.5 -96.5z" />
    <glyph glyph-name="ygrave.ss01" 
d="M463 553h-162l-215 151h263zM263 -215q-119 0 -240 26v199q109 -30 211 -30q91 0 150.5 52.5t65.5 123.5l1 23h-12q-15 -86 -70 -131.5t-134 -45.5q-217 0 -217 197v301h279l-23 -172q-7 -49 14.5 -76t68.5 -27q44 0 73.5 29.5t25.5 79.5l-13 166h279v-365
q0 -157 -116.5 -253.5t-342.5 -96.5z" />
    <glyph glyph-name="T_h" horiz-adv-x="1458" 
d="M1225 515q110 0 162.5 -57.5t52.5 -156.5v-301h-278l22 165q6 48 -15 79t-66 31t-74 -30.5t-26 -78.5l13 -166h-271v398l-227 8l56 -406h-327l55 406l-284 -10l1 304h1020l-33 -379h13q16 89 71 141.5t135 52.5z" />
    <glyph glyph-name="a_s" horiz-adv-x="1380" 
d="M235 -15q-223 0 -223 155q0 73 62.5 113.5t173.5 40.5q75 0 123 -22.5t59 -55.5h17v13q0 38 -58.5 66t-141.5 28q-101 0 -198 -41v193q133 40 269 40q188 0 293.5 -64t101.5 -181l-9 -270h-274l21 125h-20q-1 -62 -63.5 -101t-132.5 -39zM1035 -15q-60 0 -152.5 10
t-147.5 23v229q62 -24 140 -38.5t136 -14.5q61 0 85 3.5t24 18.5q0 10 -39.5 13.5t-96 7.5t-113.5 14t-96.5 40.5t-39.5 79.5q0 67 84 105.5t239 38.5q133 0 254 -31l1 -209q-92 45 -229 45q-52 0 -74.5 -3.5t-22.5 -16.5q0 -8 39.5 -11.5t96.5 -9t113.5 -17.5t96 -43
t39.5 -79q0 -75 -89 -115t-248 -40zM361 147q89 0 89 28t-89 28q-88 0 -88 -28t88 -28z" />
    <glyph glyph-name="f_f_j" horiz-adv-x="1429" 
d="M1168 -213q-95 0 -171 22l20 168q44 -11 70 -11q30 0 46.5 16.5t16.5 46.5v238l-268 4l12 -271h-274v277h-263l12 -277h-274v277l-89 -8v231l89 -1v45q0 91 69 140.5t189 49.5q81 0 159 -23l-17 -172q-34 12 -70 12t-55 -4.5t-19 -20.5v-27h269v45q0 91 69 140.5
t189 49.5q81 0 159 -23l-17 -172q-32 12 -70 12q-17 0 -27.5 -0.5t-22.5 -3t-18 -7.5t-6 -14v-27l537 1v-495q0 -102 -58.5 -160t-186.5 -58zM1259 528q-67 0 -108 28t-41 75q0 46 40.5 73.5t108.5 27.5t108 -27.5t40 -73.5q0 -47 -40.5 -75t-107.5 -28z" />
    <glyph glyph-name="f_j" horiz-adv-x="904" 
d="M643 -213q-95 0 -171 22l19 168q46 -11 71 -11q30 0 46.5 16.5t16.5 46.5v238l-268 5l12 -272h-274v277l-89 -8v231l89 -1v45q0 91 69 140.5t189 49.5q81 0 159 -23l-17 -172q-34 12 -70 12t-55 -4.5t-19 -20.5v-27l537 1v-495q0 -101 -59 -159.5t-186 -58.5zM734 528
q-68 0 -109 28t-41 75q0 46 41 73.5t109 27.5t108 -27.5t40 -73.5q0 -47 -40.5 -75t-107.5 -28z" />
    <glyph glyph-name="f_t" horiz-adv-x="956" 
d="M762 -15q-74 0 -125.5 14t-78 40t-37.5 55.5t-11 66.5v108h-153l12 -269h-274v277l-89 -8v231h89v44q0 91 69 140.5t189 49.5q81 0 159 -23l-17 -172q-34 12 -70 12t-55 -4.5t-19 -20.5v-26h100q166 0 166 185h156v-185h171v-231h-171v-13q0 -38 77 -38q40 0 88 16
l2 -215q-83 -34 -178 -34z" />
    <glyph glyph-name="l_s" horiz-adv-x="961" 
d="M271 0h-249v700h293zM615 -15q-59 0 -151.5 10t-147.5 23v229q62 -24 140 -38.5t136 -14.5q61 0 84.5 3.5t23.5 18.5q0 10 -39.5 13.5t-96 7.5t-113 14t-96 40.5t-39.5 79.5q0 67 84 105.5t239 38.5q133 0 253 -31l2 -209q-92 45 -229 45q-52 0 -74.5 -3.5t-22.5 -16.5
q0 -8 39.5 -11.5t96 -9t113.5 -17.5t96.5 -43t39.5 -79q0 -75 -89 -115t-249 -40z" />
    <glyph glyph-name="s_t" horiz-adv-x="1153" 
d="M956 -15q-74 0 -125.5 14t-78 40t-37.5 55.5t-11 66.5v108h-91v231q198 0 198 185h156v-185h166v-231h-166v-13q0 -38 77 -38q49 0 97 16l-1 -219q-83 -30 -184 -30zM308 -15q-60 0 -152.5 10t-147.5 23v229q62 -24 140 -38.5t136 -14.5q61 0 85 3.5t24 18.5
q0 10 -39.5 13.5t-96 7.5t-113.5 14t-96.5 40.5t-39.5 79.5q0 67 84 105.5t240 38.5q132 0 253 -31l2 -209q-94 45 -230 45q-52 0 -74.5 -3.5t-22.5 -16.5q0 -8 39.5 -11.5t96 -9t113.5 -17.5t96.5 -43t39.5 -79q0 -75 -89 -115t-248 -40z" />
    <glyph glyph-name="t_f" horiz-adv-x="1010" 
d="M357 -15q-74 0 -125.5 14t-78 40t-37.5 55.5t-11 66.5v108h-100v231q106 0 156 49.5t50 135.5h157v-185h191v44q0 91 69 140.5t189 49.5q81 0 159 -23l-17 -172q-32 12 -70 12q-24 0 -37 -1.5t-25 -9t-12 -22.5v-19l182 1v-231l-176 8l12 -277h-274v269h-191v-13
q0 -38 69 -38q32 0 80 16l16 -212q-90 -37 -176 -37z" />
    <glyph glyph-name="exclamdown.cap" horiz-adv-x="384" 
d="M192 479q-61 0 -97.5 30.5t-36.5 84.5t36.5 85t97.5 31t97.5 -30.5t37.5 -84.5q0 -54 -37 -85t-98 -31zM336 -1h-287l44 431l206 1z" />
    <glyph glyph-name="questiondown.cap" horiz-adv-x="647" 
d="M341 478q-62 0 -98.5 31t-35.5 85q0 54 36.5 85t97.5 31q61 -1 97.5 -31.5t36.5 -84.5t-36.5 -85t-97.5 -31zM362 -12q-162 0 -260 52t-97 142q0 78 54.5 121.5t167.5 61.5l14 66h201l27 -149h-25q-74 0 -117 -9t-57.5 -23t-14.5 -37q0 -25 31 -42.5t81 -17.5
q59 0 123 10.5t97 19.5t41 13v-170q-9 -4 -37 -11.5t-94 -17t-135 -9.5z" />
    <glyph glyph-name="periodcentered.cap" horiz-adv-x="306" 
d="M153 365q-62 0 -101 32.5t-39 88.5t39 88t101 32t101 -32t39 -89q0 -56 -39 -88t-101 -32z" />
    <glyph glyph-name="slash.frac" horiz-adv-x="583" 
d="M236 -1h-236l347 700h236z" />
    <glyph glyph-name="parenleft.cap" horiz-adv-x="423" 
d="M423 113l-89 -147q-145 57 -225 166.5t-80 262.5q0 152 80.5 261.5t224.5 165.5l89 -147q-141 -93 -141 -281t141 -281z" />
    <glyph glyph-name="parenright.cap" horiz-adv-x="422" 
d="M88 -34l-88 147q140 93 140 281t-140 281l89 147q144 -56 224.5 -165.5t80.5 -261.5q0 -153 -80.5 -262.5t-225.5 -166.5z" />
    <glyph glyph-name="braceleft.cap" horiz-adv-x="424" 
d="M424 90v-168q-174 0 -243.5 41t-69.5 145v63q0 56 -31 75t-91 19v142q60 0 91 19t31 75v63q0 105 70 145.5t243 40.5v-168q-62 0 -89.5 -20.5t-27.5 -69.5v-51q0 -39 -26 -68.5t-67 -31.5v-10q41 -1 67 -31t26 -69v-51q0 -50 28 -70t89 -20z" />
    <glyph glyph-name="braceright.cap" horiz-adv-x="424" 
d="M-1 -78v168q61 0 89 20t28 70v51q0 39 26 69t67 31v10q-41 2 -67 31.5t-26 68.5v51q0 49 -27.5 69.5t-89.5 20.5v168q173 0 242.5 -40.5t69.5 -145.5v-63q0 -55 31 -74.5t92 -19.5v-142q-61 0 -92 -19.5t-31 -74.5v-63q0 -104 -69.5 -145t-242.5 -41z" />
    <glyph glyph-name="bracketleft.cap" horiz-adv-x="386" 
d="M388 16h-368v734h368v-179h-125v-376h125v-179z" />
    <glyph glyph-name="bracketright.cap" horiz-adv-x="386" 
d="M366 16h-368v179h125v376h-125v179h368v-734z" />
    <glyph glyph-name="hyphen.cap" horiz-adv-x="520" 
d="M507 293h-494v170h494v-170z" />
    <glyph glyph-name="endash.cap" horiz-adv-x="654" 
d="M641 245h-628v165h628v-165z" />
    <glyph glyph-name="guillemotleft.cap" horiz-adv-x="675" 
d="M387 127h-201l-173 252l173 251h201l-177 -251zM662 127h-201l-173 252l173 251h201l-177 -251z" />
    <glyph glyph-name="guillemotright.cap" horiz-adv-x="675" 
d="M214 127h-201l177 252l-177 251h201l173 -251zM489 127h-201l177 252l-177 251h201l173 -251z" />
    <glyph glyph-name="guilsinglleft.cap" horiz-adv-x="400" 
d="M387 127h-201l-173 252l173 251h201l-177 -251z" />
    <glyph glyph-name="guilsinglright.cap" horiz-adv-x="400" 
d="M214 127h-201l177 252l-177 251h201l173 -251z" />
    <glyph glyph-name="uni0E3F" horiz-adv-x="767" 
d="M449 -102h-187v102h-210v700h210v102h187v-102h33q107 0 173 -51.5t66 -132.5q0 -49 -38.5 -89t-92.5 -48v-10q65 -8 114.5 -58.5t49.5 -113.5q0 -86 -72 -141.5t-183 -55.5h-50v-102zM274 464v-73h149q34 0 55 10.5t21 26.5t-21 26t-55 10h-149zM274 310v-73h185
q33 0 53.5 10t20.5 26q0 17 -20.5 27t-53.5 10h-185z" />
    <glyph glyph-name="percent.oldstyle" horiz-adv-x="1026" 
d="M220 307q-87 0 -145 57t-58 145q0 89 57.5 145.5t145.5 56.5t145.5 -56.5t57.5 -145.5q0 -88 -58 -145t-145 -57zM410 0h-187l393 700h187zM220 434q29 0 48 21t19 54t-19 54t-48 21t-48.5 -21t-19.5 -54t19.5 -54t48.5 -21zM808 -11q-88 0 -145.5 57t-57.5 145t57.5 145
t145.5 57q87 0 144.5 -57t57.5 -145t-57.5 -145t-144.5 -57zM808 116q29 0 48 21t19 54t-19 54t-48 21q-30 0 -49 -20.5t-19 -54.5q0 -33 19.5 -54t48.5 -21z" />
    <glyph glyph-name="registered.alt" horiz-adv-x="903" 
d="M451 -17q-195 0 -308 102.5t-113 261.5t114 262.5t309 103.5q194 0 307 -102.5t113 -261.5q0 -160 -114 -263t-308 -103zM451 59q159 0 247.5 83t88.5 207t-88 206t-246 82q-159 0 -247.5 -82.5t-88.5 -207.5t88 -206.5t246 -81.5zM391 168h-136v386h241
q88 0 137.5 -34.5t49.5 -101.5q0 -81 -81 -115l95 -135h-158l-68 113h-80v-113zM391 451v-82h102q55 0 55 42q0 40 -55 40h-102z" />
    <glyph glyph-name="at.cap" horiz-adv-x="1057" 
d="M494 -26q-226 0 -352 111.5t-110 311.5q16 203 161 321.5t373 118.5q223 0 349.5 -110.5t110.5 -302.5q-19 -243 -244 -243q-143 0 -185 80q-27 -34 -71.5 -56t-95.5 -22q-97 0 -151.5 56t-46.5 153q7 106 76.5 172.5t169.5 66.5q46 0 85 -21.5t58 -55.5l11 56h196
l-29 -246q-2 -28 0 -46t17 -32.5t45 -14.5q77 0 86 154q14 158 -88.5 248.5t-299.5 90.5q-199 1 -317 -97.5t-132 -270.5q-13 -165 90.5 -257.5t300.5 -92.5q78 0 154 14.5t122 36.5l-2 -78q-111 -45 -281 -45zM506 321q39 0 69 29t34 68q3 34 -22 53.5t-62 19.5
q-38 0 -66 -29t-31 -68q-3 -34 19 -53.5t59 -19.5z" />
    </font>
</defs>
</svg>
