<svg width="126" height="59" viewBox="0 0 126 59" fill="none" xmlns="http://www.w3.org/2000/svg">
<path d="M26.1005 1.79327L26.034 0.795487L26.1005 1.79327ZM64.7067 3.51815L64.862 2.53027L64.7067 3.51815ZM69.9349 4.33971L70.0901 3.35183L69.9349 4.33971ZM118.77 55.4349L119.764 55.3244L119.764 55.3244L118.77 55.4349ZM119.781 58.1247C119.436 58.556 118.806 58.6259 118.375 58.2809L111.347 52.6586C110.916 52.3136 110.846 51.6843 111.191 51.253C111.536 50.8217 112.166 50.7518 112.597 51.0968L118.844 56.0944L123.841 49.8475C124.186 49.4162 124.816 49.3463 125.247 49.6913C125.678 50.0364 125.748 50.6656 125.403 51.0969L119.781 58.1247ZM89.7863 11.3063L89.2901 12.1745L89.7863 11.3063ZM0.43348 2.50222L26.034 0.795487L26.1671 2.79106L0.56652 4.49778L0.43348 2.50222ZM64.862 2.53027L70.0901 3.35183L69.7797 5.32759L64.5515 4.50602L64.862 2.53027ZM119.764 55.3244L119.994 57.3896L118.006 57.6104L117.777 55.5453L119.764 55.3244ZM90.2824 10.438C106.718 19.8296 117.674 36.5109 119.764 55.3244L117.777 55.5453C115.757 37.367 105.17 21.249 89.2901 12.1745L90.2824 10.438ZM26.034 0.795487C39.0009 -0.0689842 52.0238 0.512862 64.862 2.53027L64.5515 4.50602C51.86 2.51166 38.9859 1.93646 26.1671 2.79106L26.034 0.795487ZM70.0901 3.35183C77.1953 4.46835 84.0377 6.8696 90.2824 10.438L89.2901 12.1745C83.2563 8.72657 76.6449 6.4064 69.7797 5.32759L70.0901 3.35183Z" fill="#EE8D22"/>
</svg>
