<svg width="68" height="13" viewBox="0 0 68 13" fill="none" xmlns="http://www.w3.org/2000/svg">
<path d="M4.912 12.096C4.08 12.096 3.28 11.9627 2.512 11.696C1.75467 11.4293 1.168 11.0773 0.752 10.64L1.216 9.728C1.62133 10.1333 2.16 10.464 2.832 10.72C3.504 10.9653 4.19733 11.088 4.912 11.088C5.91467 11.088 6.66667 10.9067 7.168 10.544C7.66933 10.1707 7.92 9.69067 7.92 9.104C7.92 8.656 7.78133 8.29867 7.504 8.032C7.23733 7.76533 6.90667 7.56267 6.512 7.424C6.11733 7.27467 5.568 7.11467 4.864 6.944C4.02133 6.73067 3.34933 6.528 2.848 6.336C2.34667 6.13333 1.91467 5.82933 1.552 5.424C1.2 5.01867 1.024 4.46933 1.024 3.776C1.024 3.21067 1.17333 2.69867 1.472 2.24C1.77067 1.77067 2.22933 1.39733 2.848 1.12C3.46667 0.842666 4.23467 0.704 5.152 0.704C5.792 0.704 6.416 0.794666 7.024 0.976C7.64267 1.14667 8.176 1.38667 8.624 1.696L8.224 2.64C7.75467 2.33067 7.25333 2.10133 6.72 1.952C6.18667 1.792 5.664 1.712 5.152 1.712C4.17067 1.712 3.42933 1.904 2.928 2.288C2.43733 2.66133 2.192 3.14667 2.192 3.744C2.192 4.192 2.32533 4.55467 2.592 4.832C2.86933 5.09867 3.21067 5.30667 3.616 5.456C4.032 5.59467 4.58667 5.74933 5.28 5.92C6.10133 6.12267 6.76267 6.32533 7.264 6.528C7.776 6.72 8.208 7.01867 8.56 7.424C8.912 7.81867 9.088 8.35733 9.088 9.04C9.088 9.60533 8.93333 10.1227 8.624 10.592C8.32533 11.0507 7.86133 11.4187 7.232 11.696C6.60267 11.9627 5.82933 12.096 4.912 12.096ZM15.7158 3.52C16.7718 3.52 17.6091 3.82933 18.2278 4.448C18.8571 5.056 19.1718 5.94667 19.1718 7.12V12H18.0358V7.232C18.0358 6.35733 17.8171 5.69067 17.3798 5.232C16.9424 4.77333 16.3184 4.544 15.5078 4.544C14.6011 4.544 13.8811 4.816 13.3478 5.36C12.8251 5.89333 12.5638 6.63467 12.5638 7.584V12H11.4278V0.127999H12.5638V5.056C12.8731 4.56533 13.2998 4.18667 13.8438 3.92C14.3878 3.65333 15.0118 3.52 15.7158 3.52ZM25.7271 12.08C24.9165 12.08 24.1858 11.8987 23.5351 11.536C22.8845 11.1627 22.3725 10.6507 21.9991 10C21.6258 9.34933 21.4391 8.61333 21.4391 7.792C21.4391 6.97067 21.6258 6.23467 21.9991 5.584C22.3725 4.93333 22.8845 4.42667 23.5351 4.064C24.1858 3.70133 24.9165 3.52 25.7271 3.52C26.5378 3.52 27.2685 3.70133 27.9191 4.064C28.5698 4.42667 29.0765 4.93333 29.4391 5.584C29.8125 6.23467 29.9991 6.97067 29.9991 7.792C29.9991 8.61333 29.8125 9.34933 29.4391 10C29.0765 10.6507 28.5698 11.1627 27.9191 11.536C27.2685 11.8987 26.5378 12.08 25.7271 12.08ZM25.7271 11.072C26.3245 11.072 26.8578 10.9387 27.3271 10.672C27.8071 10.3947 28.1805 10.0053 28.4471 9.504C28.7138 9.00267 28.8471 8.432 28.8471 7.792C28.8471 7.152 28.7138 6.58133 28.4471 6.08C28.1805 5.57867 27.8071 5.19467 27.3271 4.928C26.8578 4.65067 26.3245 4.512 25.7271 4.512C25.1298 4.512 24.5911 4.65067 24.1111 4.928C23.6418 5.19467 23.2685 5.57867 22.9911 6.08C22.7245 6.58133 22.5911 7.152 22.5911 7.792C22.5911 8.432 22.7245 9.00267 22.9911 9.504C23.2685 10.0053 23.6418 10.3947 24.1111 10.672C24.5911 10.9387 25.1298 11.072 25.7271 11.072ZM44.436 3.584L41.252 12H40.18L37.524 5.104L34.868 12H33.796L30.628 3.584H31.716L34.356 10.736L37.06 3.584H38.036L40.724 10.736L43.396 3.584H44.436ZM57.598 9.008H51.358L50.014 12H48.782L53.902 0.799999H55.07L60.19 12H58.942L57.598 9.008ZM57.166 8.048L54.478 2.032L51.79 8.048H57.166ZM61.8028 0.127999H62.9388V12H61.8028V0.127999ZM66.0996 0.127999H67.2356V12H66.0996V0.127999Z" fill="#EE8D22"/>
</svg>
