<svg width="37" height="13" viewBox="0 0 37 13" fill="none" xmlns="http://www.w3.org/2000/svg">
<path d="M10.184 0.799999V12H9.016V6.832H2.008V12H0.824V0.799999H2.008V5.792H9.016V0.799999H10.184ZM13.5996 3.584H14.7356V12H13.5996V3.584ZM14.1756 1.744C13.941 1.744 13.7436 1.664 13.5836 1.504C13.4236 1.344 13.3436 1.152 13.3436 0.927999C13.3436 0.714666 13.4236 0.528 13.5836 0.367999C13.7436 0.207999 13.941 0.127999 14.1756 0.127999C14.4103 0.127999 14.6076 0.207999 14.7676 0.367999C14.9276 0.517332 15.0076 0.698666 15.0076 0.912C15.0076 1.14667 14.9276 1.344 14.7676 1.504C14.6076 1.664 14.4103 1.744 14.1756 1.744ZM25.5765 0.127999V12H24.4885V10.336C24.1472 10.9013 23.6938 11.3333 23.1285 11.632C22.5738 11.9307 21.9445 12.08 21.2405 12.08C20.4512 12.08 19.7365 11.8987 19.0965 11.536C18.4565 11.1733 17.9552 10.6667 17.5925 10.016C17.2298 9.36533 17.0485 8.624 17.0485 7.792C17.0485 6.96 17.2298 6.21867 17.5925 5.568C17.9552 4.91733 18.4565 4.416 19.0965 4.064C19.7365 3.70133 20.4512 3.52 21.2405 3.52C21.9232 3.52 22.5365 3.664 23.0805 3.952C23.6352 4.22933 24.0885 4.64 24.4405 5.184V0.127999H25.5765ZM21.3365 11.072C21.9232 11.072 22.4512 10.9387 22.9205 10.672C23.4005 10.3947 23.7738 10.0053 24.0405 9.504C24.3178 9.00267 24.4565 8.432 24.4565 7.792C24.4565 7.152 24.3178 6.58133 24.0405 6.08C23.7738 5.57867 23.4005 5.19467 22.9205 4.928C22.4512 4.65067 21.9232 4.512 21.3365 4.512C20.7392 4.512 20.2005 4.65067 19.7205 4.928C19.2512 5.19467 18.8778 5.57867 18.6005 6.08C18.3338 6.58133 18.2005 7.152 18.2005 7.792C18.2005 8.432 18.3338 9.00267 18.6005 9.504C18.8778 10.0053 19.2512 10.3947 19.7205 10.672C20.2005 10.9387 20.7392 11.072 21.3365 11.072ZM36.0683 8.144H29.0283C29.0923 9.01867 29.4283 9.728 30.0363 10.272C30.6443 10.8053 31.4123 11.072 32.3403 11.072C32.8629 11.072 33.3429 10.9813 33.7803 10.8C34.2176 10.608 34.5963 10.3307 34.9163 9.968L35.5563 10.704C35.1829 11.152 34.7136 11.4933 34.1483 11.728C33.5936 11.9627 32.9803 12.08 32.3083 12.08C31.4443 12.08 30.6763 11.8987 30.0043 11.536C29.3429 11.1627 28.8256 10.6507 28.4523 10C28.0789 9.34933 27.8923 8.61333 27.8923 7.792C27.8923 6.97067 28.0683 6.23467 28.4203 5.584C28.7829 4.93333 29.2736 4.42667 29.8923 4.064C30.5216 3.70133 31.2256 3.52 32.0043 3.52C32.7829 3.52 33.4816 3.70133 34.1003 4.064C34.7189 4.42667 35.2043 4.93333 35.5563 5.584C35.9083 6.224 36.0843 6.96 36.0843 7.792L36.0683 8.144ZM32.0043 4.496C31.1936 4.496 30.5109 4.75733 29.9563 5.28C29.4123 5.792 29.1029 6.464 29.0283 7.296H34.9963C34.9216 6.464 34.6069 5.792 34.0523 5.28C33.5083 4.75733 32.8256 4.496 32.0043 4.496Z" fill="#EE8D22"/>
</svg>
